<svg xmlns="http://www.w3.org/2000/svg" width="125" height="31.248" viewBox="0 0 216.15 54.03"><title>jt-one</title><g data-name="Layer 2"><g data-name="Layer 1" fill="#fff"><path d="M187.47 52.72V1.24h28.68v9.28h-17.63V21.8h12.14v8.35h-12.14v12.91h17.62v9.66zM175.41 52.72l-11.36-20.64-4.41-8.43v29.07h-10.12V1.24h9.2l11.05 21.1 4.17 8.43V1.24h10v51.48zM129.27 54c-10.59 0-16.93-6.57-16.93-15.77V15.69c0-9.12 6.34-15.69 16.93-15.69s16.93 6.57 16.93 15.69v22.57c0 9.2-6.26 15.74-16.93 15.74zm5.8-39c0-3.48-2.09-5.8-5.8-5.8s-5.72 2.32-5.72 5.8v23.88c0 3.48 2.09 5.8 5.72 5.8s5.8-2.32 5.8-5.8zM88.38 11.92a14.9 14.9 0 0 0-3.67-3 23.87 23.87 0 0 0-4.94-2.32 17.52 17.52 0 0 0-3.67-.76 9 9 0 0 0-4 .63 6.62 6.62 0 0 0-3.42 2.91q-2.36 3.8-.25 10.21a48.91 48.91 0 0 0 5.23 10.8 154.27 154.27 0 0 0 12.1 16.9 2.64 2.64 0 0 0 3.38.84 3.44 3.44 0 0 0 1.69-.13 3.09 3.09 0 0 0 1.69-1.77 3.82 3.82 0 0 0 .67-.67l.51-.93a2.56 2.56 0 0 0 1.52-1.35L97.16 40l.17-.25 4.9-6.08q6.16-8 7.77-14.27a13.27 13.27 0 0 0 .42-5.15 5 5 0 0 0-2.87-4 .25.25 0 0 0-.17-.08 4.66 4.66 0 0 0-3-.42 14.17 14.17 0 0 0-4.81 1.52A45.42 45.42 0 0 0 91.08 17a11.63 11.63 0 0 0-2.7-5.06m15.7 4.47q-.42 1.1-1.27 2.79-1.52 2.87-4.39 7.6l-6.08 9.79L90.49 39q-4.64-12.07-9.62-18.57-1.27-1.69-2.19-3a7.44 7.44 0 0 1-1.18-2.28 1.57 1.57 0 0 1-.08-.51 13.38 13.38 0 0 1 2.74 1.56 8.13 8.13 0 0 1 2 1.81 17.69 17.69 0 0 1 3.46 7.77 3 3 0 0 0 .59 2 2.67 2.67 0 0 0 3.12 1.35A2.76 2.76 0 0 0 91.59 27a74.85 74.85 0 0 1 8.69-8.36 20.33 20.33 0 0 1 3.88-2.62zM15.61 53.11C5.71 53.11 0 47.32 0 38.33v-6.7h10.36v6.78c0 3.73 2 5.48 5.18 5.48s5-1.75 5-5.48V1.09h10.91v36.63c0 9.07-5.56 15.39-15.84 15.39zM55.82 10.38v41.43H44.93V10.38H34V1.09h32.71v9.29z"/></g></g></svg>