<svg xmlns="http://www.w3.org/2000/svg" width="66" height="40.906" viewBox="0 0 152.8 94.71"><title>re</title><g data-name="Layer 2"><g data-name="Layer 1" fill="#fff"><path d="M38.91 36.4c0 3.41-1.42 4.69-4.27 4.69h-6.26V19.2h6.26c2.84 0 4.27 1.28 4.27 4.69zm6.68 58.3h21v-.43c-1.71-4.55-3.27-9.39-3.27-15.36V62.43c0-5-3.84-10.81-10.38-13.51 6.54-2.7 10-8.53 10-13.37V21.61C62.94 8.53 51.42 0 39 0H0v94.7h28.38V58.3h5.83c3.55 0 5.4 3.55 5.4 6.11v15.65c0 6.83 2 14.65 6 14.65m27.3 0h54.18v-21.9H98.34V55.17H117V37.26H98.34V20.62h28.72V0H72.89zM134.6 55.17h18.2V33.42h-18.2zm18.2 17.77h-18.2v21.77h18.2z"/></g></g></svg>