<svg xmlns="http://www.w3.org/2000/svg" width="166" height="26.491" viewBox="0 0 322.8 51.51"><title>studio-w</title><g id="Layer_2" data-name="Layer 2"><g id="Layer_1-2" data-name="Layer 1"><polygon points="291.21 35.97 295.33 50.75 309.23 50.75 322.8 13.32 306.88 13.32 302.06 29.88 297.17 13.32 285.06 13.32 280.17 29.88 275.98 13.32 258.28 13.32 272.75 50.75 286.64 50.75 291.21 35.97" fill="#fff"/><path d="M221.88,39.78c-3,0-4.63-1.9-4.63-7.74s1.65-7.68,4.63-7.68,4.63,1.9,4.63,7.68-1.71,7.74-4.63,7.74m0-27.22C208.81,12.56,199,21.32,199,32s9.83,19.48,22.9,19.48S244.72,42.76,244.72,32s-9.83-19.48-22.84-19.48" fill="#fff"/><path d="M152.93,39.72c-3,0-5.39-1.9-5.39-7.68s2.41-7.74,5.39-7.74,5.39,1.91,5.39,7.74-2.41,7.68-5.39,7.68M157.43,0V15.23A17.62,17.62,0,0,0,148,12.56c-10.34,0-18.72,8.76-18.72,19.48s6.6,19.41,16.94,19.41a13.29,13.29,0,0,0,11.1-5.14l.89,4.44H175.7V0Z" fill="#fff"/><path d="M51.57,23.22V37.88c0,7.61,5.52,12.88,16.81,12.88H78.72V40.16H73.65c-2.09,0-3.81-1.65-3.81-3.24V23.22h8.88v-9.9H69.84V6.22H51.57v7.1H44.15v9.9Z" fill="#fff"/><path d="M261.27,32.39a6.91,6.91,0,1,1-6.92-6.92,6.92,6.92,0,0,1,6.92,6.92" fill="#fff"/><rect x="179" y="13.32" width="18.27" height="37.43" fill="#fff"/><path d="M109.42,13.32v22c0,2.16-2.22,3.8-4.88,3.8s-4.89-1.65-4.89-3.8v-22H81.38v27c.32,6.92,6,11.1,15.1,11.1,5.9,0,10.59-2.54,12.82-5.14l.89,4.44h17.45V13.32Z" fill="#fff"/><path d="M22.08,12.56C7.61,12.56.7,19.29.7,25.5c0,13.83,26.2,10.4,26.2,14.72,0,1.33-1.59,2.28-5.2,2.28-3.36,0-5.71-1.52-6.15-4.06H0c0,7.61,10,13.07,22.39,13.07,15.48,0,21.57-5.84,21.57-13C44,24.74,17.57,27.66,17.57,22.9c0-1.4,1.52-2,4.44-2,2.41,0,5.33,1,5.77,4.06H42.51c0-6.53-8.44-12.37-20.43-12.37" fill="#fff"/></g></g></svg>
