<?xml version="1.0" encoding="utf-8"?>
<!-- Generator: Adobe Illustrator 21.1.0, SVG Export Plug-In . SVG Version: 6.00 Build 0)  -->
<svg version="1.0" id="Layer_1" xmlns="http://www.w3.org/2000/svg" xmlns:xlink="http://www.w3.org/1999/xlink" x="0px" y="0px"
	 width="204px" height="24px" viewBox="0 0 204 24" style="enable-background:new 0 0 204 24;" xml:space="preserve">
<path style="fill:#FFFFFF;" d="M180.8,21.3L180.8,21.3l-1.9-21.1h-2.7l-1.7,21.1h-0.1l-1.8-21.1h-2l2.4,23.6h2.8l1.6-21h0.1l1.6,21
	h2.8l2.4-23.6h-2L180.8,21.3z M24.5,0c-2.9,0-3.8,1.7-3.8,4v16c0,2.3,0.9,4,3.8,4c2.9,0,3.8-1.7,3.8-4V4C28.3,1.7,27.4,0,24.5,0z
	 M26.2,19.9c0,1.3-0.3,2.2-1.6,2.2c-1.4,0-1.6-0.9-1.6-2.2V4.1c0-1.3,0.3-2.2,1.6-2.2c1.4,0,1.6,0.9,1.6,2.2V19.9z M66.5,11.5
	L66.5,11.5c1.7-0.1,2.4-0.8,2.4-2.6v-6c0-2.4-1.3-2.7-3.3-2.7h-4v23.6h4c2.2,0,3.4-0.4,3.4-2.7v-7.4C69,12.1,68,11.6,66.5,11.5z
	 M63.7,2h1.2c1.1,0,1.8,0.2,1.8,1.6v5.3c0,1.4-0.6,1.7-1.6,1.7h-1.4V2z M66.8,20.4c0,1.4-0.7,1.6-1.8,1.6h-1.3v-9.5h1.4
	c1,0,1.7,0.3,1.7,1.4V20.4z M115.8,11.5L115.8,11.5c1.7-0.1,2.4-0.8,2.4-2.6v-6c0-2.4-1.3-2.7-3.3-2.7h-4v23.6h4
	c2.2,0,3.4-0.4,3.4-2.7v-7.4C118.3,12.1,117.4,11.6,115.8,11.5z M113,2h1.2c1.1,0,1.8,0.2,1.8,1.6v5.3c0,1.4-0.6,1.7-1.6,1.7H113V2z
	 M116.1,20.4c0,1.4-0.7,1.6-1.8,1.6H113v-9.5h1.4c1,0,1.7,0.3,1.7,1.4V20.4z M201.7,0.2v20.2h-0.1L199,0.2h-3.1v23.6h1.9v-21h0.1
	l2.7,21h3.1V0.2H201.7z M5.4,11.5L5.4,11.5c1.7-0.1,2.4-0.8,2.4-2.6v-6c0-2.4-1.3-2.7-3.3-2.7h-4v23.6h4c2.2,0,3.4-0.4,3.4-2.7v-7.4
	C7.8,12.1,6.9,11.6,5.4,11.5z M2.5,2h1.2c1.1,0,1.8,0.2,1.8,1.6v5.3c0,1.4-0.6,1.7-1.6,1.7H2.5V2z M5.7,20.4c0,1.4-0.7,1.6-1.8,1.6
	H2.5v-9.5H4c1,0,1.7,0.3,1.7,1.4V20.4z M136.2,11.5L136.2,11.5c1.7-0.2,2.4-0.8,2.4-2.6v-6c0-2.4-1.3-2.7-3.3-2.7h-4v23.6h2.2V12.5
	h1.4c1,0,1.7,0.3,1.7,1.4v9.9h2.2V13.7C138.7,12.1,137.8,11.6,136.2,11.5z M134.8,10.6h-1.4V2h1.2c1.1,0,1.8,0.2,1.8,1.6v5.3
	C136.4,10.3,135.8,10.6,134.8,10.6z M46.1,11.5L46.1,11.5c1.7-0.1,2.4-0.8,2.4-2.6v-6c0-2.4-1.3-2.7-3.3-2.7h-4v23.6h4
	c2.2,0,3.4-0.4,3.4-2.7v-7.4C48.6,12.1,47.6,11.6,46.1,11.5z M43.3,2h1.2c1.1,0,1.8,0.2,1.8,1.6v5.3c0,1.4-0.6,1.7-1.6,1.7h-1.4V2z
	 M46.4,20.4c0,1.4-0.7,1.6-1.8,1.6h-1.3v-9.5h1.4c1,0,1.7,0.3,1.7,1.4V20.4z M81.9,23.8H84V0.2h-2.2V23.8z M155.4,0
	c-2.9,0-3.8,1.7-3.8,4v16c0,2.3,0.9,4,3.8,4c2.9,0,3.8-1.7,3.8-4V4C159.2,1.7,158.3,0,155.4,0z M157,19.9c0,1.3-0.3,2.2-1.6,2.2
	c-1.4,0-1.6-0.9-1.6-2.2V4.1c0-1.3,0.3-2.2,1.6-2.2c1.4,0,1.6,0.9,1.6,2.2V19.9z"/>
</svg>
