<svg xmlns="http://www.w3.org/2000/svg" width="151.25" height="24" viewBox="0 0 151.25 24"><title>chanel</title><path d="M65.28.51H62.38L52.32,23.58h4.74l2.25-5.11h12l2.25,5.11h4.72L68.19.51Zm0,13.4h-4l4-9.13,0,0,4,9.17Z" transform="translate(-0.38)" fill="#fff" fill-rule="evenodd"/><polygon points="115.62 14.34 126.11 14.34 126.11 9.79 115.62 9.79 115.62 4.81 127.38 4.81 127.38 0.51 110.64 0.51 110.64 23.59 128.6 23.59 128.6 19.28 115.62 19.28 115.62 14.34" fill="#fff" fill-rule="evenodd"/><polygon points="139.4 19.28 139.4 0.51 134.42 0.51 134.42 23.59 151.25 23.59 151.25 19.32 139.4 19.28" fill="#fff" fill-rule="evenodd"/><polygon points="42.96 8.83 32.34 8.83 32.34 0.51 27.36 0.51 27.36 23.59 32.34 23.59 32.34 13.77 42.96 13.77 42.96 23.59 47.94 23.59 47.94 0.55 42.96 0.55 42.96 8.83" fill="#fff" fill-rule="evenodd"/><polygon points="98.75 14.87 88.53 0.55 86.74 0.51 82.74 0.51 82.74 23.59 86.74 23.59 86.74 6.74 98.75 23.59 103.04 23.59 103.04 0.55 98.75 0.55 98.75 14.87" fill="#fff" fill-rule="evenodd"/><polygon points="17.7 16.11 17.09 16.83 16.45 17.47 15.66 18 14.83 18.45 13.94 18.77 12.98 18.96 12 19.04 11.32 19.02 10.62 18.91 9.96 18.75 9.32 18.51 8.68 18.21 8.11 17.85 7.55 17.43 7.04 16.98 6.57 16.45 6.15 15.91 5.79 15.32 5.49 14.7 5.28 14.06 5.11 13.38 5.02 12.7 4.98 12 5.02 11.3 5.11 10.62 5.28 9.96 5.49 9.34 5.79 8.72 6.15 8.11 6.57 7.55 7.04 7.04 7.55 6.57 8.11 6.17 8.68 5.81 9.32 5.53 9.96 5.28 10.62 5.13 11.32 5.02 12 4.98 12.72 5.02 13.4 5.13 14.06 5.28 14.72 5.53 15.3 5.81 15.91 6.17 16.47 6.57 16.98 7.04 17.55 7.7 18.02 8.38 22.47 6.11 22.06 5.43 21.57 4.77 21.08 4.15 20.51 3.53 19.6 2.72 18.68 2.04 17.66 1.43 16.59 0.92 15.53 0.55 14.36 0.24 13.19 0.06 12 0 10.77 0.06 9.59 0.26 8.45 0.55 7.34 0.96 6.3 1.47 5.28 2.06 4.36 2.75 3.53 3.53 2.75 4.4 2.06 5.32 1.43 6.3 0.96 7.34 0.55 8.45 0.24 9.6 0.06 10.79 0 12 0.06 13.21 0.24 14.36 0.51 15.49 0.91 16.6 1.42 17.64 2 18.66 2.72 19.6 3.53 20.47 4.4 21.28 5.34 22 6.36 22.6 7.4 23.09 8.51 23.49 9.64 23.79 10.81 23.94 12 24 13.19 23.94 14.36 23.79 15.53 23.49 16.59 23.09 17.66 22.6 18.68 22 19.6 21.28 20.51 20.47 21.13 19.83 21.7 19.11 22.21 18.36 22.64 17.59 18.21 15.32 17.7 16.11" fill="#fff" fill-rule="evenodd"/></svg>