<?xml version="1.0" encoding="utf-8"?>
<!-- Generator: Adobe Illustrator 21.1.0, SVG Export Plug-In . SVG Version: 6.00 Build 0)  -->
<svg version="1.0" id="Layer_1" xmlns="http://www.w3.org/2000/svg" xmlns:xlink="http://www.w3.org/1999/xlink" x="0px" y="0px"
	 width="86px" height="24px" viewBox="0 0 86 24" style="enable-background:new 0 0 86 24;" xml:space="preserve">
<path style="fill:#FFFFFF;" d="M0.6,0v0.5h85.1V0H0.6z M0.6,23.5V24h85.1v-0.5H0.6z M56.7,18.8c3.8-1.5,5.1-3.5,5.1-7.4
	c0-4.8-2-7.1-7.1-7.1c-4.4,0-6.9,2.5-6.9,6.9c0,4,1.4,6.6,4.3,7.5c1,0.4,2.3,0,4.4,1.3c3.3,1.9,3.3,2,4.2,2c0.5,0,0.7-0.2,0.7-0.5
	c0-0.5-0.9,0-2.1-1.4c-0.4-0.5-1.1-0.9-2.4-1.2L56.7,18.8L56.7,18.8z M54.8,5.3c3.1,0,4.8,2.3,4.8,6.4c0,4.1-1.5,6.5-4.8,6.5
	c-3,0-4.9-2.2-4.9-6.4C49.9,7.6,51.8,5.3,54.8,5.3L54.8,5.3z M11.8,4.6c-1.8-0.2-3.2-0.4-5-0.4c-4.2,0-6.5,2.5-6.5,7.3
	c0,5.1,2.7,7.7,7.6,7.7c1.4,0,2.7-0.2,3.3-0.6c0.7-0.4,1.1-1.8,1.1-1.9c0-0.2,0-0.3-0.1-0.3c-0.2,0-1.8,1.7-4.2,1.7
	c-3.2,0-5.2-2.4-5.2-6.6c0-4,1.8-6.2,5.2-6.2c2.9,0,3.5,1.1,3.8,1.1c0.1,0,0.1,0,0.1-0.1c0-0.2-0.2-1-0.2-1.6L11.8,4.6L11.8,4.6
	L11.8,4.6z M28.7,4.6c0.6,2.4,0.6,2.9,0.6,7.5c0,2.8-0.1,5.2-0.1,7v0.2h2.2c-0.8-1-0.8-1.2-0.8-2.3l0.3-9.3l8.5,11.6h1.3L40.4,4.6
	h-1.9c0.8,0.9,0.8,1,0.8,2.3l-0.4,8L31.4,4.6H28.7L28.7,4.6z M63.5,4.6c0.4,4.8,0.4,4.8,0.4,6.4c0,1.3-0.1,2.2-0.1,3.2
	c0,3.9,1.3,5.5,5.4,5.5c4.6,0,5.5-1.6,5.5-5.9V4.6h-2c0.4,0.8,0.7,1.4,0.7,2.2L73.2,12c0,6.1-1,6.6-3.7,6.6c-3.5,0-3.5-2.1-3.5-6.7
	c0-1.4,0.1-5.1,0.4-7.2V4.6L63.5,4.6L63.5,4.6z M76.6,4.6C77,8,77.1,9,77.1,12.1c0,1.8,0,1.8-0.4,6.9v0.1c1.8-0.2,2.9-0.2,3.8-0.2
	c1.6,0,2.6,0.2,3.5,0.2c1.2,0,1.7-0.3,1.7-2.1V17c-0.6,0.7-1.2,1.1-2.2,1.1c-1.2,0-2.7-0.2-4.1-0.5l-0.2,0l0.2-5.4h5.8
	c-0.1-0.3-0.1-0.4-0.1-0.6c0-0.2,0-0.3,0-0.5l0-0.1h-5.8V6c2-0.1,4.3-0.4,5-0.4c0.4,0,0.4,0,1.2,0.7l0.1,0.1l-0.2-1.9L76.6,4.6
	L76.6,4.6L76.6,4.6z M13.7,4.6c0.3,2.5,0.5,4.4,0.5,9c0,1.7-0.1,3.2-0.2,5.6v0.1c1.5-0.1,2.3-0.2,3.3-0.2c1.6,0,1.7,0.1,2.9,0.1
	c1,0,1.5-0.3,1.6-0.4c0.1,0,0.6-1,0.6-1.6c0-0.2-0.1-0.3-0.2-0.3c-0.2,0-0.6,1.1-2,1.1c-1.1,0-1.8-0.3-3.6-0.3h-0.2
	c0-6.5,0-9.8,0.2-13.1V4.6L13.7,4.6L13.7,4.6z M23.5,4.6c0.3,3.8,0.4,5.2,0.4,8.2c0,2.6,0,3.3-0.2,6.4v0.1h2.5
	c-0.1-2.8-0.2-4.6-0.2-7.8c0-0.9,0-0.9,0.2-6.8V4.6L23.5,4.6L23.5,4.6L23.5,4.6z M43.4,4.6c0.3,3.6,0.4,5.2,0.4,8.1
	c0,2.6-0.1,4.9-0.2,6.5v0.1h2.5c-0.1-2.9-0.2-4.9-0.2-7.7c0-0.9,0-0.9,0.2-6.9V4.6L43.4,4.6L43.4,4.6L43.4,4.6z"/>
</svg>
