<?xml version="1.0" encoding="utf-8"?>
<!-- Generator: Adobe Illustrator 21.1.0, SVG Export Plug-In . SVG Version: 6.00 Build 0)  -->
<svg version="1.0" id="Layer_1" xmlns="http://www.w3.org/2000/svg" xmlns:xlink="http://www.w3.org/1999/xlink" x="0px" y="0px"
	 width="138px" height="24px" viewBox="0 0 138 24" style="enable-background:new 0 0 138 24;" xml:space="preserve">
<g>
	<g>
		<path style="fill:#FFFFFF;" d="M58.1,20.4c-0.2,0-0.3,0-0.4,0c-0.2,0-0.3-0.1-0.4-0.2c-0.2-0.4-0.5-0.7-0.7-1.1
			c-0.8-1.2-1.6-2.4-2.4-3.6c0,0-0.1-0.1-0.1-0.2c0,2.8,0,5.6,0,8.4c-0.1,0-0.1,0-0.2,0c-1.1,0-2.2,0-3.2,0c0,0-0.1,0-0.1,0
			c0-0.1,0-0.1,0-0.2c0-0.1,0-0.1,0-0.2c0-4.8,0-9.5,0-14.3c0-0.1,0-0.2,0-0.3c0.2-0.1,2.9-0.1,3.5,0c1.3,2,2.6,4,3.9,6
			c1.3-2,2.6-4,3.9-6c0.2,0,3.2,0,3.5,0c0,0,0,0.1,0,0.2c0,0.1,0,0.1,0,0.2c0,4.8,0,9.5,0,14.3c0,0.1,0,0.2,0,0.3c0,0,0,0,0,0
			c0,0,0,0,0,0c0,0-0.1,0-0.1,0c-1.1,0-2.2,0-3.3,0c0,0,0,0-0.1,0c0-0.1,0-0.1,0-0.2c0-0.2,0-0.5,0-0.7c0-2.4,0-4.9,0-7.3
			c0-0.1,0-0.1,0-0.3c-0.2,0.2-0.3,0.4-0.4,0.6c-0.1,0.2-0.3,0.4-0.4,0.6c-0.1,0.2-0.3,0.4-0.4,0.6c-0.1,0.2-0.3,0.4-0.4,0.6
			c-0.1,0.2-0.2,0.4-0.4,0.6c-0.1,0.2-0.3,0.4-0.4,0.6c-0.1,0.2-0.3,0.4-0.4,0.6c-0.1,0.2-0.3,0.4-0.4,0.6
			C58.3,20,58.2,20.2,58.1,20.4z"/>
		<path style="fill:#FFFFFF;" d="M14.2,10.9c-0.8,0.9-1.5,1.8-2.3,2.7c-0.3-0.3-0.6-0.5-1-0.8C10.3,12.4,9.6,12,8.7,12
			c-0.3,0-0.6-0.1-0.8,0c-0.8,0-1.5,0.3-2.1,0.7c-0.9,0.7-1.4,1.6-1.6,2.6c-0.1,0.4-0.1,0.8-0.1,1.3c0.1,0.9,0.3,1.8,0.8,2.5
			c0.4,0.6,1,1,1.7,1.3c0.4,0.1,0.8,0.2,1.2,0.3c1.1,0.1,2.2-0.2,3.2-0.7c0-0.6,0-1.1,0-1.7c-0.2,0-0.5,0-0.7,0c-0.2,0-0.5,0-0.7,0
			c-0.2,0-0.5,0-0.7,0c-0.2,0-0.5,0-0.7,0c-0.2,0-0.5,0-0.7,0c0-0.2-0.1-2.8,0-3.3c0,0,0,0,0,0c0,0,0,0,0,0c2.3,0,4.6,0,6.9,0
			c0,0,0.1,0,0.1,0c0,0.1,0,0.1,0,0.2c0,2.1,0,4.2,0,6.2c0,0.2-0.1,0.3-0.2,0.4c-0.5,0.4-1,0.8-1.6,1.1c-0.8,0.5-1.7,0.8-2.6,1
			C9.7,23.9,9.2,24,8.8,24c-0.3,0-0.6,0-0.9,0c-1.3,0-2.6-0.3-3.8-1c-1.1-0.6-2.1-1.5-2.7-2.7c-0.5-0.9-0.8-1.8-1-2.7
			c-0.1-0.5-0.1-1.1-0.1-1.7c0-0.8,0.2-1.7,0.5-2.5c0.3-0.9,0.8-1.6,1.4-2.3c0.6-0.7,1.3-1.3,2.1-1.7c0.6-0.4,1.3-0.6,2-0.8
			c0.5-0.1,0.9-0.2,1.4-0.2c0.1,0,0.2,0,0.3,0c0.1,0,0.1,0,0.2,0c0.2,0,0.5,0,0.7,0c1,0.1,1.9,0.3,2.8,0.7c0.8,0.3,1.4,0.8,2.1,1.3
			C13.9,10.6,14.1,10.8,14.2,10.9z"/>
		<path style="fill:#FFFFFF;" d="M40.4,8.6c2.2,5,4.4,10,6.6,15.1c0,0-0.1,0-0.1,0c-1.2,0-2.5,0-3.8,0c-0.5-1.1-0.9-2.2-1.4-3.3
			c-0.2,0-5.5-0.1-5.8,0c-0.5,1.1-0.9,2.2-1.4,3.3c-0.2,0-3.1,0.1-3.6,0c0,0-0.1,0-0.1,0c2.2-5,4.4-10.1,6.6-15.1
			C38.4,8.6,39.4,8.6,40.4,8.6z M38.9,12.4c-0.3,0.8-0.5,1.7-0.8,2.5c-0.9,0-1.7-0.1-2.6,0c0.7,0.5,1.4,1,2.1,1.5
			c-0.3,0.8-0.6,1.6-0.9,2.4c0.7-0.5,1.4-1.1,2.1-1.6c0.7,0.5,1.4,1,2.1,1.6c-0.3-0.8-0.6-1.6-0.8-2.5c0.7-0.5,1.4-1,2.1-1.5
			c-0.9,0-1.7,0.1-2.6,0C39.4,14.1,39.1,13.3,38.9,12.4z"/>
		<path style="fill:#FFFFFF;" d="M128,20.3c1.3-3.7,2.5-7.4,3.8-11.1c0.7,0,1.3,0,2,0c0,0,0,0,0,0c0,0,0,0,0,0c0,0,0,0,0,0
			c0,0.1,0,0.1-0.1,0.2c-1.7,4.7-3.3,9.3-5,14c-0.2,0.1-1.2,0.1-1.6,0c0,0-0.1-0.1-0.1-0.2c-0.5-1.5-1-2.9-1.5-4.4
			c-0.4-1.2-0.8-2.5-1.2-3.7c-0.3-0.9-0.6-1.7-0.9-2.6c-1.2,3.6-2.4,7.2-3.7,10.8c-0.2,0.1-1.3,0.1-1.6,0c0,0-0.1-0.1-0.1-0.2
			c-0.3-0.9-0.6-1.8-0.9-2.7c-0.5-1.3-0.9-2.6-1.4-3.9c-0.3-0.7-0.5-1.5-0.8-2.2c-0.4-1.1-0.8-2.2-1.2-3.4c-0.2-0.6-0.4-1.2-0.6-1.8
			c0,0,0,0,0-0.1c0.2-0.1,1.5-0.1,2.1,0c0,0.1,0.1,0.2,0.1,0.3c0.3,0.9,0.6,1.7,0.9,2.6c0.4,1.1,0.7,2.1,1.1,3.2
			c0.4,1.2,0.8,2.4,1.2,3.5c0.2,0.5,0.3,1,0.5,1.5c1.2-3.7,2.4-7.4,3.7-11.1c0.5,0,1,0,1.6,0c0.4,1.2,0.8,2.5,1.2,3.7
			c0.4,1.2,0.8,2.5,1.2,3.7C127.1,17.8,127.5,19,128,20.3z"/>
		<path style="fill:#FFFFFF;" d="M28.4,20.4c0,0.2,0,3.2,0,3.4c0,0,0,0,0,0c0,0,0,0,0,0c0,0-0.1,0-0.1,0c-3.5,0-7.1,0-10.6,0
			c0,0,0,0-0.1,0c0,0,0,0,0,0c0,0,0,0,0,0c0,0,0,0,0,0c0,0,0-0.1,0-0.1c0-4.9,0-9.8,0-14.7c0,0,0,0,0-0.1c0,0,0.1,0,0.2,0
			c1.1,0,2.2,0,3.3,0c0,0,0.1,0,0.1,0c0,0.1,0,0.1,0,0.2c0,0.1,0,0.2,0,0.3c0,3.6,0,7.2,0,10.9c0,0.1,0,0.2,0,0.3c0.3,0,0.6,0,0.9,0
			c0.3,0,0.6,0,0.9,0c0.3,0,0.6,0,0.9,0s0.6,0,0.9,0c0.3,0,0.6,0,0.9,0c0.3,0,0.6,0,0.9,0s0.6,0,0.9,0
			C27.8,20.4,28.1,20.4,28.4,20.4z"/>
		<path style="fill:#FFFFFF;" d="M104.1,8.9c0.9,0,1.8,0.1,2.6,0.5c0.8,0.3,1.4,0.7,2.1,1.2c0.8,0.7,1.4,1.4,1.8,2.4
			c0.3,0.6,0.5,1.3,0.6,2c0.1,0.4,0.1,0.8,0.1,1.3c0,0.7-0.1,1.4-0.3,2.1c-0.3,0.9-0.7,1.8-1.2,2.5c-0.6,0.8-1.3,1.4-2.1,1.9
			c-0.7,0.4-1.4,0.6-2.1,0.8c-0.3,0.1-0.7,0.1-1,0.1c-0.2,0-0.4,0-0.5,0c-1.5,0-2.8-0.4-4.1-1.2c-0.9-0.6-1.5-1.3-2.1-2.2
			c-0.5-0.8-0.8-1.7-1-2.7c0-0.2,0-0.5-0.1-0.7c0-0.2,0-0.3,0-0.5c0-1.1,0.2-2.1,0.7-3.1c0.4-1,1.1-1.8,1.9-2.5
			c0.9-0.8,2-1.3,3.2-1.5C103.1,9,103.6,8.9,104.1,8.9z M104.1,10.7c-0.3,0-0.6,0-0.9,0.1c-1.2,0.2-2.2,0.8-3,1.7
			c-0.4,0.4-0.7,0.9-0.9,1.4c-0.3,0.7-0.4,1.4-0.5,2.2c0,0.5,0,0.9,0.1,1.4c0.1,0.6,0.4,1.2,0.7,1.8c0.6,0.9,1.3,1.6,2.3,2
			c0.7,0.3,1.4,0.4,2.2,0.5c0.1,0,0.3,0,0.4,0c0.6,0,1.2-0.2,1.7-0.5c0.7-0.3,1.2-0.7,1.7-1.3c0.3-0.4,0.6-0.7,0.8-1.2
			c0.4-0.8,0.6-1.7,0.6-2.7c0-0.2,0-0.3,0-0.5c0-0.5-0.1-1-0.3-1.4c-0.3-0.9-0.8-1.7-1.5-2.3c-0.3-0.3-0.6-0.5-1-0.7
			C105.8,10.9,105,10.7,104.1,10.7z"/>
		<path style="fill:#FFFFFF;" d="M79.7,20.5c0-1.1,0-2.1,0-3.1c-1.4,0-2.8,0-4.2,0c-0.1-0.2-0.1-1.5,0-1.8c2,0,4,0,6,0
			c0.1,0.2,0.1,4.9,0,5.7c-0.1,0.2-0.3,0.3-0.5,0.5c-0.9,0.7-2,1.2-3.2,1.5c-0.5,0.1-1,0.2-1.5,0.2c-0.2,0-0.4,0-0.6,0
			c-1.2,0-2.3-0.3-3.3-0.8c-0.8-0.4-1.4-0.9-2-1.5c-0.7-0.8-1.2-1.8-1.5-2.8c-0.3-0.9-0.3-1.8-0.3-2.8c0.1-1.5,0.6-2.9,1.5-4.1
			c0.6-0.8,1.4-1.5,2.3-1.9c0.6-0.3,1.3-0.5,2-0.7c0.7-0.1,1.4-0.1,2.1-0.1c1.5,0.1,2.9,0.6,4.1,1.5c0.2,0.1,0.3,0.3,0.5,0.4
			c-0.4,0.5-0.8,1-1.2,1.5c-0.3-0.2-0.5-0.4-0.7-0.6c-0.7-0.5-1.5-0.8-2.3-1c-0.6-0.1-1.1-0.1-1.7,0c-1,0.1-1.9,0.5-2.6,1.1
			c-0.9,0.7-1.4,1.7-1.7,2.7c-0.1,0.4-0.2,0.8-0.2,1.2c0,0.2,0,0.3,0,0.5c0,1.1,0.3,2.3,0.9,3.2c0.7,1.1,1.7,1.8,3,2.1
			c0.4,0.1,0.8,0.1,1.2,0.2c1.4,0,2.6-0.3,3.8-1.1C79.5,20.6,79.6,20.6,79.7,20.5z"/>
		<path style="fill:#FFFFFF;" d="M85.4,9.2c0.6,0,1.3,0,1.9,0c0,0.8,0,1.7,0,2.5c0,0.8,0,1.6,0,2.5c0,0.8,0,1.7,0,2.5
			c0,0.8,0,1.6,0,2.5c0,0.8,0,1.7,0,2.5c2.6,0,5.2,0,7.8,0c0.1,0.2,0.1,1.5,0,1.8c0,0-0.1,0-0.2,0c0,0-0.1,0-0.1,0c-3,0-6.1,0-9.1,0
			c-0.1,0-0.2,0-0.3,0C85.4,18.6,85.4,13.9,85.4,9.2z"/>
		<path style="fill:#FFFFFF;" d="M48.8,3c-0.2-0.8-0.5-1.5-0.7-2.3c-0.2,0.8-0.5,1.5-0.7,2.3c-0.1,0-0.2,0-0.3,0
			c-0.2-0.5-0.3-1-0.5-1.5c-0.2-0.5-0.3-1-0.5-1.5c0.1,0,0.1,0,0.2,0c0.1,0,0.1,0,0.2,0c0.1,0.4,0.2,0.7,0.4,1.1
			c0.1,0.4,0.2,0.7,0.4,1.2c0.1-0.4,0.3-0.8,0.4-1.1c0.1-0.4,0.2-0.7,0.4-1.1c0.1,0,0.1,0,0.2,0c0.2,0.8,0.5,1.5,0.7,2.3
			c0,0,0,0,0,0c0.2-0.7,0.5-1.5,0.7-2.2c0.1,0,0.2,0,0.3,0c0,0.2-0.7,2.3-0.9,3C49,3,48.9,3,48.8,3z"/>
		<path style="fill:#FFFFFF;" d="M103.6,2.3c0-0.4,0-0.8,0-1.1c0-0.4,0-0.8,0-1.1c0.1-0.1,0.2,0,0.3,0c0,0.5,0,1,0,1.5
			c0,0.5,0,1,0,1.5c-0.1,0-0.2,0-0.3,0c-0.6-0.8-1.2-1.5-1.9-2.3c0,0.3,0,0.5,0,0.8c0,0.2,0,0.5,0,0.7c0,0.3,0,0.5,0,0.8
			c-0.1,0.1-0.2,0.1-0.3,0c0-0.2-0.1-2.7,0-2.9c0.1-0.1,0.2,0,0.3,0.1c0.2,0.2,0.4,0.4,0.5,0.7C102.7,1.3,103.1,1.8,103.6,2.3
			C103.5,2.3,103.5,2.3,103.6,2.3z"/>
		<path style="fill:#FFFFFF;" d="M98,1.9c-0.3,0-0.5,0-0.8,0c0,0.1,0,0.1,0,0.2c0,0.3,0,0.5,0,0.8c0,0.1,0,0.1,0,0.2
			c-0.1,0-0.2,0-0.3,0c0-0.2,0-2.7,0-3c0.1,0,0.1,0,0.2,0c0.3,0,0.7,0,1,0c0.2,0,0.5,0,0.7,0.1c0.3,0.1,0.5,0.4,0.5,0.7
			c0,0.3-0.1,0.6-0.4,0.8c-0.1,0.1-0.2,0.1-0.3,0.2C98.7,2.2,99,2.6,99.3,3C99.2,3,99,3,98.9,3C98.6,2.6,98.3,2.2,98,1.9z M97.2,1.5
			c0.4,0,0.7,0,1.1,0c0.1,0,0.2-0.1,0.3-0.1c0.3-0.1,0.3-0.7,0-0.9c-0.2-0.1-0.3-0.1-0.5-0.1c-0.2,0-0.5,0-0.7,0c-0.1,0-0.1,0-0.2,0
			C97.2,0.8,97.2,1.1,97.2,1.5z"/>
		<path style="fill:#FFFFFF;" d="M62,3c0-1,0-2,0-3c0,0,0.1,0,0.1,0c0.4,0,0.8,0,1.1,0c0.6,0.1,1,0.3,1.2,0.9c0.2,0.5,0.2,1-0.2,1.5
			C64,2.8,63.6,3,63.2,3C62.8,3,62.4,3,62,3z M62.4,2.7c0.2,0,0.5,0,0.7,0c0.1,0,0.2,0,0.4-0.1c0.5-0.1,0.8-0.5,0.8-1
			c0-0.5-0.3-0.9-0.7-1.1c-0.4-0.1-0.7-0.1-1.1-0.1C62.4,1.2,62.4,1.9,62.4,2.7z"/>
		<path style="fill:#FFFFFF;" d="M32.5,1.6c0,0.6-0.4,1.2-1,1.4c-0.7,0.3-1.6-0.1-1.9-0.9c-0.2-0.6-0.1-1.1,0.2-1.6
			c0.2-0.2,0.4-0.4,0.7-0.5c0.6-0.2,1.1,0,1.5,0.4C32.4,0.7,32.5,1.1,32.5,1.6z M29.9,1.5c0,0.1,0,0.3,0.1,0.4
			c0.3,0.9,1.3,1,1.8,0.5c0.4-0.3,0.5-0.9,0.3-1.4c-0.2-0.4-0.5-0.7-1-0.7C30.3,0.3,29.9,0.9,29.9,1.5z"/>
		<path style="fill:#FFFFFF;" d="M53.3,3.1c-0.8,0-1.4-0.6-1.4-1.3c-0.1-0.5,0.1-1,0.5-1.4C52.6,0.2,52.8,0,53.2,0
			c0.5,0,0.9,0.1,1.2,0.4c0.2,0.3,0.4,0.6,0.4,0.9c0,0.4,0,0.7-0.3,1.1C54.3,2.8,53.8,3.1,53.3,3.1z M53.3,2.7
			c0.7,0,1.1-0.6,1.1-1.2c0-0.3-0.1-0.7-0.4-0.9c-0.5-0.4-1.3-0.3-1.6,0.2c-0.2,0.4-0.3,0.7-0.2,1.2C52.4,2.4,52.8,2.7,53.3,2.7z"/>
		<path style="fill:#FFFFFF;" d="M94.7,1.5c0,0.6-0.3,1.2-1,1.5c-0.9,0.3-1.8-0.3-1.9-1.2c-0.1-0.6,0-1,0.4-1.4
			C92.4,0.2,92.7,0.1,93,0c0.5-0.1,0.9,0.1,1.2,0.4c0.3,0.3,0.4,0.6,0.5,1C94.7,1.4,94.7,1.5,94.7,1.5z M94.3,1.5
			c0-0.2-0.1-0.4-0.2-0.7c-0.4-0.6-1.4-0.6-1.8,0C92.1,1.2,92,1.5,92.2,2c0.3,0.8,1.2,1,1.7,0.5C94.2,2.3,94.3,1.9,94.3,1.5z"/>
		<path style="fill:#FFFFFF;" d="M59.8,1.5c0,0.6-0.2,1.1-0.7,1.4C58.3,3.4,57.2,3,57,2.1c-0.2-0.5-0.1-1,0.2-1.4
			c0.2-0.4,0.6-0.6,1-0.6c0.2,0,0.4,0,0.6,0C59.4,0.3,59.8,0.8,59.8,1.5C59.8,1.5,59.8,1.5,59.8,1.5z M58.3,2.7
			c0.4,0,0.7-0.2,0.9-0.5c0.2-0.3,0.2-0.5,0.2-0.9c-0.1-0.5-0.4-0.9-1-1c-0.4-0.1-0.7,0.1-1,0.4c-0.3,0.4-0.4,0.8-0.2,1.3
			C57.5,2.4,57.9,2.7,58.3,2.7z"/>
		<path style="fill:#FFFFFF;" d="M111.6,3c-0.1,0.1-0.2,0.1-0.3,0c-0.1-0.3-0.3-0.5-0.4-0.8c-0.5,0-1,0-1.6,0
			c-0.1,0.3-0.3,0.5-0.4,0.8c-0.1,0-0.2,0-0.4,0c0.5-1,0.9-2,1.4-2.9c0.1,0,0.2,0,0.2,0c0.2,0.3,0.3,0.6,0.5,1
			c0.2,0.3,0.3,0.7,0.5,1C111.3,2.3,111.5,2.6,111.6,3z M110.7,1.8c-0.2-0.4-0.4-0.8-0.6-1.3c-0.2,0.4-0.4,0.8-0.6,1.3
			C109.9,1.9,110.3,1.8,110.7,1.8z"/>
		<path style="fill:#FFFFFF;" d="M76.4,3c-0.1,0-0.2,0-0.3,0c0,0,0,0,0,0c0,0,0,0,0,0C76.5,2,77,1,77.4,0.1c0,0,0.1,0,0.1,0
			c0,0,0.1,0,0.1,0C78.1,1,78.6,1.9,79,2.9c0,0,0,0.1,0,0.1c-0.1,0-0.2,0-0.3,0c-0.1-0.3-0.3-0.5-0.4-0.8c-0.5,0-1,0-1.6,0
			C76.6,2.5,76.5,2.7,76.4,3z M77.6,0.6C77.3,1,77.2,1.4,77,1.8c0.4,0,0.8,0,1.2,0C78,1.4,77.8,1,77.6,0.6z"/>
		<path style="fill:#FFFFFF;" d="M27.1,1.3c0-0.2,0-0.4,0-0.6c0-0.2,0-0.4,0-0.7c0.1,0,0.2,0,0.3,0c0,0.2,0.1,2.6,0,3
			c-0.1,0-0.2,0-0.3,0c-0.1-0.2,0-0.4,0-0.7c0-0.2,0-0.4,0-0.6c-0.6,0-1.1,0-1.7,0c0,0.4,0,0.9,0,1.3c-0.1,0-0.2,0-0.3,0
			c0-0.1,0-0.1,0-0.2c0-0.9,0-1.8,0-2.6c0,0,0-0.1,0-0.2c0.1,0,0.2,0,0.3,0c0.1,0.2,0,0.5,0,0.7c0,0.2,0,0.4,0,0.6
			C25.9,1.3,26.5,1.3,27.1,1.3z"/>
		<path style="fill:#FFFFFF;" d="M74.3,0.5c-0.1,0.1-0.1,0.2-0.2,0.3C74,0.7,74,0.7,73.9,0.6c-0.4-0.3-0.7-0.4-1.2-0.2
			c-0.4,0.2-0.7,0.5-0.7,1c0,0.4,0.1,0.7,0.4,1c0.3,0.3,0.8,0.4,1.2,0.2c0.2-0.1,0.3-0.2,0.5-0.4c0.1,0.1,0.1,0.1,0.2,0.2
			c-0.2,0.4-0.9,0.8-1.6,0.6c-0.6-0.2-1-0.7-1.1-1.4c-0.1-0.7,0.4-1.3,1-1.6C73.2-0.1,73.9,0,74.3,0.5z"/>
		<path style="fill:#FFFFFF;" d="M89.7,1.4c0,0.1,0,0.2,0,0.3c-0.2,0-0.4,0-0.5,0c-0.2,0-0.3,0-0.5,0c-0.2,0-0.4,0-0.6,0
			c0,0.4,0,0.9,0,1.3c-0.1,0-0.2,0-0.3,0c-0.1-0.2,0-0.5,0-0.7c0-0.2,0-0.5,0-0.7c0-0.2,0-0.5,0-0.7c0-0.2,0-0.5,0-0.7
			C88,0,89.6,0,89.9,0.1c0,0.1,0,0.2,0,0.3c-0.3,0-0.6,0-0.9,0c-0.3,0-0.6,0-0.9,0c0,0.3,0,0.7,0,1C88.6,1.4,89.2,1.4,89.7,1.4z"/>
		<path style="fill:#FFFFFF;" d="M42.2,0c0.2,0.2,0.4,0.5,0.5,0.7C42.9,1,43,1.2,43.2,1.5c0.4-0.5,0.7-1,1-1.4c0.1,0,0.2,0,0.4,0
			c-0.4,0.6-0.8,1.2-1.3,1.8c0,0.4,0,0.8,0,1.1C43.3,3.1,43.2,3,43,3c0-0.4,0-0.8,0-1.2c-0.4-0.6-0.8-1.1-1.3-1.7
			C41.9,0,42,0,42.2,0z"/>
		<path style="fill:#FFFFFF;" d="M134.7,10.6c-0.1-0.8,0.7-1.5,1.5-1.5c0.9,0,1.5,0.7,1.5,1.5c0,0.8-0.6,1.5-1.5,1.5
			C135.3,12.1,134.6,11.3,134.7,10.6z M134.9,10.5c0,0.7,0.5,1.3,1.3,1.3c0.8,0,1.3-0.6,1.3-1.3c0-0.7-0.5-1.3-1.3-1.3
			C135.4,9.2,134.9,9.9,134.9,10.5z"/>
		<path style="fill:#FFFFFF;" d="M39.1,2.7c0.6,0,1.1,0,1.6,0c0,0.1,0,0.2,0,0.3C40.5,3,39,3,38.7,3c0-0.2-0.1-2.5,0-2.9
			C38.9,0,38.9,0,39,0.1c0,0.3,0,0.6,0,0.8c0,0.3,0,0.6,0,0.9C39.1,2.1,39.1,2.4,39.1,2.7z"/>
		<path style="fill:#FFFFFF;" d="M81.4,2.7c0.3,0,0.6,0,0.8,0c0.3,0,0.5,0,0.8,0c0,0.1,0,0.2,0,0.3C83,3,83,3,82.9,3
			c-0.6,0-1.1,0-1.7,0c0,0-0.1,0-0.1,0c0-0.1,0-0.1,0-0.2c0-0.9,0-1.7,0-2.6c0,0,0-0.1,0-0.2c0.1,0,0.2,0,0.3,0c0,0.2,0,0.5,0,0.7
			c0,0.2,0,0.4,0,0.7c0,0.2,0,0.4,0,0.6C81.4,2.2,81.4,2.4,81.4,2.7z"/>
		<path style="fill:#FFFFFF;" d="M34.7,3c0-0.2-0.1-2.7,0-2.9c0.1,0,0.2,0,0.3,0c0,0.2,0,0.4,0,0.7c0,0.2,0,0.4,0,0.7
			c0,0.2,0,0.4,0,0.6c0,0.2,0,0.4,0,0.7c0.3,0,0.5,0,0.8,0c0.3,0,0.5,0,0.8,0c0,0.1,0,0.2,0,0.3C36.5,3,35,3,34.7,3z"/>
		<path style="fill:#FFFFFF;" d="M106.2,0c0.1,0,0.2,0,0.3,0c0,0.5,0,1,0,1.5c0,0.5,0,1,0,1.5c-0.1,0-0.2,0-0.3,0c0-0.3,0-0.5,0-0.7
			c0-0.3,0-0.5,0-0.8c0-0.2,0-0.5,0-0.7C106.2,0.5,106.2,0.3,106.2,0z"/>
		<path style="fill:#FFFFFF;" d="M85.1,0c0.1,0,0.2,0,0.3,0c0,0.2,0.1,2.5,0,2.9c-0.1,0.1-0.2,0-0.3,0c0-0.5,0-1,0-1.5
			C85.1,1,85.1,0.6,85.1,0z"/>
		<path style="fill:#FFFFFF;" d="M66.4,3c0-0.1,0-0.3,0-0.4c0.1,0,0.2,0,0.3,0c0.1,0.4,0,0.6-0.3,0.8c0,0,0-0.1-0.1-0.1
			C66.4,3.2,66.4,3.2,66.4,3C66.4,3.1,66.4,3.1,66.4,3z"/>
		<path style="fill:#FFFFFF;" d="M136.2,10.8c-0.1,0-0.2,0-0.3,0c0,0.2,0,0.3,0,0.5c-0.1,0-0.2,0-0.3,0c-0.1-0.2,0-0.3,0-0.5
			c0-0.2,0-0.4,0-0.5c0-0.2,0-0.3,0-0.5c0.1,0,0.1,0,0.2,0c0.2,0,0.5,0,0.7,0c0.2,0,0.4,0.1,0.4,0.4c0,0.2,0,0.4-0.2,0.6
			c0,0,0,0-0.1,0c0.1,0.2,0.2,0.4,0.4,0.5c-0.1,0.1-0.3,0-0.4,0C136.4,11.1,136.3,11,136.2,10.8z M135.9,10.5c0.2,0,0.4,0,0.6-0.1
			c0-0.2,0-0.3-0.1-0.3c-0.1,0-0.3,0-0.5,0C135.9,10.2,135.9,10.3,135.9,10.5z"/>
	</g>
</g>
</svg>
