<svg xmlns="http://www.w3.org/2000/svg" width="142.01" height="24" viewBox="0 0 142.01 24"><title>wbeauty</title><polygon points="25.18 14.62 20.76 0.59 15.66 0.59 11.28 14.62 6.61 0.59 0 0.59 7.95 23.68 14.06 23.68 18.11 10.5 22.33 23.68 28.38 23.68 36.2 0.59 29.66 0.59 25.18 14.62" fill="#231f20"/><path d="M48.18,10.81a5.34,5.34,0,0,0,2.19-4.32,5.81,5.81,0,0,0-3.86-5.34A10.73,10.73,0,0,0,43.44.69H38.2v23h6.25c2.59,0,4.75-.52,6.48-2.62a6.93,6.93,0,0,0,1.57-4.29A6,6,0,0,0,48.18,10.81ZM41,3.21H43.3a5.84,5.84,0,0,1,2.06.2A3.34,3.34,0,0,1,45,9.82a18.18,18.18,0,0,1-4,.2Zm5.8,17.68a6.24,6.24,0,0,1-2,.2H40.95V12.51h3.57a7.45,7.45,0,0,1,2.32.26,4.45,4.45,0,0,1,2.95,4.09A4.14,4.14,0,0,1,46.78,20.89Z" transform="translate(-0.5)" fill="#231f20"/><polygon points="56.85 12.57 65.79 12.57 65.79 10.05 56.88 10.05 56.88 3.24 65.79 3.24 65.79 0.72 54.07 0.72 54.07 23.64 65.95 23.64 65.95 21.02 56.85 21.02 56.85 12.57" fill="#231f20"/><path d="M77.88,0l-10,23.67H71l3-7.4h8.71l2.91,7.4h3.14L79.09,0ZM75.09,13.75,78.47,5.7l3.24,8.05Z" transform="translate(-0.5)" fill="#231f20"/><path d="M102.89,14.73a6.35,6.35,0,0,1-1.44,4.55,6,6,0,0,1-4.58,2.1,6.13,6.13,0,0,1-4.49-1.9A5.74,5.74,0,0,1,91,15.26V.72H88.22v14.6C88.22,20,91.3,24,96.83,24a8.52,8.52,0,0,0,8.55-6.45,18.3,18.3,0,0,0,.23-2.29V.72h-2.72Z" transform="translate(-0.5)" fill="#231f20"/><polygon points="106.91 3.27 113.16 3.27 113.16 23.67 116.01 23.67 116.01 3.27 122.23 3.27 122.23 0.72 106.91 0.72 106.91 3.27" fill="#231f20"/><polygon points="138.8 0.72 132.64 10.77 126.65 0.69 123.38 0.69 131.23 13.69 131.23 23.64 133.99 23.64 133.99 13.69 142.01 0.72 138.8 0.72" fill="#231f20"/></svg>