<svg xmlns="http://www.w3.org/2000/svg" width="30" height="30" viewBox="0 0 30 30"><title>calendar-circle</title><path d="M20.8,11a.47.47,0,0,0,.5-.5V7.9a.5.5,0,1,0-1,0v2.7A.46.46,0,0,0,20.8,11Z" fill="#999"/><path d="M15,0A15,15,0,1,0,30,15,15,15,0,0,0,15,0Zm0,29A14,14,0,1,1,29,15,14,14,0,0,1,15,29Z" fill="#999"/><path d="M9.2,11a.47.47,0,0,0,.5-.5V7.9a.47.47,0,0,0-.5-.5.46.46,0,0,0-.4.5v2.7A.43.43,0,0,0,9.2,11Z" fill="#999"/><rect x="14" y="14.3" width="1.9" height="1" fill="#999"/><rect x="14" y="16.5" width="1.9" height="1" fill="#999"/><rect x="14" y="18.4" width="1.9" height="1" fill="#999"/><rect x="17.4" y="14.3" width="1.9" height="1" fill="#999"/><rect x="17.4" y="16.5" width="1.9" height="1" fill="#999"/><rect x="17.4" y="18.4" width="1.9" height="1" fill="#999"/><rect x="10.7" y="16.5" width="1.7" height="1" fill="#999"/><rect x="10.7" y="18.4" width="1.7" height="1" fill="#999"/><path d="M22.9,8.8h-1v1.7a1.2,1.2,0,0,1-2.4,0V8.8H10.4v1.7a1.2,1.2,0,1,1-2.4,0V8.8H6.8a1,1,0,0,0-1,1V21.6a1,1,0,0,0,1,1H20.6l2.5-2.5h0l.7-.8h0V9.8A.83.83,0,0,0,22.9,8.8Zm.2,9.6H20.5v3.1H6.8V12.6H23.1Z" fill="#999"/></svg>