<svg xmlns="http://www.w3.org/2000/svg" width="26" height="28.79" viewBox="0 0 26 28.79"><title>calendar-55</title><path d="M24.11,1.8H20.32V.8a.6.6,0,0,0-1.2,0v1H6.77V.8a.68.68,0,0,0-.7-.7.57.57,0,0,0-.6.6v1H1.79A1.77,1.77,0,0,0,0,3.39V27.1a1.79,1.79,0,0,0,1.79,1.79H24.21A1.85,1.85,0,0,0,26,27.1V3.39A1.77,1.77,0,0,0,24.11,1.8Zm.8,18.83H1V3.39c0-.4.4-.6.8-.6H5.48v1.3a.57.57,0,0,0,.6.6.66.66,0,0,0,.7-.6V2.8H19.23v1.3a.57.57,0,0,0,.6.6.64.64,0,0,0,.6-.6V2.8h3.79c.4,0,.7.2.7.6Z" transform="translate(0 -0.11)" fill="#999"/><path d="M9.46,11c-.2,0-.5.1-.6.1l.3-1.2h3.19V8.17H7.87l-1.2,5.08A3.23,3.23,0,0,1,9,12.46a1.92,1.92,0,0,1,1.79,1.69A1.84,1.84,0,0,1,9,15.84a2.05,2.05,0,0,1-1.89-1.2l-1.3,1.1A3.57,3.57,0,0,0,9,17.44,3.51,3.51,0,0,0,12.65,14,3.11,3.11,0,0,0,9.46,11Z" transform="translate(0 -0.11)" fill="#999"/><path d="M16.93,11c-.2,0-.5.1-.6.1l.4-1.2h3.19V8.17H15.44l-1.2,5.08a3.48,3.48,0,0,1,2.39-.8,1.92,1.92,0,0,1,1.79,1.69,1.84,1.84,0,0,1-1.79,1.69,2.05,2.05,0,0,1-1.89-1.2l-1.3,1.1a3.57,3.57,0,0,0,3.19,1.69A3.51,3.51,0,0,0,20.32,14,3.3,3.3,0,0,0,16.93,11Z" transform="translate(0 -0.11)" fill="#999"/></svg>