<?xml version="1.0" encoding="UTF-8" standalone="no"?>
<svg width="14px" height="13px" viewBox="0 0 14 13" version="1.1" xmlns="http://www.w3.org/2000/svg" xmlns:xlink="http://www.w3.org/1999/xlink">
    <!-- Generator: Sketch 3.8.3 (29802) - http://www.bohemiancoding.com/sketch -->
    <title>Group</title>
    <desc>Created with Sketch.</desc>
    <defs></defs>
    <g id="Page-1" stroke="none" stroke-width="1" fill="none" fill-rule="evenodd">
        <g id="Group" fill="#B3B3B3">
            <ellipse id="Oval-1" cx="5.2027027" cy="11.7753623" rx="1.22972973" ry="1.22463768"></ellipse>
            <ellipse id="Oval-1-Copy" cx="11.6351351" cy="11.7753623" rx="1.22972973" ry="1.22463768"></ellipse>
            <path d="M14,3.39130435 L14,3.37246377 C14,3.35362319 14,3.31594203 13.9810811,3.29710145 C13.9810811,3.27826087 13.9621622,3.25942029 13.9621622,3.22173913 C13.9432432,3.20289855 13.9432432,3.18405797 13.9243243,3.16521739 C13.9054054,3.14637681 13.8864865,3.12753623 13.8675676,3.10869565 C13.8486486,3.08985507 13.8297297,3.08985507 13.8108108,3.07101449 C13.7918919,3.05217391 13.772973,3.05217391 13.7351351,3.03333333 C13.7351351,3.03333333 13.7162162,3.03333333 13.7162162,3.01449275 L13.6594595,3.01449275 L13.6216216,3.01449275 L3.57567568,3.01449275 L3.00810811,1.03623188 C2.98918919,0.979710145 2.95135135,0.923188406 2.91351351,0.866666667 L2.15675676,0.113043478 C2.08108108,0.0376811594 1.98648649,0 1.89189189,0 L0.378378378,0 C0.17027027,0 0,0.169565217 0,0.376811594 C0,0.584057971 0.17027027,0.753623188 0.378378378,0.753623188 L1.74054054,0.753623188 L2.30810811,1.31884058 L4.55945946,9.13768116 C4.5972973,9.30724638 4.74864865,9.42028986 4.91891892,9.42028986 L12.1081081,9.42028986 C12.2783784,9.42028986 12.4297297,9.30724638 12.4675676,9.13768116 L13.9810811,3.48550725 L13.9810811,3.42898551 C14,3.42898551 14,3.41014493 14,3.39130435 L14,3.39130435 L14,3.39130435 Z M12.827027,4.89855072 L10.7837838,4.89855072 L10.9351351,3.76811594 L13.1297297,3.76811594 L12.827027,4.89855072 L12.827027,4.89855072 L12.827027,4.89855072 Z M12.3162162,6.7826087 L10.5189189,6.7826087 L10.6702703,5.65217391 L12.6189189,5.65217391 L12.3162162,6.7826087 L12.3162162,6.7826087 L12.3162162,6.7826087 Z M7.26486486,6.7826087 L7.11351351,5.65217391 L9.91351351,5.65217391 L9.76216216,6.7826087 L7.26486486,6.7826087 L7.26486486,6.7826087 L7.26486486,6.7826087 Z M9.64864865,7.53623188 L9.4972973,8.66666667 L7.52972973,8.66666667 L7.37837838,7.53623188 L9.64864865,7.53623188 L9.64864865,7.53623188 L9.64864865,7.53623188 Z M4.33243243,5.65217391 L6.33783784,5.65217391 L6.48918919,6.7826087 L4.65405405,6.7826087 L4.33243243,5.65217391 L4.33243243,5.65217391 L4.33243243,5.65217391 Z M7.01891892,4.89855072 L6.86756757,3.76811594 L10.1594595,3.76811594 L10.0081081,4.89855072 L7.01891892,4.89855072 L7.01891892,4.89855072 L7.01891892,4.89855072 Z M6.09189189,3.76811594 L6.24324324,4.89855072 L4.16216216,4.89855072 L4.12432432,4.89855072 L3.8027027,3.76811594 L6.09189189,3.76811594 L6.09189189,3.76811594 L6.09189189,3.76811594 Z M4.88108108,7.53623188 L6.6027027,7.53623188 L6.75405405,8.66666667 L5.2027027,8.66666667 L4.88108108,7.53623188 L4.88108108,7.53623188 L4.88108108,7.53623188 Z M11.8243243,8.66666667 L10.272973,8.66666667 L10.4243243,7.53623188 L12.127027,7.53623188 L11.8243243,8.66666667 L11.8243243,8.66666667 L11.8243243,8.66666667 Z" id="Shape"></path>
        </g>
    </g>
</svg>