<?xml version="1.0" encoding="utf-8"?>
<!-- Generator: Adobe Illustrator 21.1.0, SVG Export Plug-In . SVG Version: 6.00 Build 0)  -->
<svg version="1.0" id="Layer_1" xmlns="http://www.w3.org/2000/svg" xmlns:xlink="http://www.w3.org/1999/xlink" x="0px" y="0px"
	 width="24px" height="24px" viewBox="0 0 24 24" style="enable-background:new 0 0 24 24;" xml:space="preserve">
<style type="text/css">
	.st0{clip-path:url(#SVGID_2_);}
	.st1{clip-path:url(#SVGID_4_);}
	.st2{clip-path:url(#SVGID_6_);}
	.st3{clip-path:url(#SVGID_8_);}
	.st4{clip-path:url(#SVGID_10_);}
	.st5{clip-path:url(#SVGID_12_);}
</style>
<g>
	<g>
		<defs>
			<path id="SVGID_1_" d="M23,16H3l1.5-2H19c0.4,0,0.8-0.3,0.9-0.7l3-9C23.1,4,23,3.7,22.8,3.4C22.6,3.2,22.3,3,22,3H4.4L1.7,0.3
				c-0.4-0.4-1-0.4-1.4,0c-0.4,0.4-0.4,1,0,1.4L3,4.4v8.3l-2.8,3.7c-0.2,0.3-0.3,0.7-0.1,1C0.3,17.8,0.6,18,1,18h22c0.6,0,1-0.4,1-1
				C24,16.4,23.6,16,23,16"/>
		</defs>
		<clipPath id="SVGID_2_">
			<use xlink:href="#SVGID_1_"  style="overflow:visible;"/>
		</clipPath>
		<g class="st0">
			<defs>
				<rect id="SVGID_3_" x="-1225.9" y="-73" width="1280" height="3235"/>
			</defs>
			<clipPath id="SVGID_4_">
				<use xlink:href="#SVGID_3_"  style="overflow:visible;"/>
			</clipPath>
			<rect x="-5" y="-5" class="st1" width="34" height="28"/>
		</g>
	</g>
	<g>
		<defs>
			<path id="SVGID_5_" d="M4,20c1.1,0,2,0.9,2,2c0,1.1-0.9,2-2,2s-2-0.9-2-2C2,20.9,2.9,20,4,20"/>
		</defs>
		<clipPath id="SVGID_6_">
			<use xlink:href="#SVGID_5_"  style="overflow:visible;"/>
		</clipPath>
		<g class="st2">
			<defs>
				<rect id="SVGID_7_" x="-1225.9" y="-73" width="1280" height="3235"/>
			</defs>
			<clipPath id="SVGID_8_">
				<use xlink:href="#SVGID_7_"  style="overflow:visible;"/>
			</clipPath>
			<rect x="-3" y="15" class="st3" width="14" height="14"/>
		</g>
	</g>
	<g>
		<defs>
			<path id="SVGID_9_" d="M20,20c1.1,0,2,0.9,2,2c0,1.1-0.9,2-2,2s-2-0.9-2-2C18,20.9,18.9,20,20,20"/>
		</defs>
		<clipPath id="SVGID_10_">
			<use xlink:href="#SVGID_9_"  style="overflow:visible;"/>
		</clipPath>
		<g class="st4">
			<defs>
				<rect id="SVGID_11_" x="-1225.9" y="-73" width="1280" height="3235"/>
			</defs>
			<clipPath id="SVGID_12_">
				<use xlink:href="#SVGID_11_"  style="overflow:visible;"/>
			</clipPath>
			<rect x="13" y="15" class="st5" width="14" height="14"/>
		</g>
	</g>
</g>
</svg>
