<?xml version="1.0" encoding="utf-8"?>
<!-- Generator: Adobe Illustrator 21.1.0, SVG Export Plug-In . SVG Version: 6.00 Build 0)  -->
<svg version="1.0" id="Layer_1" xmlns="http://www.w3.org/2000/svg" xmlns:xlink="http://www.w3.org/1999/xlink" x="0px" y="0px"
	 width="20px" height="20px" viewBox="0 0 20 20" style="enable-background:new 0 0 20 20;" xml:space="preserve">
<style type="text/css">
	.st0{fill-rule:evenodd;clip-rule:evenodd;fill:#FFFFFF;}
</style>
<g>
	<path class="st0" d="M19.2,13.3H2.5l1.2-1.7h12.1c0.4,0,0.7-0.2,0.8-0.6l2.5-7.5c0.1-0.3,0-0.5-0.1-0.8c-0.2-0.2-0.4-0.3-0.7-0.3
		H3.7L1.4,0.2c-0.3-0.3-0.9-0.3-1.2,0c-0.3,0.3-0.3,0.9,0,1.2l2.3,2.3v6.9l-2.3,3.1c-0.2,0.3-0.2,0.6-0.1,0.9
		C0.2,14.8,0.5,15,0.8,15h18.3c0.5,0,0.8-0.4,0.8-0.8S19.6,13.3,19.2,13.3z"/>
	<circle class="st0" cx="3.3" cy="18.3" r="1.7"/>
	<circle class="st0" cx="16.7" cy="18.3" r="1.7"/>
</g>
</svg>
