<svg xmlns="http://www.w3.org/2000/svg" width="22" height="22" viewBox="0 0 22 22"><title>Cold Storage</title><g id="Layer_2" data-name="Layer 2"><g id="Layer_4" data-name="Layer 4"><path d="M11,0A11,11,0,1,0,22,11,11,11,0,0,0,11,0Zm0,20.33A9.33,9.33,0,1,1,20.33,11,9.33,9.33,0,0,1,11,20.33Z"/><path d="M11,1.67A9.33,9.33,0,1,0,20.33,11,9.33,9.33,0,0,0,11,1.67Zm7.3,13.54-1,.65-1.88-1.08-.28,2-1-.61-.77-2.62-1.2-.69v1.38l1.88,2v1.21l-1.88-.77v2.17L11,19.43l-1.08-.57V16.68L8,17.45V16.24l1.88-2V12.88l-1.2.69-.77,2.62-1,.61-.28-2L4.74,15.86l-1-.65,0-1.23L5.54,12.9l-1.6-1.25,1-.61,2.65.64L8.83,11l-1.2-.69L5,10.95l-1-.61L5.54,9.1,3.66,8l0-1.23,1-.65L6.62,7.22l.28-2,1,.61.77,2.62,1.2.69V7.74L8,5.76V4.55l1.88.77V3.15L11,2.57l1.08.57V5.32L14,4.55V5.76l-1.88,2V9.12l1.2-.69.77-2.62,1-.61.28,2,1.88-1.08,1,.65,0,1.23L16.46,9.1l1.6,1.25-1,.61-2.65-.64-1.2.69,1.2.69L17,11.05l1,.61-1.6,1.25L18.34,14Z" fill="#0b9bd7"/></g></g></svg>
