<svg xmlns="http://www.w3.org/2000/svg" width="16" height="16" viewBox="0 0 52 52"><title>Asset 1</title><g id="Layer_2" data-name="Layer 2"><g id="Layer_1-2" data-name="Layer 1"><path d="M0,0V52H52V0ZM17.5,46.5a3,3,0,0,1-3,3h-9a3,3,0,0,1-3-3v-5a3,3,0,0,1,3-3h9a3,3,0,0,1,3,3Zm0-12a3,3,0,0,1-3,3h-9a3,3,0,0,1-3-3v-5a3,3,0,0,1,3-3h9a3,3,0,0,1,3,3Zm0-12a3,3,0,0,1-3,3h-9a3,3,0,0,1-3-3v-5a3,3,0,0,1,3-3h9a3,3,0,0,1,3,3Zm16,24a3,3,0,0,1-3,3h-9a3,3,0,0,1-3-3v-5a3,3,0,0,1,3-3h9a3,3,0,0,1,3,3Zm0-12a3,3,0,0,1-3,3h-9a3,3,0,0,1-3-3v-5a3,3,0,0,1,3-3h9a3,3,0,0,1,3,3Zm0-12a3,3,0,0,1-3,3h-9a3,3,0,0,1-3-3v-5a3,3,0,0,1,3-3h9a3,3,0,0,1,3,3Zm16,24a3,3,0,0,1-3,3h-9a3,3,0,0,1-3-3v-5a3,3,0,0,1,3-3h9a3,3,0,0,1,3,3Zm0-12a3,3,0,0,1-3,3h-9a3,3,0,0,1-3-3v-5a3,3,0,0,1,3-3h9a3,3,0,0,1,3,3Zm0-12a3,3,0,0,1-3,3h-9a3,3,0,0,1-3-3v-5a3,3,0,0,1,3-3h9a3,3,0,0,1,3,3Z" fill="#333"/></g></g></svg>
