<svg xmlns="http://www.w3.org/2000/svg" width="16" height="18.39" viewBox="0 0 16 18.39"><title>delivery.colors-grey-blue</title><polygon points="7.95 8.73 9.32 8.73 9.42 7.91 7.84 7.91 7.95 8.73" fill="#979797"/><polygon points="7.59 5.99 9.67 5.99 9.78 5.17 7.49 5.17 7.59 5.99" fill="#979797"/><polygon points="7.76 7.36 9.5 7.36 9.61 6.54 7.66 6.54 7.76 7.36" fill="#979797"/><polygon points="6.95 5.17 5.36 5.17 5.58 5.99 5.61 5.99 7.05 5.99 6.95 5.17" fill="#979797"/><polygon points="7.12 6.54 5.72 6.54 5.95 7.36 7.22 7.36 7.12 6.54" fill="#979797"/><polygon points="6.11 7.91 6.33 8.73 7.41 8.73 7.3 7.91 6.11 7.91" fill="#979797"/><polygon points="9.86 8.73 10.93 8.73 11.14 7.91 9.96 7.91 9.86 8.73" fill="#979797"/><path d="M0,0V14.32H16V0ZM6.33,11.89A.89.89,0,1,1,7.18,11,.87.87,0,0,1,6.33,11.89Zm4.47,0a.89.89,0,1,1,.86-.89A.87.87,0,0,1,10.8,11.89Zm1.64-7s0,0,0,0V5L11.38,9.08a.26.26,0,0,1-.25.21h-5a.26.26,0,0,1-.25-.21L4.32,3.39,3.92,3H3a.27.27,0,0,1,0-.55H4a.25.25,0,0,1,.18.08l.53.55a.56.56,0,0,1,.07.12L5.2,4.62h7.05a0,0,0,0,0,0,0l.05,0,0,0,0,0,0,0s0,0,0,.05a.09.09,0,0,1,0,.05Z" fill="#979797"/><polygon points="10.21 5.99 11.63 5.99 11.84 5.17 10.32 5.17 10.21 5.99" fill="#979797"/><polygon points="10.03 7.36 11.28 7.36 11.49 6.54 10.13 6.54 10.03 7.36" fill="#979797"/><polygon points="5.79 14.45 11.05 14.45 8.42 18.39 5.79 14.45" fill="#979797"/></svg>