<svg xmlns="http://www.w3.org/2000/svg" width="22.1" height="29" viewBox="0 0 22.1 29"><title>fuel</title><path d="M15.2,3.1a.9.9,0,0,0-.9-.9H4.3a.9.9,0,0,0-.9.9V9.4a.9.9,0,0,0,.9.9H14.4a.9.9,0,0,0,.9-.9V3.1Zm-.7,6.3a.1.1,0,0,1-.1.1H4.3a.1.1,0,0,1-.1-.1V3.1c-.1,0,0-.1.1-.1H14.4a.1.1,0,0,1,.1.1Z" fill="#999"/><path d="M20.6,7.6a4.12,4.12,0,0,0-2.9-3.3V5.4a3,3,0,0,1,1.9,2.2h0A1.43,1.43,0,0,0,18.2,9v3a1.29,1.29,0,0,0,1.4,1.3h.1v5a3.63,3.63,0,0,1-2.8,3.5V1.5A1.27,1.27,0,0,0,15.6,0H2.8A1.66,1.66,0,0,0,1.1,1.5v24A2,2,0,0,0,0,27.2,1.79,1.79,0,0,0,1.8,29H16.6a1.77,1.77,0,0,0,1.7-1.8A1.71,1.71,0,0,0,17,25.5V22.9a4.6,4.6,0,0,0,3.8-4.5V13.5a1.49,1.49,0,0,0,1.3-1.4V9A1.52,1.52,0,0,0,20.6,7.6ZM17.2,27.1a.77.77,0,0,1-.7.8H1.8a.86.86,0,0,1-.8-.8.89.89,0,0,1,.6-.8h.5V1.5c0-.2.4-.5.7-.5H15.6c.3,0,.4.4.4.5V26.3h.5A1,1,0,0,1,17.2,27.1Zm4-15.2a.58.58,0,0,1-.6.6h-1a.58.58,0,0,1-.6-.6v-3a.58.58,0,0,1,.6-.6h1a.58.58,0,0,1,.6.6Z" fill="#999"/></svg>