<svg xmlns="http://www.w3.org/2000/svg" width="22.2" height="28.9" viewBox="0 0 22.2 28.9"><title>fuel-plus-one</title><path d="M15.2,3.1a.9.9,0,0,0-.9-.9H4.3a.9.9,0,0,0-.9.9V9.4a.9.9,0,0,0,.9.9h10a.9.9,0,0,0,.9-.9Zm-.7,6.3a.1.1,0,0,1-.1.1H4.4a.1.1,0,0,1-.1-.1V3.1c-.1,0-.1-.1,0-.1h10a.1.1,0,0,1,.1.1V9.4Z" fill="#999"/><path d="M20.6,7.6a4.12,4.12,0,0,0-2.9-3.3V5.4a2.88,2.88,0,0,1,1.8,2.2h0A1.34,1.34,0,0,0,18.2,9v3a1.26,1.26,0,0,0,1.3,1.3h.2v5a3.75,3.75,0,0,1-2.8,3.5V1.5A1.34,1.34,0,0,0,15.5,0H2.7A1.47,1.47,0,0,0,1.2,1.5V25.4a1.8,1.8,0,0,0,.6,3.5H16.6a1.77,1.77,0,0,0,1.7-1.8,1.74,1.74,0,0,0-1.2-1.7V22.8a4.8,4.8,0,0,0,3.8-4.5V13.4A1.41,1.41,0,0,0,22.2,12V9A1.7,1.7,0,0,0,20.6,7.6ZM17.2,27.1a.77.77,0,0,1-.7.8H1.7a.86.86,0,0,1-.8-.8,1,1,0,0,1,.7-.8h.5V1.5c.1-.2.3-.5.6-.5H15.5a.52.52,0,0,1,.5.5V26.3h.5A.77.77,0,0,1,17.2,27.1Zm4-15.2a.58.58,0,0,1-.6.6h-1a.58.58,0,0,1-.6-.6v-3a.58.58,0,0,1,.6-.6h1a.58.58,0,0,1,.6.6Z" fill="#999"/><polygon points="6.2 12.6 5.4 12.6 5.4 13.8 3.9 13.8 3.9 14.6 5.4 14.6 5.4 15.8 6.2 15.8 6.2 14.6 7.4 14.6 7.4 13.8 6.2 13.8 6.2 12.6" fill="#999"/><polygon points="7.9 12.6 8.7 12.6 8.7 15.8 9.7 15.8 9.7 11.8 7.9 11.8 7.9 12.6" fill="#999"/><path d="M13.4,13.8a.94.94,0,0,0-1,1,1,1,0,0,0,1,1,1,1,0,0,0,0-2Zm0,1.4a.46.46,0,0,1-.5-.4c0-.3.2-.4.5-.4s.5.1.5.4A.46.46,0,0,1,13.4,15.2Z" fill="#999"/><path d="M12.1,12.6a1.08,1.08,0,0,0-1-1,.94.94,0,0,0-1,1,1.08,1.08,0,0,0,1,1A1,1,0,0,0,12.1,12.6Zm-1.5,0c0-.3.2-.4.5-.4s.5.1.5.4a.46.46,0,0,1-.5.4C10.8,13,10.6,12.9,10.6,12.6Z" fill="#999"/><polygon points="13.1 11.5 10.8 15.8 11.3 16.1 13.6 11.7 13.1 11.5" fill="#999"/></svg>