<svg xmlns="http://www.w3.org/2000/svg" width="30" height="30" viewBox="0 0 30 30"><title>globe</title><path d="M30,15A15,15,0,0,0,15.1,0H15a15,15,0,0,0,0,30h.1A15,15,0,0,0,30,15Zm-28.5.8H5a20.24,20.24,0,0,0,.9,5.4H3A12.66,12.66,0,0,1,1.5,15.8Zm26.9-1.6H25a20.6,20.6,0,0,0-1-5.7h2.7A11.8,11.8,0,0,1,28.4,14.2Zm-4.8,0H19.4A54.59,54.59,0,0,0,19,8.5h3.5A21.34,21.34,0,0,1,23.6,14.2ZM15,28.5h0c-.6,0-1.7-2.1-2.3-5.7h4.6C16.6,26.4,15.6,28.5,15,28.5Zm-2.6-7.3c-.2-1.6-.3-3.4-.4-5.4h5.8a39.88,39.88,0,0,1-.4,5.4Zm-.3-7a46.27,46.27,0,0,1,.4-5.7h5a46.26,46.26,0,0,1,.4,5.7ZM15,1.5h0c.6,0,1.6,1.8,2.3,5.5H12.8C13.4,3.3,14.3,1.5,15,1.5ZM18.8,7a19.92,19.92,0,0,0-1.4-5A10.77,10.77,0,0,1,22,7ZM12.6,2a18.77,18.77,0,0,0-1.4,5h-3A9.55,9.55,0,0,1,12.6,2ZM10.9,8.5a54.59,54.59,0,0,0-.4,5.7h-4a20.6,20.6,0,0,1,1-5.7Zm-6,5.7H1.5A13.88,13.88,0,0,1,3.1,8.5H5.9A21.28,21.28,0,0,0,4.9,14.2Zm1.6,1.6h4.1a32.72,32.72,0,0,0,.4,5.4H7.4A16.91,16.91,0,0,1,6.5,15.8Zm4.6,7A16.09,16.09,0,0,0,12.6,28a10.19,10.19,0,0,1-4.5-5.2ZM17.3,28a23.44,23.44,0,0,0,1.5-5.2H22A9.36,9.36,0,0,1,17.3,28ZM19,21.2c.2-1.8.3-3.6.4-5.4h4.2a16.77,16.77,0,0,1-1,5.4Zm6.1-5.4h3.4A11.39,11.39,0,0,1,27,21.2H24.3A25.75,25.75,0,0,0,25.1,15.8ZM25.9,7H23.6A15.15,15.15,0,0,0,21,2.9,14.93,14.93,0,0,1,25.9,7ZM9,2.8A13.38,13.38,0,0,0,6.5,7H4.1A16.57,16.57,0,0,1,9,2.8Zm-5,20H6.4A13.66,13.66,0,0,0,9,27.1,13.84,13.84,0,0,1,4,22.8Zm17,4.3a18.22,18.22,0,0,0,2.6-4.3H26A13.84,13.84,0,0,1,21,27.1Z" fill="#999"/></svg>