<?xml version="1.0" encoding="utf-8"?>
<!-- Generator: Adobe Illustrator 16.0.4, SVG Export Plug-In . SVG Version: 6.00 Build 0)  -->
<!DOCTYPE svg PUBLIC "-//W3C//DTD SVG 1.1//EN" "http://www.w3.org/Graphics/SVG/1.1/DTD/svg11.dtd">
<svg version="1.1" id="Layer_1" xmlns="http://www.w3.org/2000/svg" xmlns:xlink="http://www.w3.org/1999/xlink" x="0px" y="0px"
	 width="30px" height="30px" viewBox="370.689 370 60 60" enable-background="new 370.689 370 60 60" xml:space="preserve">
<path fill="#B3B3B3" d="M385.974,375.069c-0.414,0.931-0.93,1.862-1.342,2.793l-3.821,8.069h-0.62l-5.06-10.966l-1.342,10.448
	h-1.859L373.994,370h0.929l5.68,12.414L386.387,370h0.826l1.962,15.414h-1.962L385.974,375.069z"/>
<path fill="#B3B3B3" d="M390.827,370.621h7.539v1.655h-5.783v4.448h5.783v1.552h-5.783v5.483h5.886v1.655h-7.642V370.621
	L390.827,370.621z"/>
<path fill="#B3B3B3" d="M409.519,380.448l-6.196-6.621v11.586h-1.756v-15.207h0.724l11.152,11.896v-11.586h1.653v15.311h-0.826
	L409.519,380.448z"/>
<path fill="#B3B3B3" d="M423.667,385.621c-3.614,0-5.577-2.586-5.577-5.586v-9.414h1.756v9.414c0,1.034,0.104,1.862,0.93,2.689
	c0.723,0.828,1.858,1.241,2.892,1.241c1.136,0,2.169-0.517,2.995-1.345c0.723-0.828,0.929-1.758,0.929-2.896v-9.104h1.756v9.414
	c0,0.103,0,0.931-0.103,1.448C428.624,383.965,426.249,385.621,423.667,385.621z"/>
<path fill="#B3B3B3" d="M374.098,401.034h53.184c1.859,0,3.408-1.758,3.408-3.621c0-1.862-1.652-3.621-3.512-3.621h-53.08
	c-1.859,0-3.408,1.759-3.408,3.621C370.689,399.276,372.238,401.034,374.098,401.034z"/>
<path fill="#B3B3B3" d="M427.178,422.759h-53.08c-1.859,0-3.408,1.759-3.408,3.62c0,1.862,1.549,3.621,3.408,3.621h53.184
	c1.859,0,3.408-1.759,3.408-3.621C430.689,424.518,429.037,422.759,427.178,422.759z"/>
<path fill="#B3B3B3" d="M427.178,408.275h-53.08c-1.859,0-3.408,1.759-3.408,3.621s1.549,3.621,3.408,3.621h53.184
	c1.859,0,3.408-1.759,3.408-3.621S429.037,408.275,427.178,408.275z"/>
</svg>
