<?xml version="1.0" encoding="UTF-8" standalone="no"?>
<svg width="16px" height="12px" viewBox="0 0 16 12" version="1.1" xmlns="http://www.w3.org/2000/svg" xmlns:xlink="http://www.w3.org/1999/xlink">
    <!-- Generator: Sketch 3.8.3 (29802) - http://www.bohemiancoding.com/sketch -->
    <title>Shape</title>
    <desc>Created with Sketch.</desc>
    <defs></defs>
    <g id="Page-1" stroke="none" stroke-width="1" fill="none" fill-rule="evenodd">
        <path d="M11.4623256,0.15255814 C10.0941395,0.15255814 8.85451163,0.688100076 8,1.6041217 C7.14567442,0.688100076 5.90604651,0.15255814 4.53767442,0.15255814 C2.2827907,0.15255814 0,1.68758076 0,4.62128354 C0,7.672297 3.91069767,9.9771709 7.576,11.8979772 C7.70567442,11.9658364 7.85302326,12 8,12 C8.1467907,12 8.29451163,11.9656804 8.424,11.8979772 C12.0893023,9.9771709 16,7.672297 16,4.62128354 C16,1.68758076 13.7170233,0.15255814 11.4623256,0.15255814 M8,10.5375166 C5.55032558,9.24647518 1.6,7.03894417 1.6,4.62143954 C1.6,2.47287587 3.1227907,1.49429895 4.53767442,1.49429895 C5.73283721,1.49429895 6.74976744,2.12952376 7.25730233,3.1938997 C7.3787907,3.44848882 7.67274419,3.61540693 8,3.61540693 C8.32744186,3.61540693 8.62102326,3.44848882 8.74269767,3.19374371 C9.2504186,2.12936776 10.2671628,1.49414295 11.4623256,1.49414295 C12.8772093,1.49429895 14.4,2.47287587 14.4,4.62159554 C14.4,7.03894417 10.4496744,9.24631918 8,10.5375166" id="Shape" fill="#999999"></path>
    </g>
</svg>