<?xml version="1.0" encoding="UTF-8" standalone="no"?>
<svg width="19px" height="19px" viewBox="0 0 19 19" version="1.1" xmlns="http://www.w3.org/2000/svg" xmlns:xlink="http://www.w3.org/1999/xlink">
    <!-- Generator: Sketch 39.1 (31720) - http://www.bohemiancoding.com/sketch -->
    <title>info.colors-dark</title>
    <desc>Created with Sketch.</desc>
    <defs></defs>
    <g id="Page-1" stroke="none" stroke-width="1" fill="none" fill-rule="evenodd">
        <g id="info.colors-dark" fill="#000000">
            <path d="M9.5,0 C4.24333333,0 0,4.24333333 0,9.5 C0,14.7566667 4.24333333,19 9.5,19 C14.7566667,19 19,14.7566667 19,9.5 C19,4.24333333 14.7566667,0 9.5,0 L9.5,0 Z M10.5977778,13.8488889 L8.40222222,13.8488889 L8.40222222,8.44444444 L10.5766667,8.44444444 L10.5766667,13.8488889 L10.5977778,13.8488889 Z M9.5,7.53666667 C8.84555556,7.53666667 8.29666667,7.00888889 8.29666667,6.33333333 C8.29666667,5.67888889 8.82444444,5.13 9.5,5.13 C10.1544444,5.13 10.7033333,5.65777778 10.7033333,6.33333333 C10.7033333,7.00888889 10.1544444,7.53666667 9.5,7.53666667 L9.5,7.53666667 Z" id="Shape"></path>
        </g>
    </g>
</svg>