<svg xmlns="http://www.w3.org/2000/svg" width="24.01" height="36.3" viewBox="0 0 24.01 36.3"><title>mouse</title><path d="M17.2,11h-1c.1-1,1-1.8,1.8-2.8,1.1-1.1,2.2-2.3,2.2-3.9,0-2.9-1.9-4.4-5.8-4.4-3.3,0-4.3,2.6-5.2,4.8S7.8,8.1,6.3,8.1A6.83,6.83,0,0,1,.9,5.2a.47.47,0,0,0-.7-.1.47.47,0,0,0-.1.7A7.68,7.68,0,0,0,6.3,9.1c2.3,0,3.1-2,3.9-4S11.8,1,14.5,1c2.2,0,4.8.4,4.8,3.4,0,1.2-.9,2.2-1.9,3.2A6.26,6.26,0,0,0,15.3,11h-.6A6.72,6.72,0,0,0,8,17.8V29.4a6.7,6.7,0,0,0,6.6,6.8h2.6A6.87,6.87,0,0,0,24,29.4V17.8A6.87,6.87,0,0,0,17.2,11ZM23,17.8V19H17.9a1.87,1.87,0,0,0-1.4-1.9V12h.7A5.87,5.87,0,0,1,23,17.8ZM14.6,12h.9v5.1A2.17,2.17,0,0,0,14,19H9V17.8A5.7,5.7,0,0,1,14.6,12Zm2.6,23.3H14.6A5.7,5.7,0,0,1,9,29.5V20h5v1a1.92,1.92,0,0,0,1.9,2h0a2,2,0,0,0,2-2V20h5v9.4A5.74,5.74,0,0,1,17.2,35.3Z" transform="translate(0.01 0.1)" fill="#999"/></svg>