<svg xmlns="http://www.w3.org/2000/svg" width="20" height="20.421" viewBox="0 0 20 20.42"><title>Nutrition Info Icon</title><g id="Layer_2" data-name="Layer 2"><g id="Layer_2-2" data-name="Layer 2"><path d="M15.66,8.13A2.92,2.92,0,0,0,18,8.38c1.18-.38,1.3-1,1.88-2.95a2.59,2.59,0,0,0-1.5-3.15,4,4,0,0,0-2.73.58,4,4,0,0,0-2.73-.58,2.59,2.59,0,0,0-1.5,3.15c.58,2,.69,2.57,1.88,2.95A2.92,2.92,0,0,0,15.66,8.13Z" fill="#6c6d6d"/><path d="M13.37,0a2.42,2.42,0,0,0,.45,1.58,3.65,3.65,0,0,0,1.84.6A3.89,3.89,0,0,0,15,.45,2.42,2.42,0,0,0,13.37,0Z" fill="#6c6d6d"/><path d="M1.44,2A2.42,2.42,0,0,0,1,3.6C1.11,4.3,2.17,5.1,2.17,5.1a3.89,3.89,0,0,0,.36-1.84C2.38,2.55,1.44,2,1.44,2Z" fill="#6c6d6d"/><path d="M4.95,4.34a2.42,2.42,0,0,0-1.61.35,3.65,3.65,0,0,0-.71,1.8,3.89,3.89,0,0,0,1.78-.59A2.42,2.42,0,0,0,4.95,4.34Z" fill="#6c6d6d"/><path d="M4.95,6.92a2.42,2.42,0,0,0-1.61.35,3.65,3.65,0,0,0-.71,1.8,3.89,3.89,0,0,0,1.78-.59A2.42,2.42,0,0,0,4.95,6.92Z" fill="#6c6d6d"/><path d="M4.95,9.51a2.42,2.42,0,0,0-1.61.35,3.65,3.65,0,0,0-.71,1.8,3.89,3.89,0,0,0,1.78-.59A2.42,2.42,0,0,0,4.95,9.51Z" fill="#6c6d6d"/><path d="M0,5.27a2.42,2.42,0,0,1,1.61.35,3.65,3.65,0,0,1,.71,1.8A3.89,3.89,0,0,1,.54,6.83,2.42,2.42,0,0,1,0,5.27Z" fill="#6c6d6d"/><path d="M0,7.86a2.42,2.42,0,0,1,1.61.35A3.65,3.65,0,0,1,2.32,10,3.89,3.89,0,0,1,.54,9.42,2.42,2.42,0,0,1,0,7.86Z" fill="#6c6d6d"/><path d="M0,10.45a2.42,2.42,0,0,1,1.61.35,3.65,3.65,0,0,1,.71,1.8A3.89,3.89,0,0,1,.54,12,2.42,2.42,0,0,1,0,10.45Z" fill="#6c6d6d"/><rect x="0.71" y="11.13" width="18.58" height="1.53" transform="translate(-2.55 2.74) rotate(-13.83)" fill="#6c6d6d"/><path d="M9.86,15.67l2,3.47h-4l2-3.47m0-2.57L5.63,20.42h8.46L9.86,13.09Z" fill="#6c6d6d"/></g></g></svg>
