<svg xmlns="http://www.w3.org/2000/svg" width="28.1" height="54" viewBox="0 0 28.1 54">
    <title>phone-feature</title><path d="M28,4.5A4.48,4.48,0,0,0,23.5,0H4.5A4.48,4.48,0,0,0,0,4.5v45A4.48,4.48,0,0,0,4.5,54H23.6a4.48,4.48,0,0,0,4.5-4.5V4.5Zm-1.6,45a2.8,2.8,0,0,1-2.8,2.8H4.5a2.8,2.8,0,0,1-2.8-2.8V4.5A2.8,2.8,0,0,1,4.5,1.7H23.6a2.8,2.8,0,0,1,2.8,2.8Z" fill="#999"/><path d="M4.5,41.4H24V11H4.5ZM6.1,12.6H22.3V39.8H6.1Z" fill="#999"/><circle cx="14.2" cy="47.2" r="3" fill="#999"/><rect x="9.3" y="4.9" width="1.6" height="2.8" fill="#999"/><rect x="12.6" y="6.5" width="6.5" height="1.2" fill="#999"/></svg>