<?xml version="1.0" encoding="utf-8"?>
<!-- Generator: Adobe Illustrator 22.0.0, SVG Export Plug-In . SVG Version: 6.00 Build 0)  -->
<svg version="1.1" id="Layer_1" xmlns="http://www.w3.org/2000/svg" xmlns:xlink="http://www.w3.org/1999/xlink" x="0px" y="0px"
	 width="16px" height="16px" viewBox="0 0 16 16" style="enable-background:new 0 0 16 16;" xml:space="preserve">
<title>Fill 4</title>
<desc>Created with Sketch.</desc>
<g>
	<path d="M8,0C3.6,0,0,3.6,0,8s3.6,8,8,8s8-3.6,8-8S12.4,0,8,0z M8.9,10.7c-0.7,0-1.4-0.4-1.7-0.9c0,0-0.4,1.6-0.5,1.9
		c-0.3,1.1-1.2,2.2-1.2,2.2c0,0.1-0.2,0-0.2,0c0-0.1-0.2-1.5,0-2.6c0.1-0.6,0.9-3.7,0.9-3.7S6,7.1,6,6.5c0-1,0.6-1.8,1.3-1.8
		c0.6,0,0.9,0.5,0.9,1c0,0.6-0.4,1.6-0.6,2.4C7.5,8.9,8.1,9.5,8.8,9.5c1.3,0,2.2-1.7,2.2-3.6c0-1.5-1-2.6-2.9-2.6
		C6,3.2,4.7,4.8,4.7,6.5c0,0.6,0.2,1,0.5,1.3C5.3,8,5.3,8,5.3,8.2c0,0.1-0.1,0.4-0.1,0.5c0,0.2-0.2,0.2-0.3,0.2
		c-1-0.4-1.4-1.4-1.4-2.6C3.4,4.4,5,2,8.3,2c2.6,0,4.3,1.9,4.3,3.9C12.6,8.6,11.1,10.7,8.9,10.7z"/>
</g>
</svg>
