<?xml version="1.0" encoding="UTF-8" standalone="no"?>
<svg width="18px" height="18px" viewBox="0 0 18 18" version="1.1" xmlns="http://www.w3.org/2000/svg" xmlns:xlink="http://www.w3.org/1999/xlink">
    <!-- Generator: Sketch 3.8.3 (29802) - http://www.bohemiancoding.com/sketch -->
    <title>Shape</title>
    <desc>Created with Sketch.</desc>
    <defs></defs>
    <g id="Page-1" stroke="none" stroke-width="1" fill="none" fill-rule="evenodd">
        <path d="M12.2756364,9.23228283 C13.2290909,8.33357576 13.7676768,7.09442424 13.7676768,5.76767677 C13.7676768,3.13878788 11.6288889,1 9,1 C6.37111111,1 4.23232323,3.13878788 4.23232323,5.76767677 C4.23232323,7.09442424 4.77090909,8.33357576 5.72436364,9.23228283 C2.71466667,10.18 1,12.4297778 1,15.4646465 L1,17 L17,17 L17,15.4646465 C17,12.4297778 15.2853333,10.18 12.2756364,9.23228283 L12.2756364,9.23228283 L12.2756364,9.23228283 L12.2756364,9.23228283 L12.2756364,9.23228283 Z M16.5151515,16.5151515 L1.48484848,16.5151515 L1.48484848,15.4646465 C1.48484848,13.9366869 1.93543434,12.6392323 2.82412121,11.6083636 C3.64347475,10.657899 4.84012121,9.95482828 6.28468687,9.57519192 L6.75890909,9.45058586 L6.3719596,9.14941414 C5.32032323,8.33086869 4.71717172,7.09830303 4.71717172,5.76767677 C4.71717172,3.40610101 6.63842424,1.48484848 9,1.48484848 C11.3615758,1.48484848 13.2828283,3.40610101 13.2828283,5.76767677 C13.2828283,7.09830303 12.6796768,8.33086869 11.6280404,9.14941414 L11.2410909,9.45058586 L11.7153131,9.57519192 C13.1598788,9.95482828 14.3565253,10.657899 15.1758788,11.6083636 C16.0645657,12.6392323 16.5151515,13.9366869 16.5151515,15.4646465 L16.5151515,16.5151515 L16.5151515,16.5151515 L16.5151515,16.5151515 L16.5151515,16.5151515 L16.5151515,16.5151515 Z" id="Shape" stroke="#979797" fill="#A2A2A2"></path>
    </g>
</svg>