<svg xmlns="http://www.w3.org/2000/svg" width="26.96" height="19.5" viewBox="0 0 26.96 19.5"><title>rewards</title><path d="M26.7,2.7a20.3,20.3,0,0,0-5.6-1.1c-1.8,0-4.1.9-6.5,1.8-2.7,1.1-5.5,2.1-8,2.1-3.7,0-5.4-1.1-5.4-1.2-.2.1-.6,0-.8.1s-.4.3-.4.5V17c0,.1.2.3.3.4a9.59,9.59,0,0,0,6.1,2.1c2,0,4.1-1,6.3-2.1,2.6-1.3,5.3-2.6,8.3-2.6,3.5,0,5.1,1.4,5.1,1.4s.4.2.5.1.3-.2.3-.4V3.3A.45.45,0,0,0,26.7,2.7ZM26,14.9a10,10,0,0,0-4.9-1.1H21c-3.1,0-6,1.4-8.5,2.7-2.1,1-4.3,2-6,2a10.11,10.11,0,0,1-5.4-1.7V5.7a14.67,14.67,0,0,0,5.4.9c2.7,0,5.7-1.1,8.4-2.2a20.08,20.08,0,0,1,6.2-1.7,18,18,0,0,1,5,.9V14.9Z" fill="#999"/><path d="M.6,3.5A13.21,13.21,0,0,0,6.5,4.9c2,0,4.3-.9,6.7-1.8C15.9,2,18.6,1,21.1,1a14.56,14.56,0,0,1,5.2.8.48.48,0,0,0,.6-.2c.1-.3.1-.6-.2-.7A15.44,15.44,0,0,0,21.1,0c-2.7,0-5.5,1.1-8.2,2.2C10.6,3.1,8.4,4,6.6,4A11.51,11.51,0,0,1,1.2,2.7a.61.61,0,0,0-.8.1C.3,3.1.3,3.4.6,3.5Z" fill="#999"/><polygon points="8.9 13.4 7.8 10 6.8 10 5.8 13.4 4.7 10 3.5 10 5.1 15.1 6.4 15.1 7.3 11.8 8.3 15.1 9.5 15.1 11.2 10 9.9 10 8.9 13.4" fill="#999"/><rect x="19.2" y="4" width="1" height="1" fill="#999"/><rect x="19.2" y="8" width="1" height="1" fill="#999"/><rect x="19.2" y="11.9" width="1" height="1" fill="#999"/><rect x="19.2" y="6" width="1" height="1" fill="#999"/><rect x="19.2" y="10" width="1" height="1" fill="#999"/></svg>