<svg xmlns="http://www.w3.org/2000/svg" width="26.96" height="21.6" viewBox="0 0 26.96 21.6"><title>rewards-plus-one</title><path d="M26.7,2.7a20.3,20.3,0,0,0-5.6-1.1c-1.8,0-4.1.9-6.5,1.8-2.7,1.1-5.5,2.1-8,2.1-3.7,0-5.4-1.1-5.4-1.2-.2.1-.6,0-.8.1s-.4.3-.4.5V17c0,.1.2.3.3.4a9.59,9.59,0,0,0,6.1,2.1c2,0,4.1-1,6.3-2.1,2.6-1.3,5.3-2.6,8.3-2.6,3.5,0,5.1,1.4,5.1,1.4s.4.2.5.1.3-.2.3-.4V3.3A.45.45,0,0,0,26.7,2.7ZM26,14.9a10,10,0,0,0-4.9-1.1H21c-3.1,0-6,1.4-8.5,2.7-2.1,1-4.3,2-6,2a10.11,10.11,0,0,1-5.4-1.7V5.7a14.67,14.67,0,0,0,5.4.9c2.7,0,5.7-1.1,8.4-2.2a20.08,20.08,0,0,1,6.2-1.7,18,18,0,0,1,5,.9V14.9Z" fill="#999"/><path d="M.6,3.5A13.21,13.21,0,0,0,6.5,4.9c2,0,4.3-.9,6.7-1.8C15.9,2,18.6,1,21.1,1a14.56,14.56,0,0,1,5.2.8.48.48,0,0,0,.6-.2c.1-.3.1-.6-.2-.7A15.44,15.44,0,0,0,21.1,0c-2.7,0-5.5,1.1-8.2,2.2C10.6,3.1,8.4,4,6.6,4A11.51,11.51,0,0,1,1.2,2.7a.61.61,0,0,0-.8.1C.3,3.1.3,3.4.6,3.5Z" fill="#999"/><polygon points="8.9 13.5 7.8 10.1 6.8 10.1 5.8 13.5 4.7 10.1 3.5 10.1 5.1 15.2 6.4 15.2 7.3 11.9 8.3 15.2 9.5 15.2 11.2 10.1 9.9 10.1 8.9 13.5" fill="#999"/><rect x="19.2" y="4.1" width="1" height="1" fill="#999"/><rect x="19.2" y="8.1" width="1" height="1" fill="#999"/><rect x="19.2" y="12" width="1" height="1" fill="#999"/><rect x="19.2" y="6.1" width="1" height="1" fill="#999"/><rect x="19.2" y="10.1" width="1" height="1" fill="#999"/><polygon points="15.5 17.4 14.6 17.4 14.6 19.2 12.8 19.2 12.8 19.9 14.6 19.9 14.6 21.4 15.5 21.4 15.5 19.9 17.3 19.9 17.3 19.2 15.5 19.2 15.5 17.4" fill="#999"/><polygon points="17.8 17.7 18.7 17.7 18.7 21.4 19.7 21.4 19.7 16.7 17.8 16.7 17.8 17.7" fill="#999"/><polygon points="23.7 16.3 21.1 21.3 21.7 21.6 24.3 16.5 23.7 16.3" fill="#999"/><path d="M22.6,17.6a1.2,1.2,0,1,0-1.2,1.1A1.2,1.2,0,0,0,22.6,17.6Zm-1.7,0a.54.54,0,0,1,.5-.5.47.47,0,0,1,.5.5.5.5,0,0,1-1,0Z" fill="#999"/><path d="M24.1,18.9A1.1,1.1,0,1,0,25.3,20,1.13,1.13,0,0,0,24.1,18.9Zm0,1.6a.47.47,0,0,1-.5-.5.54.54,0,0,1,.5-.5.47.47,0,0,1,.5.5A.47.47,0,0,1,24.1,20.5Z" fill="#999"/></svg>