<svg xmlns="http://www.w3.org/2000/svg" width="26.94" height="22.6" viewBox="0 0 26.94 22.6"><title>rewards-stash</title><path d="M26.7,6.3a19.2,19.2,0,0,0-5.5-1.1c-1.8,0-4,.9-6.4,1.8C12.1,8,9.4,9.1,7,9.1A10.2,10.2,0,0,1,1.6,8,1.39,1.39,0,0,0,.7,8c-.2.1-.7.2-.7.4V20.2c0,.1.5.3.6.4a9.92,9.92,0,0,0,6.1,2.1c1.9,0,4.1-1,6.3-2.1,2.6-1.3,5.3-2.6,8.1-2.5a7.88,7.88,0,0,1,5,1.4c.1.1.4.2.5.1s.3-.2.3-.4V6.9A.45.45,0,0,0,26.7,6.3ZM6.3,21.7A10,10,0,0,1,1,20V9.2a14.48,14.48,0,0,0,5.3.9,14.84,14.84,0,0,0,5-1v11A11.24,11.24,0,0,1,6.3,21.7Zm6-2V8.8c1-.3,1.6-.6,2.3-.8.2-.1.6-.2.8-.3V18.4A25.83,25.83,0,0,0,12.3,19.7Zm8.9-2.6h-.3a14.23,14.23,0,0,0-4.5.8V7.3A15.19,15.19,0,0,1,21,6.2a17.24,17.24,0,0,1,5,.9V18.2A11.21,11.21,0,0,0,21.2,17.1Z" transform="translate(0 -0.1)" fill="#999"/><path d="M1.1,7.1A13,13,0,0,0,6.9,8.5c2,0,4.2-.9,6.6-1.8,2.6-1,5.2-2.1,7.7-2.1a13.62,13.62,0,0,1,5.1.8.48.48,0,0,0,.6-.2.48.48,0,0,0-.2-.6,15.17,15.17,0,0,0-5.5-.9c-2.7,0-5.4,1.1-8.1,2.1A19.38,19.38,0,0,1,6.9,7.5,10.85,10.85,0,0,1,1.6,6.2c-.2-.1-.6-.1-.7.2A.66.66,0,0,0,1.1,7.1Z" transform="translate(0 -0.1)" fill="#999"/><path d="M1.1,5.4A13,13,0,0,0,6.9,6.8c2,0,4.2-.9,6.6-1.8,2.6-1,5.2-2.1,7.7-2.1a13.62,13.62,0,0,1,5.1.8.48.48,0,0,0,.6-.2.48.48,0,0,0-.2-.6A15.17,15.17,0,0,0,21.2,2c-2.7,0-5.4,1.1-8.1,2.1A19.38,19.38,0,0,1,6.9,5.8,10.85,10.85,0,0,1,1.6,4.5c-.2-.1-.6-.1-.7.2A.66.66,0,0,0,1.1,5.4Z" transform="translate(0 -0.1)" fill="#999"/><path d="M1.1,3.4A13,13,0,0,0,6.9,4.8c2,0,4.2-.9,6.6-1.8,2.6-1,5.2-2,7.7-2a13.62,13.62,0,0,1,5.1.8.48.48,0,0,0,.6-.2.48.48,0,0,0-.2-.6A15.17,15.17,0,0,0,21.2.1c-2.7,0-5.4,1.1-8.1,2.1C10.8,3,8.7,3.8,6.9,3.8A10.85,10.85,0,0,1,1.6,2.5a.55.55,0,0,0-.7.3A.48.48,0,0,0,1.1,3.4Z" transform="translate(0 -0.1)" fill="#999"/></svg>