<?xml version="1.0" encoding="utf-8"?>
<!-- Generator: Adobe Illustrator 16.0.4, SVG Export Plug-In . SVG Version: 6.00 Build 0)  -->
<!DOCTYPE svg PUBLIC "-//W3C//DTD SVG 1.1//EN" "http://www.w3.org/Graphics/SVG/1.1/DTD/svg11.dtd">
<svg version="1.1" id="Capa_1" xmlns="http://www.w3.org/2000/svg" xmlns:xlink="http://www.w3.org/1999/xlink" x="0px" y="0px"
	 width="15.999px" height="15.999px" viewBox="215.126 215.126 15.999 15.999"
	 enable-background="new 215.126 215.126 15.999 15.999" xml:space="preserve">
<g>
	<g id="search">
		<path fill="#818286" d="M226.555,225.184h-0.731l-0.274-0.274c0.914-1.007,1.463-2.377,1.463-3.841
			c0-3.291-2.65-5.942-5.943-5.942c-3.291,0-5.942,2.651-5.942,5.942c0,3.293,2.651,5.943,5.942,5.943
			c1.464,0,2.834-0.549,3.841-1.463l0.274,0.274v0.731l4.57,4.57l1.371-1.371L226.555,225.184z M221.068,225.184
			c-2.286,0-4.114-1.83-4.114-4.115c0-2.286,1.829-4.114,4.114-4.114s4.115,1.829,4.115,4.114S223.354,225.184,221.068,225.184z"/>
	</g>
</g>
</svg>
