<?xml version="1.0" encoding="utf-8"?>
<!-- Generator: Adobe Illustrator 21.1.0, SVG Export Plug-In . SVG Version: 6.00 Build 0)  -->
<svg version="1.0" id="Layer_1" xmlns="http://www.w3.org/2000/svg" xmlns:xlink="http://www.w3.org/1999/xlink" x="0px" y="0px"
	 width="20px" height="20px" viewBox="0 0 20 20" style="enable-background:new 0 0 20 20;" xml:space="preserve">
<style type="text/css">
	.st0{fill:#FFFFFF;}
	.st1{display:none;}
	.st2{display:inline;fill:#FFFFFF;}
	.st3{display:inline;fill:#0000FF;}
</style>
<path class="st0" d="M18.5,17.2L14.3,13c1-1.3,1.6-2.9,1.6-4.6c0-4.1-3.3-7.4-7.4-7.4S1.2,4.4,1.2,8.4s3.3,7.4,7.4,7.4
	c1.6,0,3.1-0.5,4.3-1.4l4.2,4.2c0.4,0.4,1,0.4,1.4,0S18.9,17.6,18.5,17.2z M3.2,8.4c0-3,2.4-5.4,5.4-5.4S14,5.4,14,8.4
	s-2.4,5.4-5.4,5.4S3.2,11.4,3.2,8.4z"/>
<g class="st1">
	<path class="st2" d="M10,0C4.5,0,0,4.5,0,10s4.5,10,10,10s10-4.5,10-10S15.5,0,10,0z M6.4,17.1v-2.9h7.4V17c-1.1,0.6-2.4,1-3.8,1
		C8.7,18,7.5,17.7,6.4,17.1z M15.8,15.5v-1.3c0-1.1-0.9-2-2-2H6.4c-1.1,0-2,0.9-2,2v1.4C2.9,14.2,2,12.2,2,10c0-4.4,3.6-8,8-8
		s8,3.6,8,8C18,12.1,17.2,14.1,15.8,15.5z"/>
	<path class="st2" d="M10,3.9c-2,0-3.6,1.6-3.6,3.6S8,11.1,10,11.1s3.6-1.6,3.6-3.6S12,3.9,10,3.9z M10,9.1c-0.9,0-1.6-0.7-1.6-1.6
		S9.2,5.9,10,5.9s1.6,0.7,1.6,1.6S10.9,9.1,10,9.1z"/>
</g>
<g class="st1">
	<rect x="2.5" y="4.3" class="st3" width="15.1" height="2"/>
	<rect x="2.5" y="9" class="st3" width="15.1" height="2"/>
	<rect x="2.5" y="13.7" class="st3" width="15.1" height="2"/>
</g>
</svg>
