<svg xmlns="http://www.w3.org/2000/svg" width="18" height="22" viewBox="0 0 18 21.6"><defs><style>.cls-1{fill:#4c4c4d;}</style></defs><title>Asset 1</title><g id="Layer_2" data-name="Layer 2"><g id="Layer_1-2" data-name="Layer 1"><rect class="cls-1" x="4.18" y="7.49" width="9.72" height="1.37"/><rect class="cls-1" x="4.18" y="11.66" width="9.72" height="1.37"/><rect class="cls-1" x="4.18" y="15.84" width="9.72" height="1.37"/><path class="cls-1" d="M13.82,2.23V1.08a1.08,1.08,0,0,0-2.16,0V2.23H10.08V1.08a1.08,1.08,0,0,0-2.16,0V2.23H6.34V1.08A1.11,1.11,0,0,0,5.26,0,1.11,1.11,0,0,0,4.18,1.08V2.23H0V21.6H18V2.23Zm2.74,17.93H1.44V3.67H4.18V4.82A1.11,1.11,0,0,0,5.26,5.9,1.11,1.11,0,0,0,6.34,4.82V3.67H8V4.82a1.08,1.08,0,1,0,2.16,0V3.67h1.58V4.82a1.08,1.08,0,1,0,2.16,0V3.67h2.66Z"/></g></g></svg>
