<?xml version="1.0" encoding="UTF-8" standalone="no"?>
<svg width="9px" height="7px" viewBox="0 0 9 7" version="1.1" xmlns="http://www.w3.org/2000/svg" xmlns:xlink="http://www.w3.org/1999/xlink">
    <!-- Generator: Sketch 3.8.3 (29802) - http://www.bohemiancoding.com/sketch -->
    <title>tick-grey</title>
    <desc>Created with Sketch.</desc>
    <defs></defs>
    <g id="Page-1" stroke="none" stroke-width="1" fill="none" fill-rule="evenodd">
        <g id="tick-grey" fill="#999999">
            <path d="M3.95634921,6.15952381 C3.82936508,6.28650794 3.63888889,6.28650794 3.51190476,6.15952381 L3.4484127,6.09603175 L3.4484127,6.09603175 L3.32142857,5.96904762 L2.87698413,5.52460317 L2.87698413,5.52460317 L0.845238095,3.49285714 C0.718253968,3.36587302 0.718253968,3.17539683 0.845238095,3.0484127 L1.48015873,2.41349206 C1.60714286,2.28650794 1.79761905,2.28650794 1.92460317,2.41349206 L3.76587302,4.2547619 L7.57539683,0.445238095 C7.70238095,0.318253968 7.89285714,0.318253968 8.01984127,0.445238095 L8.6547619,1.08015873 C8.78174603,1.20714286 8.78174603,1.39761905 8.6547619,1.52460317 L3.95634921,6.15952381 L3.95634921,6.15952381 L3.95634921,6.15952381 Z" id="Shape"></path>
        </g>
    </g>
</svg>