<?xml version="1.0" encoding="utf-8"?>
<!-- Generator: Adobe Illustrator 22.0.0, SVG Export Plug-In . SVG Version: 6.00 Build 0)  -->
<svg version="1.1" id="Layer_1" xmlns="http://www.w3.org/2000/svg" xmlns:xlink="http://www.w3.org/1999/xlink" x="0px" y="0px"
	 width="16px" height="16px" viewBox="0 0 16 16" style="enable-background:new 0 0 16 16;" xml:space="preserve">
<style type="text/css">
	.st0{fill:#010002;}
</style>
<title>Shape</title>
<desc>Created with Sketch.</desc>
<g>
	<g>
		<path class="st0" d="M15.4,3.4c-0.5,0.2-1.1,0.4-1.7,0.5c0.6-0.4,1.1-1,1.3-1.7c-0.6,0.3-1.2,0.6-1.9,0.7c-0.6-0.6-1.3-1-2.2-1
			c-1.7,0-3,1.4-3,3c0,0.2,0,0.5,0.1,0.7C5.4,5.6,3.1,4.4,1.6,2.6C1.4,3,1.2,3.5,1.2,4.1c0,1.1,0.5,2,1.3,2.5c-0.5,0-1-0.2-1.4-0.4
			v0c0,1.5,1,2.7,2.4,3C3.4,9.3,3.1,9.3,2.8,9.3c-0.2,0-0.4,0-0.6-0.1c0.4,1.2,1.5,2.1,2.8,2.1c-1,0.8-2.3,1.3-3.8,1.3
			c-0.2,0-0.5,0-0.7,0C2,13.5,3.5,14,5.3,14c5.6,0,8.6-4.6,8.6-8.6l0-0.4C14.5,4.6,15,4,15.4,3.4z"/>
	</g>
</g>
</svg>
