<svg xmlns="http://www.w3.org/2000/svg" width="26" height="29.4" viewBox="0 0 26 29.4"><title>umbrella</title><path d="M26,12.8a13,13,0,0,0-26,0v.6H1.9v-.5a1.92,1.92,0,0,1,1.8-1.7,1.84,1.84,0,0,1,1.8,1.7l.1.5H8.2v-.5A1.92,1.92,0,0,1,10,11.2a1.84,1.84,0,0,1,1.8,1.7v.5h.7V26.7h0a2.25,2.25,0,0,1-.5,1.4,2,2,0,0,1-1.6.6,2.34,2.34,0,0,1-2.3-2.1.63.63,0,0,0-.6-.5.63.63,0,0,0-.5.6,3.37,3.37,0,0,0,3.4,3,2.87,2.87,0,0,0,2.3-.9,3.36,3.36,0,0,0,.8-2.2V13.4h.9v-.5a1.92,1.92,0,0,1,1.8-1.7A1.84,1.84,0,0,1,18,12.9v.5h2.6v-.5a1.92,1.92,0,0,1,1.8-1.7,1.84,1.84,0,0,1,1.8,1.7v.5H26Zm-3.5-2.7a3,3,0,0,0-2.8,2.2H19a2.8,2.8,0,0,0-2.8-2.2,2.88,2.88,0,0,0-2.8,2.2h-.7a2.82,2.82,0,0,0-5.5,0H6.5a2.8,2.8,0,0,0-2.8-2.2,2.88,2.88,0,0,0-2.6,1.6A11.9,11.9,0,0,1,13,1.4a12,12,0,0,1,11.8,10A2.77,2.77,0,0,0,22.5,10.1Z" transform="translate(0 -0.3)" fill="#999"/></svg>