<?xml version="1.0" encoding="utf-8"?>
<!-- Generator: Adobe Illustrator 21.1.0, SVG Export Plug-In . SVG Version: 6.00 Build 0)  -->
<svg version="1.0" id="Layer_1" xmlns="http://www.w3.org/2000/svg" xmlns:xlink="http://www.w3.org/1999/xlink" x="0px" y="0px"
	 width="20px" height="20px" viewBox="0 0 20 20" style="enable-background:new 0 0 20 20;" xml:space="preserve">
<style type="text/css">
	.st0{fill-rule:evenodd;clip-rule:evenodd;fill:#FFFFFF;}
</style>
<g>
	<path class="st0" d="M19.8,8.2c-0.3-1.8-1.1-3.3-2.2-4.7c-1.5-1.8-3.4-2.9-5.7-3.3c-0.4-0.1-0.7-0.1-1.1-0.1c-0.1,0-0.1,0-0.2,0
		H9.3C9,0.1,8.6,0.1,8.2,0.2C6.4,0.5,4.9,1.2,3.5,2.4C1.8,3.9,0.7,5.8,0.2,8.1C0.1,8.4,0.1,8.8,0,9.2c0,0.1,0,0.1,0,0.2v1.3
		c0.1,0.4,0.1,0.8,0.2,1.1c0.3,1.8,1.1,3.3,2.2,4.7c1.4,1.6,3.1,2.7,5.1,3.2C8,19.8,8.6,19.9,9.1,20c0,0,0.1,0,0.1,0h1.5
		c0.3,0,0.6-0.1,0.9-0.1c2.3-0.4,4.3-1.5,5.9-3.2c1.2-1.3,2-2.9,2.3-4.7c0.1-0.4,0.1-0.7,0.2-1.1c0-0.1,0-0.1,0-0.2V9.3
		C19.9,9,19.9,8.6,19.8,8.2z M14,17.3c-1.1,0.6-2.2,0.9-3.4,1c-1.6,0.1-3.1-0.2-4.5-1c-0.2-0.1-0.2-0.2-0.2-0.4c0-0.6,0-1.2,0-1.8
		c0-0.6,0.3-1,1-1c1.1,0,2.1,0,3.2,0c1.1,0,2.2,0,3.2,0c0.6,0,0.9,0.3,0.9,0.9c0,0.6,0,1.3,0,1.9C14.2,17.2,14.1,17.2,14,17.3z
		 M15.8,15.9c0-0.4,0-0.9,0-1.3c-0.2-1.2-1.2-2.1-2.4-2.1c-2.3,0-4.6,0-6.8,0c-1.3,0-2.4,1.1-2.4,2.4c0,0.3,0,0.6,0,1
		C1.3,13.2,0.6,8,3.8,4.4c3.3-3.6,9-3.7,12.3,0C19.4,7.9,18.8,13.1,15.8,15.9z"/>
	<path class="st0" d="M10,4.2c-1.8,0-3.3,1.5-3.3,3.3c0,1.8,1.5,3.3,3.3,3.3c1.8,0,3.3-1.5,3.4-3.3C13.3,5.7,11.9,4.2,10,4.2z
		 M10,9.2c-0.9,0-1.7-0.8-1.7-1.7c0-0.9,0.8-1.7,1.7-1.7c0.9,0,1.7,0.7,1.7,1.7C11.7,8.4,10.9,9.2,10,9.2z"/>
</g>
</svg>
