<?xml version="1.0" encoding="UTF-8" standalone="no"?>
<svg width="31px" height="15px" viewBox="0 0 31 15" version="1.1" xmlns="http://www.w3.org/2000/svg" xmlns:xlink="http://www.w3.org/1999/xlink">
    <!-- Generator: Sketch 3.8.3 (29802) - http://www.bohemiancoding.com/sketch -->
    <title>Shape</title>
    <desc>Created with Sketch.</desc>
    <defs></defs>
    <g id="Page-1" stroke="none" stroke-width="1" fill="none" fill-rule="evenodd">
        <g id="van-blue" fill="#85D5EF">
            <path d="M5.73662722,10.9174412 C4.63066513,10.9174412 3.7342502,11.8141947 3.7342502,12.9201568 C3.7342502,14.0267959 4.63066513,14.9235494 5.73662722,14.9235494 C6.84360488,14.9235494 7.74035834,14.0267959 7.74035834,12.9201568 C7.74035834,11.8141947 6.84360488,10.9174412 5.73662722,10.9174412 L5.73662722,10.9174412 Z M30.495012,9.3223101 C30.4174897,8.85582227 29.5610208,8.27186616 29.5610208,8.27186616 C28.5501843,6.17199386 25.1659471,5.8605506 25.1659471,5.8605506 C22.6571362,2.35952217 19.6429071,0.765068107 19.6429071,0.765068107 C16.1029483,-0.518958275 3.18888597,0.415032969 3.18888597,0.415032969 C1.16687448,0.570416072 1.41975287,1.15437218 1.41975287,1.15437218 C0.544326496,3.37069718 0.700048124,11.2285459 0.700048124,11.2285459 C0.816839345,12.823 2.13878056,12.9397912 2.13878056,12.9397912 C2.13878056,12.9397912 2.28976283,12.9408068 2.56701504,12.942838 L2.56701504,12.9198182 C2.56701504,11.1720122 3.98814416,9.74986753 5.73662722,9.74986753 C7.48544881,9.74986753 8.90691645,11.1720122 8.90691645,12.9198182 C8.90691645,12.9418224 8.90522383,12.963488 8.90522383,12.9848151 C12.7251431,13.0102045 18.3246897,13.0423644 22.0186775,13.071139 C22.0166464,13.0210373 22.0149538,12.9709356 22.0149538,12.9194797 C22.0149538,11.1716737 23.4370985,9.749529 25.185243,9.749529 C26.9333875,9.749529 28.3555322,11.1716737 28.3555322,12.9194797 C28.3555322,12.989893 28.3518085,13.0582751 28.3477462,13.1273342 C28.8125414,13.0860341 29.3284539,12.9394527 29.3284539,12.9394527 C30.6111262,12.5118953 30.6893255,11.7332871 30.6893255,11.7332871 L30.495012,9.3223101 L30.495012,9.3223101 Z M25.1855815,10.9174412 C24.0789424,10.9174412 23.1815119,11.8141947 23.1815119,12.9201568 C23.1815119,14.0267959 24.0786039,14.9235494 25.1855815,14.9235494 C26.2915436,14.9235494 27.1882971,14.0267959 27.1882971,12.9201568 C27.1882971,11.8141947 26.2915436,10.9174412 25.1855815,10.9174412 L25.1855815,10.9174412 Z" id="Shape"></path>
        </g>
    </g>
</svg>