<?xml version="1.0" encoding="utf-8"?>
<!-- Generator: Adobe Illustrator 20.0.0, SVG Export Plug-In . SVG Version: 6.00 Build 0)  -->
<svg version="1.1" id="Layer_1" xmlns="http://www.w3.org/2000/svg" xmlns:xlink="http://www.w3.org/1999/xlink" x="0px" y="0px"
	 viewBox="0 0 19 19" style="enable-background:new 0 0 19 19;" width="19" height="19" xml:space="preserve">
<title>info.colors-dark</title>
<desc>Created with Sketch.</desc>
<g id="Page-1">
	<g id="info.colors-dark">
		<path id="Shape" d="M9.5,19c5.3,0,9.5-4.2,9.5-9.5S14.8,0,9.5,0S0,4.2,0,9.5S4.2,19,9.5,19L9.5,19z M8.4,5.2h2.2v5.4H8.4L8.4,5.2
			L8.4,5.2z M9.5,11.5c0.7,0,1.2,0.5,1.2,1.2c0,0.7-0.5,1.2-1.2,1.2c-0.7,0-1.2-0.5-1.2-1.2C8.3,12,8.8,11.5,9.5,11.5L9.5,11.5z"/>
	</g>
</g>
</svg>
