<?xml version="1.0" encoding="UTF-8" standalone="no"?>
<svg width="20px" height="17px" viewBox="0 0 20 17" version="1.1" xmlns="http://www.w3.org/2000/svg" xmlns:xlink="http://www.w3.org/1999/xlink">
    <!-- Generator: Sketch 39.1 (31720) - http://www.bohemiancoding.com/sketch -->
    <title>Shape</title>
    <desc>Created with Sketch.</desc>
    <defs></defs>
    <g id="Page-1" stroke="none" stroke-width="1" fill="none" fill-rule="evenodd">
        <g id="wash.colors-dark" fill="#000000">
            <path d="M18.8617605,0.0614361837 C18.6083138,-0.0764191323 18.332554,0.135900967 18.2449997,0.534192087 L17.5237074,3.82553549 C17.1848891,4.04587488 16.8089634,4.16807349 16.4211535,4.16807349 C15.6794884,4.16807349 14.9720204,3.73274091 14.5289131,3.00413165 C14.3458008,2.70245382 14.0106205,2.70321755 13.8279934,3.00413165 C13.3853712,3.73274091 12.6783882,4.16769163 11.9364806,4.16769163 C11.1945729,4.16769163 10.4875899,3.73274091 10.0449676,3.00413165 C9.86185545,2.70245382 9.52667519,2.70283569 9.343563,3.00413165 C8.9016683,3.73274091 8.19468534,4.16769163 7.4527777,4.16769163 C6.71087006,4.16769163 6.00388709,3.73274091 5.56126483,3.00413165 C5.37839514,2.70283569 5.04297235,2.70283569 4.86010267,3.00413165 C4.41748041,3.73274091 3.71049746,4.16769163 2.9685898,4.16769163 C2.57471662,4.16769163 2.19394021,4.04205616 1.85148398,3.81522498 L1.13261693,0.533810217 C1.04530514,0.135137225 0.76978794,-0.0775647443 0.515856159,0.0610543131 C0.262651975,0.198527758 0.128046302,0.633478465 0.215600623,1.03215146 L3.38671624,15.5039047 C3.45414035,15.8120743 3.6382227,16.0186664 3.84534567,16.0186664 L15.5327561,16.0186664 C15.739879,16.0186664 15.9237188,15.8120743 15.9913855,15.5039047 L19.1622585,1.03253333 C19.2495704,0.633860335 19.1149647,0.198909629 18.8617605,0.0614361837 L18.8617605,0.0614361837 L18.8617605,0.0614361837 Z M15.1869044,14.4908018 L4.19095483,14.4908018 L2.23856624,5.58023127 C2.47746099,5.65087734 2.72144893,5.69555622 2.9693174,5.69555622 C3.81163362,5.69555622 4.60495822,5.28619085 5.21129008,4.55414476 C5.81762194,5.28619085 6.61094656,5.69555622 7.45326276,5.69555622 C8.29582153,5.69555622 9.08890362,5.28619085 9.69475038,4.55414476 C10.3010823,5.28619085 11.0944068,5.69555622 11.9367231,5.69555622 C12.7792818,5.69555622 13.5723639,5.28619085 14.1786957,4.55414476 C14.7855127,5.28619085 15.5788373,5.69555622 16.4211535,5.69555622 C16.6641713,5.69555622 16.9035511,5.65202296 17.1383228,5.58404998 L15.1869044,14.4908018 L15.1869044,14.4908018 L15.1869044,14.4908018 Z" id="Shape"></path>
        </g>
    </g>
</svg>