<svg xmlns="http://www.w3.org/2000/svg" width="14.39" height="12.05" viewBox="0 0 14.39 12.05"><title>wfs-header-wfs</title><path d="M12.67,0h-11A1.73,1.73,0,0,0,0,1.73v8.6a1.73,1.73,0,0,0,1.72,1.73h11a1.73,1.73,0,0,0,1.72-1.73V1.73A1.73,1.73,0,0,0,12.67,0Zm-11,1h11a.72.72,0,0,1,.72.73V3.86H1V1.73A.72.72,0,0,1,1.72,1Zm11,10.05h-11A.72.72,0,0,1,1,10.32V5.86H13.39v4.47A.72.72,0,0,1,12.67,11.05Z" fill="#999"/><rect x="2.44" y="7.98" width="4.04" height="1" fill="#999"/><rect x="10.35" y="7.98" width="1.61" height="1" fill="#999"/></svg>