<svg xmlns="http://www.w3.org/2000/svg" width="15.11" height="14.59" viewBox="0 0 15.11 14.59"><title>wfs-header-call</title><path d="M5.58,2.9l.29,1.39a4,4,0,0,1,5.07,4.16h1.42A5.44,5.44,0,0,0,5.58,2.9Z" fill="#999"/><path d="M11.24,2.91a6.83,6.83,0,0,1,2.51,5.56h1.36A8.27,8.27,0,0,0,5,.21L5.3,1.54A6.83,6.83,0,0,1,11.24,2.91Z" fill="#999"/><path d="M3.73,12.05h0c6.38,5.22,10,.79,10.3.39a5.8,5.8,0,0,0,.57-.87L9.8,9c-1.07-.58-1.06,2.15-3.6.08s.15-2.61-.63-3.55L2.07,1.3A5.8,5.8,0,0,0,1.33,2C1,2.43-2.64,6.82,3.73,12.05ZM4,6c-.45.78-1,2.37,1.25,4.25s3.73,1,4.4.38l2.69,1.46c-1.21,1.06-3.66,2.09-7.62-1.13h0l0,0h0C.72,7.64,1.25,5,2,3.62Z" fill="#999"/></svg>