<?xml version="1.0" encoding="utf-8"?>
<!-- Generator: Adobe Illustrator 22.0.0, SVG Export Plug-In . SVG Version: 6.00 Build 0)  -->
<svg version="1.1" id="Layer_1" xmlns="http://www.w3.org/2000/svg" xmlns:xlink="http://www.w3.org/1999/xlink" x="0px" y="0px"
	 width="16px" height="16px" viewBox="0 0 16 16" style="enable-background:new 0 0 16 16;" xml:space="preserve">
<style type="text/css">
	.st0{fill:#010002;}
</style>
<title>youtube-dark-2</title>
<desc>Created with Sketch.</desc>
<path class="st0" d="M15.9,5c-0.1-1.1-0.7-2.4-2-2.5c-3.6-0.2-8-0.3-11.7,0C1,2.7,0.2,4.1,0.1,5.1C0,7.4,0,8.6,0.1,10.9
	c0.1,1.1,0.9,2.5,2,2.6c3.8,0.2,8.1,0.3,11.7,0c1.1-0.2,1.9-1.6,2-2.6C16,8.6,16,7.2,15.9,5z M6,10.8V5.1L11,8L6,10.8z"/>
</svg>
