<svg xmlns="http://www.w3.org/2000/svg" width="26" height="28.79" viewBox="0 0 26 28.79"><title>calendar-55</title><path d="M24.11 1.69h-3.79v-1a.6.6 0 0 0-1.2 0v1H6.77v-1a.68.68 0 0 0-.7-.7.57.57 0 0 0-.6.6v1H1.79A1.77 1.77 0 0 0 0 3.28v23.71a1.79 1.79 0 0 0 1.79 1.79h22.42A1.85 1.85 0 0 0 26 26.99V3.28a1.77 1.77 0 0 0-1.89-1.59zm.8 18.83H1V3.28c0-.4.4-.6.8-.6h3.68v1.3a.57.57 0 0 0 .6.6.66.66 0 0 0 .7-.6V2.69h12.45v1.3a.57.57 0 0 0 .6.6.64.64 0 0 0 .6-.6v-1.3h3.79c.4 0 .7.2.7.6z" fill="#999"/><path d="M9.46 10.89c-.2 0-.5.1-.6.1l.3-1.2h3.19V8.06H7.87l-1.2 5.08A3.23 3.23 0 0 1 9 12.35a1.92 1.92 0 0 1 1.79 1.69A1.84 1.84 0 0 1 9 15.73a2.05 2.05 0 0 1-1.89-1.2l-1.3 1.1A3.57 3.57 0 0 0 9 17.33a3.51 3.51 0 0 0 3.65-3.44 3.11 3.11 0 0 0-3.19-3zM16.93 10.89c-.2 0-.5.1-.6.1l.4-1.2h3.19V8.06h-4.48l-1.2 5.08a3.48 3.48 0 0 1 2.39-.8 1.92 1.92 0 0 1 1.79 1.69 1.84 1.84 0 0 1-1.79 1.69 2.05 2.05 0 0 1-1.89-1.2l-1.3 1.1a3.57 3.57 0 0 0 3.19 1.69 3.51 3.51 0 0 0 3.69-3.42 3.3 3.3 0 0 0-3.39-3z" fill="#999"/></svg>