<svg xmlns="http://www.w3.org/2000/svg" width="30" height="30" viewBox="0 0 30 30"><title>calendar-circle</title><path d="M20.8 11a.47.47 0 0 0 .5-.5V7.9a.5.5 0 1 0-1 0v2.7a.46.46 0 0 0 .5.4z" fill="#999"/><path d="M15 0a15 15 0 1 0 15 15A15 15 0 0 0 15 0zm0 29a14 14 0 1 1 14-14 14 14 0 0 1-14 14z" fill="#999"/><path d="M9.2 11a.47.47 0 0 0 .5-.5V7.9a.47.47 0 0 0-.5-.5.46.46 0 0 0-.4.5v2.7a.43.43 0 0 0 .4.4zM14 14.3h1.9v1H14zM14 16.5h1.9v1H14zM14 18.4h1.9v1H14zM17.4 14.3h1.9v1h-1.9zM17.4 16.5h1.9v1h-1.9zM17.4 18.4h1.9v1h-1.9zM10.7 16.5h1.7v1h-1.7zM10.7 18.4h1.7v1h-1.7z" fill="#999"/><path d="M22.9 8.8h-1v1.7a1.2 1.2 0 0 1-2.4 0V8.8h-9.1v1.7a1.2 1.2 0 1 1-2.4 0V8.8H6.8a1 1 0 0 0-1 1v11.8a1 1 0 0 0 1 1h13.8l2.5-2.5.7-.8V9.8a.83.83 0 0 0-.9-1zm.2 9.6h-2.6v3.1H6.8v-8.9h16.3z" fill="#999"/></svg>