<svg version="1" id="Layer_1" xmlns="http://www.w3.org/2000/svg" width="20" height="20" viewBox="0 0 20 20"><style>.st0{fill-rule:evenodd;clip-rule:evenodd;fill:#fff}</style><path class="st0" d="M19.2 13.3H2.5l1.2-1.7h12.1c.4 0 .7-.2.8-.6l2.5-7.5c.1-.3 0-.5-.1-.8-.2-.2-.4-.3-.7-.3H3.7L1.4.2C1.1-.1.5-.1.2.2c-.3.3-.3.9 0 1.2l2.3 2.3v6.9L.2 13.7c-.2.3-.2.6-.1.9.1.2.4.4.7.4h18.3c.5 0 .8-.4.8-.8s-.3-.9-.7-.9z"/><circle class="st0" cx="3.3" cy="18.3" r="1.7"/><circle class="st0" cx="16.7" cy="18.3" r="1.7"/></svg>