<svg version="1" id="Layer_1" xmlns="http://www.w3.org/2000/svg" xmlns:xlink="http://www.w3.org/1999/xlink" width="24" height="24" viewBox="0 0 24 24"><style>.st0{clip-path:url(#SVGID_2_)}.st1{clip-path:url(#SVGID_4_)}.st2{clip-path:url(#SVGID_6_)}.st3{clip-path:url(#SVGID_8_)}.st4{clip-path:url(#SVGID_10_)}.st5{clip-path:url(#SVGID_12_)}</style><defs><path id="SVGID_1_" d="M23 16H3l1.5-2H19c.4 0 .8-.3.9-.7l3-9c.2-.3.1-.6-.1-.9-.2-.2-.5-.4-.8-.4H4.4L1.7.3C1.3-.1.7-.1.3.3c-.4.4-.4 1 0 1.4L3 4.4v8.3L.2 16.4c-.2.3-.3.7-.1 1 .2.4.5.6.9.6h22c.6 0 1-.4 1-1s-.4-1-1-1"/></defs><clipPath id="SVGID_2_"><use xlink:href="#SVGID_1_" overflow="visible"/></clipPath><g class="st0"><defs><path id="SVGID_3_" d="M-1225.9-73h1280v3235h-1280z"/></defs><clipPath id="SVGID_4_"><use xlink:href="#SVGID_3_" overflow="visible"/></clipPath><path class="st1" d="M-5-5h34v28H-5z"/></g><g><defs><path id="SVGID_5_" d="M4 20c1.1 0 2 .9 2 2s-.9 2-2 2-2-.9-2-2 .9-2 2-2"/></defs><clipPath id="SVGID_6_"><use xlink:href="#SVGID_5_" overflow="visible"/></clipPath><g class="st2"><defs><path id="SVGID_7_" d="M-1225.9-73h1280v3235h-1280z"/></defs><clipPath id="SVGID_8_"><use xlink:href="#SVGID_7_" overflow="visible"/></clipPath><path class="st3" d="M-3 15h14v14H-3z"/></g></g><g><defs><path id="SVGID_9_" d="M20 20c1.1 0 2 .9 2 2s-.9 2-2 2-2-.9-2-2 .9-2 2-2"/></defs><clipPath id="SVGID_10_"><use xlink:href="#SVGID_9_" overflow="visible"/></clipPath><g class="st4"><defs><path id="SVGID_11_" d="M-1225.9-73h1280v3235h-1280z"/></defs><clipPath id="SVGID_12_"><use xlink:href="#SVGID_11_" overflow="visible"/></clipPath><path class="st5" d="M13 15h14v14H13z"/></g></g></svg>