<svg xmlns="http://www.w3.org/2000/svg" width="29.9" height="19.5" viewBox="0 0 29.9 19.5"><title>coffee</title><path d="M21.7 15.4c.4-.7 1.1-1.8 1.6-2.8a5 5 0 0 0 1.2.2c2.9 0 5.3-2.7 5.3-6A5.8 5.8 0 0 0 25.1.9V0H4.5v7.8A14.45 14.45 0 0 0 6 12.2c.6 1 1.4 2.4 1.8 3.2H0l.3.7a5.87 5.87 0 0 0 5.3 3.4h18.7a5.71 5.71 0 0 0 5.3-3.4l.3-.7zM6.9 11.7a11.4 11.4 0 0 1-1.4-4.1V1H24v.8h.5c2.3 0 4.2 2.2 4.2 4.9s-1.9 4.9-4.3 4.9a6.88 6.88 0 0 1-1.3-.2l-.4-.2-.2.4c-.7 1.2-1.7 3-2.1 3.6H9c-.4-.5-1.4-2.3-2.1-3.5zm17.4 6.7H5.6a5.07 5.07 0 0 1-4-2h26.7a4.55 4.55 0 0 1-4 2z" fill="#999"/><path d="M24.5 10.8a3.81 3.81 0 0 0 3.6-4 3.81 3.81 0 0 0-3.6-4H24v4.9c0 .2-.3 1.3-.6 2.4l-.2.5.6.1c.2 0 .4.1.7.1zm.5-3V3.9a2.86 2.86 0 0 1 2 2.9 2.87 2.87 0 0 1-2.5 3c.3-1.1.5-2 .5-2z" fill="#999"/></svg>