<svg xmlns="http://www.w3.org/2000/svg" width="22" height="22" viewBox="0 0 22 22"><title>Cold Storage</title><g data-name="Layer 2"><g data-name="Layer 4"><path d="M11 0a11 11 0 1 0 11 11A11 11 0 0 0 11 0zm0 20.33A9.33 9.33 0 1 1 20.33 11 9.33 9.33 0 0 1 11 20.33z"/><path d="M11 1.67A9.33 9.33 0 1 0 20.33 11 9.33 9.33 0 0 0 11 1.67zm7.3 13.54l-1 .65-1.88-1.08-.28 2-1-.61-.77-2.62-1.2-.69v1.38l1.88 2v1.21l-1.88-.77v2.17l-1.17.58-1.08-.57v-2.18L8 17.45v-1.21l1.88-2v-1.36l-1.2.69-.77 2.62-1 .61-.28-2-1.89 1.06-1-.65v-1.23l1.8-1.08-1.6-1.25 1-.61 2.65.64L8.83 11l-1.2-.69-2.63.64-1-.61L5.54 9.1 3.66 8V6.77l1-.65 1.96 1.1.28-2 1 .61.77 2.62 1.2.69v-1.4L8 5.76V4.55l1.88.77V3.15L11 2.57l1.08.57v2.18L14 4.55v1.21l-1.88 2v1.36l1.2-.69.77-2.62 1-.61.28 2 1.88-1.08 1 .65V8l-1.79 1.1 1.6 1.25-1 .61-2.65-.64-1.2.69 1.2.69 2.59-.65 1 .61-1.6 1.25L18.34 14z" fill="#0b9bd7"/></g></g></svg>