<svg xmlns="http://www.w3.org/2000/svg" width="16" height="16" viewBox="0 0 52 52"><title>Asset 1</title><g data-name="Layer 2"><path d="M0 0v52h52V0zm17.5 46.5a3 3 0 0 1-3 3h-9a3 3 0 0 1-3-3v-5a3 3 0 0 1 3-3h9a3 3 0 0 1 3 3zm0-12a3 3 0 0 1-3 3h-9a3 3 0 0 1-3-3v-5a3 3 0 0 1 3-3h9a3 3 0 0 1 3 3zm0-12a3 3 0 0 1-3 3h-9a3 3 0 0 1-3-3v-5a3 3 0 0 1 3-3h9a3 3 0 0 1 3 3zm16 24a3 3 0 0 1-3 3h-9a3 3 0 0 1-3-3v-5a3 3 0 0 1 3-3h9a3 3 0 0 1 3 3zm0-12a3 3 0 0 1-3 3h-9a3 3 0 0 1-3-3v-5a3 3 0 0 1 3-3h9a3 3 0 0 1 3 3zm0-12a3 3 0 0 1-3 3h-9a3 3 0 0 1-3-3v-5a3 3 0 0 1 3-3h9a3 3 0 0 1 3 3zm16 24a3 3 0 0 1-3 3h-9a3 3 0 0 1-3-3v-5a3 3 0 0 1 3-3h9a3 3 0 0 1 3 3zm0-12a3 3 0 0 1-3 3h-9a3 3 0 0 1-3-3v-5a3 3 0 0 1 3-3h9a3 3 0 0 1 3 3zm0-12a3 3 0 0 1-3 3h-9a3 3 0 0 1-3-3v-5a3 3 0 0 1 3-3h9a3 3 0 0 1 3 3z" fill="#333" data-name="Layer 1"/></g></svg>