<svg xmlns="http://www.w3.org/2000/svg" width="16" height="18.39" viewBox="0 0 16 18.39"><title>delivery.colors-grey-blue</title><path fill="#979797" d="M7.95 8.73h1.37l.1-.82H7.84l.11.82zM7.59 5.99h2.08l.11-.82H7.49l.1.82zM7.76 7.36H9.5l.11-.82H7.66l.1.82zM6.95 5.17H5.36l.22.82h1.47l-.1-.82zM7.12 6.54h-1.4l.23.82h1.27l-.1-.82zM6.11 7.91l.22.82h1.08l-.11-.82H6.11zM9.86 8.73h1.07l.21-.82H9.96l-.1.82z"/><path d="M0 0v14.32h16V0zm6.33 11.89a.89.89 0 1 1 .85-.89.87.87 0 0 1-.85.89zm4.47 0a.89.89 0 1 1 .86-.89.87.87 0 0 1-.86.89zm1.64-7V5l-1.06 4.08a.26.26 0 0 1-.25.21h-5a.26.26 0 0 1-.25-.21L4.32 3.39 3.92 3H3a.27.27 0 0 1 0-.55h1a.25.25 0 0 1 .18.08l.53.55a.56.56 0 0 1 .07.12l.42 1.42h7.1s0 0 0 .05a.09.09 0 0 1 0 .05z" fill="#979797"/><path fill="#979797" d="M10.21 5.99h1.42l.21-.82h-1.52l-.11.82zM10.03 7.36h1.25l.21-.82h-1.36l-.1.82zM5.79 14.45h5.26l-2.63 3.94-2.63-3.94z"/></svg>