<svg xmlns="http://www.w3.org/2000/svg" width="22.2" height="28.9" viewBox="0 0 22.2 28.9"><title>fuel-plus-one</title><path d="M15.2 3.1a.9.9 0 0 0-.9-.9h-10a.9.9 0 0 0-.9.9v6.3a.9.9 0 0 0 .9.9h10a.9.9 0 0 0 .9-.9zm-.7 6.3a.1.1 0 0 1-.1.1h-10a.1.1 0 0 1-.1-.1V3.1c-.1 0-.1-.1 0-.1h10a.1.1 0 0 1 .1.1v6.3z" fill="#999"/><path d="M20.6 7.6a4.12 4.12 0 0 0-2.9-3.3v1.1a2.88 2.88 0 0 1 1.8 2.2A1.34 1.34 0 0 0 18.2 9v3a1.26 1.26 0 0 0 1.3 1.3h.2v5a3.75 3.75 0 0 1-2.8 3.5V1.5A1.34 1.34 0 0 0 15.5 0H2.7a1.47 1.47 0 0 0-1.5 1.5v23.9a1.8 1.8 0 0 0 .6 3.5h14.8a1.77 1.77 0 0 0 1.7-1.8 1.74 1.74 0 0 0-1.2-1.7v-2.6a4.8 4.8 0 0 0 3.8-4.5v-4.9a1.41 1.41 0 0 0 1.3-1.4V9a1.7 1.7 0 0 0-1.6-1.4zm-3.4 19.5a.77.77 0 0 1-.7.8H1.7a.86.86 0 0 1-.8-.8 1 1 0 0 1 .7-.8h.5V1.5c.1-.2.3-.5.6-.5h12.8a.52.52 0 0 1 .5.5v24.8h.5a.77.77 0 0 1 .7.8zm4-15.2a.58.58 0 0 1-.6.6h-1a.58.58 0 0 1-.6-.6v-3a.58.58 0 0 1 .6-.6h1a.58.58 0 0 1 .6.6z" fill="#999"/><path fill="#999" d="M6.2 12.6h-.8v1.2H3.9v.8h1.5v1.2h.8v-1.2h1.2v-.8H6.2v-1.2zM7.9 12.6h.8v3.2h1v-4H7.9v.8zM13.4 13.8a.94.94 0 0 0-1 1 1 1 0 0 0 1 1 1 1 0 0 0 0-2zm0 1.4a.46.46 0 0 1-.5-.4c0-.3.2-.4.5-.4s.5.1.5.4a.46.46 0 0 1-.5.4zM12.1 12.6a1.08 1.08 0 0 0-1-1 .94.94 0 0 0-1 1 1.08 1.08 0 0 0 1 1 1 1 0 0 0 1-1zm-1.5 0c0-.3.2-.4.5-.4s.5.1.5.4a.46.46 0 0 1-.5.4c-.3 0-.5-.1-.5-.4zM13.1 11.5l-2.3 4.3.5.3 2.3-4.4-.5-.2z"/></svg>