<svg xmlns="http://www.w3.org/2000/svg" width="30" height="30" viewBox="0 0 30 30"><title>globe</title><path d="M30 15A15 15 0 0 0 15.1 0H15a15 15 0 0 0 0 30h.1A15 15 0 0 0 30 15zm-28.5.8H5a20.24 20.24 0 0 0 .9 5.4H3a12.66 12.66 0 0 1-1.5-5.4zm26.9-1.6H25a20.6 20.6 0 0 0-1-5.7h2.7a11.8 11.8 0 0 1 1.7 5.7zm-4.8 0h-4.2a54.59 54.59 0 0 0-.4-5.7h3.5a21.34 21.34 0 0 1 1.1 5.7zM15 28.5c-.6 0-1.7-2.1-2.3-5.7h4.6c-.7 3.6-1.7 5.7-2.3 5.7zm-2.6-7.3c-.2-1.6-.3-3.4-.4-5.4h5.8a39.88 39.88 0 0 1-.4 5.4zm-.3-7a46.27 46.27 0 0 1 .4-5.7h5a46.26 46.26 0 0 1 .4 5.7zM15 1.5c.6 0 1.6 1.8 2.3 5.5h-4.5c.6-3.7 1.5-5.5 2.2-5.5zM18.8 7a19.92 19.92 0 0 0-1.4-5A10.77 10.77 0 0 1 22 7zm-6.2-5a18.77 18.77 0 0 0-1.4 5h-3a9.55 9.55 0 0 1 4.4-5zm-1.7 6.5a54.59 54.59 0 0 0-.4 5.7h-4a20.6 20.6 0 0 1 1-5.7zm-6 5.7H1.5a13.88 13.88 0 0 1 1.6-5.7h2.8a21.28 21.28 0 0 0-1 5.7zm1.6 1.6h4.1a32.72 32.72 0 0 0 .4 5.4H7.4a16.91 16.91 0 0 1-.9-5.4zm4.6 7a16.09 16.09 0 0 0 1.5 5.2 10.19 10.19 0 0 1-4.5-5.2zm6.2 5.2a23.44 23.44 0 0 0 1.5-5.2H22a9.36 9.36 0 0 1-4.7 5.2zm1.7-6.8c.2-1.8.3-3.6.4-5.4h4.2a16.77 16.77 0 0 1-1 5.4zm6.1-5.4h3.4a11.39 11.39 0 0 1-1.5 5.4h-2.7a25.75 25.75 0 0 0 .8-5.4zm.8-8.8h-2.3A15.15 15.15 0 0 0 21 2.9 14.93 14.93 0 0 1 25.9 7zM9 2.8A13.38 13.38 0 0 0 6.5 7H4.1A16.57 16.57 0 0 1 9 2.8zm-5 20h2.4A13.66 13.66 0 0 0 9 27.1a13.84 13.84 0 0 1-5-4.3zm17 4.3a18.22 18.22 0 0 0 2.6-4.3H26a13.84 13.84 0 0 1-5 4.3z" fill="#999"/></svg>