<svg xmlns="http://www.w3.org/2000/svg" width="30" height="30" viewBox="370.689 370 60 60"><path fill="#B3B3B3" d="M385.974 375.069c-.414.931-.93 1.862-1.342 2.793l-3.821 8.069h-.62l-5.06-10.966-1.342 10.448h-1.859L373.994 370h.929l5.68 12.414L386.387 370h.826l1.962 15.414h-1.962l-1.239-10.345zM390.827 370.621h7.539v1.655h-5.783v4.448h5.783v1.552h-5.783v5.483h5.886v1.655h-7.642v-14.793zM409.519 380.448l-6.196-6.621v11.586h-1.756v-15.207h.724l11.152 11.896v-11.586h1.653v15.311h-.826l-4.751-5.379zM423.667 385.621c-3.614 0-5.577-2.586-5.577-5.586v-9.414h1.756v9.414c0 1.034.104 1.862.93 2.689.723.828 1.858 1.241 2.892 1.241 1.136 0 2.169-.517 2.995-1.345.723-.828.929-1.758.929-2.896v-9.104h1.756v9.414c0 .103 0 .931-.103 1.448-.621 2.483-2.996 4.139-5.578 4.139zM374.098 401.034h53.184c1.859 0 3.408-1.758 3.408-3.621 0-1.862-1.652-3.621-3.512-3.621h-53.08c-1.859 0-3.408 1.759-3.408 3.621-.001 1.863 1.548 3.621 3.408 3.621zM427.178 422.759h-53.08c-1.859 0-3.408 1.759-3.408 3.62 0 1.862 1.549 3.621 3.408 3.621h53.184c1.859 0 3.408-1.759 3.408-3.621-.001-1.861-1.653-3.62-3.512-3.62zM427.178 408.275h-53.08c-1.859 0-3.408 1.759-3.408 3.621s1.549 3.621 3.408 3.621h53.184c1.859 0 3.408-1.759 3.408-3.621s-1.653-3.621-3.512-3.621z"/></svg>