<svg width="16" height="12" viewBox="0 0 16 12" xmlns="http://www.w3.org/2000/svg"><title>Shape</title><path d="M11.462.153C10.094.153 8.855.688 8 1.604 7.146.688 5.906.153 4.538.153 2.283.153 0 1.688 0 4.62c0 3.051 3.91 5.356 7.576 7.277.13.068.277.102.424.102a.92.92 0 0 0 .424-.102C12.089 9.978 16 7.672 16 4.621 16 1.688 13.717.153 11.462.153M8 10.538c-2.45-1.292-6.4-3.5-6.4-5.917 0-2.148 1.523-3.127 2.938-3.127 1.195 0 2.212.636 2.72 1.7.12.254.415.421.742.421s.621-.167.743-.421c.507-1.065 1.524-1.7 2.72-1.7 1.414 0 2.937.979 2.937 3.128 0 2.417-3.95 4.624-6.4 5.916" fill="#999" fill-rule="evenodd"/></svg>