<svg xmlns="http://www.w3.org/2000/svg" width="16" height="16" viewBox="0 0 16 16"><title>Group</title><path d="M11.6 0H4.4C2 0 0 2 0 4.4v7.2C0 14 2 16 4.4 16h7.2c2.4 0 4.4-2 4.4-4.4V4.4C16 2 14 0 11.6 0zm3 11.6c0 1.7-1.3 3-3 3H4.4c-1.7 0-3-1.3-3-3V4.4c0-1.7 1.3-3 3-3h7.2c1.7 0 3 1.3 3 3v7.2z"/><path d="M8 3.9C5.7 3.9 3.9 5.7 3.9 8s1.8 4.1 4.1 4.1 4.1-1.8 4.1-4.1S10.3 3.9 8 3.9zm0 6.8c-1.5 0-2.7-1.2-2.7-2.7 0-1.5 1.2-2.7 2.7-2.7s2.7 1.2 2.7 2.7c0 1.5-1.2 2.7-2.7 2.7zM12.3 2.7c-.3 0-.5.1-.7.3-.2.2-.3.5-.3.7 0 .3.1.5.3.7.2.2.5.3.7.3.3 0 .5-.1.7-.3.2-.2.3-.5.3-.7 0-.3-.1-.5-.3-.7-.2-.2-.4-.3-.7-.3z"/></svg>