<svg xmlns="http://www.w3.org/2000/svg" width="24.01" height="36.3" viewBox="0 0 24.01 36.3"><title>mouse</title><path d="M17.21 11.1h-1c.1-1 1-1.8 1.8-2.8 1.1-1.1 2.2-2.3 2.2-3.9 0-2.9-1.9-4.4-5.8-4.4-3.3 0-4.3 2.6-5.2 4.8s-1.4 3.4-2.9 3.4a6.83 6.83 0 0 1-5.4-2.9.47.47 0 0 0-.7-.1.47.47 0 0 0-.1.7 7.68 7.68 0 0 0 6.2 3.3c2.3 0 3.1-2 3.9-4s1.6-4.1 4.3-4.1c2.2 0 4.8.4 4.8 3.4 0 1.2-.9 2.2-1.9 3.2a6.26 6.26 0 0 0-2.1 3.4h-.6a6.72 6.72 0 0 0-6.7 6.8v11.6a6.7 6.7 0 0 0 6.6 6.8h2.6a6.87 6.87 0 0 0 6.8-6.8V17.9a6.87 6.87 0 0 0-6.8-6.8zm5.8 6.8v1.2h-5.1a1.87 1.87 0 0 0-1.4-1.9v-5.1h.7a5.87 5.87 0 0 1 5.8 5.8zm-8.4-5.8h.9v5.1a2.17 2.17 0 0 0-1.5 1.9h-5v-1.2a5.7 5.7 0 0 1 5.6-5.8zm2.6 23.3h-2.6a5.7 5.7 0 0 1-5.6-5.8v-9.5h5v1a1.92 1.92 0 0 0 1.9 2 2 2 0 0 0 2-2v-1h5v9.4a5.74 5.74 0 0 1-5.7 5.9z" fill="#999"/></svg>