<svg xmlns="http://www.w3.org/2000/svg" width="20" height="20.421" viewBox="0 0 20 20.42"><title>Nutrition Info Icon</title><g data-name="Layer 2" fill="#6c6d6d"><path d="M15.66 8.13a2.92 2.92 0 0 0 2.34.25c1.18-.38 1.3-1 1.88-2.95a2.59 2.59 0 0 0-1.5-3.15 4 4 0 0 0-2.73.58 4 4 0 0 0-2.73-.58 2.59 2.59 0 0 0-1.5 3.15c.58 2 .69 2.57 1.88 2.95a2.92 2.92 0 0 0 2.36-.25zM13.37 0a2.42 2.42 0 0 0 .45 1.58 3.65 3.65 0 0 0 1.84.6A3.89 3.89 0 0 0 15 .45 2.42 2.42 0 0 0 13.37 0zM1.44 2A2.42 2.42 0 0 0 1 3.6c.11.7 1.17 1.5 1.17 1.5a3.89 3.89 0 0 0 .36-1.84C2.38 2.55 1.44 2 1.44 2zM4.95 4.34a2.42 2.42 0 0 0-1.61.35 3.65 3.65 0 0 0-.71 1.8 3.89 3.89 0 0 0 1.78-.59 2.42 2.42 0 0 0 .54-1.56zM4.95 6.92a2.42 2.42 0 0 0-1.61.35 3.65 3.65 0 0 0-.71 1.8 3.89 3.89 0 0 0 1.78-.59 2.42 2.42 0 0 0 .54-1.56zM4.95 9.51a2.42 2.42 0 0 0-1.61.35 3.65 3.65 0 0 0-.71 1.8 3.89 3.89 0 0 0 1.78-.59 2.42 2.42 0 0 0 .54-1.56zM0 5.27a2.42 2.42 0 0 1 1.61.35 3.65 3.65 0 0 1 .71 1.8 3.89 3.89 0 0 1-1.78-.59A2.42 2.42 0 0 1 0 5.27zM0 7.86a2.42 2.42 0 0 1 1.61.35A3.65 3.65 0 0 1 2.32 10a3.89 3.89 0 0 1-1.78-.58A2.42 2.42 0 0 1 0 7.86zM0 10.45a2.42 2.42 0 0 1 1.61.35 3.65 3.65 0 0 1 .71 1.8A3.89 3.89 0 0 1 .54 12 2.42 2.42 0 0 1 0 10.45zM.8 13.378l18.041-4.442.366 1.486-18.041 4.441zM9.86 15.67l2 3.47h-4l2-3.47m0-2.57l-4.23 7.32h8.46l-4.23-7.33z"/></g></svg>