<svg xmlns="http://www.w3.org/2000/svg" width="28.04" height="27.1" viewBox="0 0 28.04 27.1"><title>phone</title><path d="M26.51 22.61a.48.48 0 0 0-.2-.6l-7-4.5c-.2-.1-.5-.1-.6.1a5.21 5.21 0 0 1-2.8 1.5c-1.3.2-3.7-1.5-4.4-2.2-.8-.6-3-2.6-3-3.9a6.07 6.07 0 0 1 1.1-3.1.63.63 0 0 0 0-.6l-5.7-6.1a.47.47 0 0 0-.6-.1 8.49 8.49 0 0 0-3.3 6.1c-.2 3.9 2.4 8 7.5 12.4s9.7 6.1 13.5 5.3a7.74 7.74 0 0 0 5.5-4.3zm-5.6 3.4c-3.5.8-7.8-.9-12.7-5.1s-7.4-8-7.2-11.6a7.6 7.6 0 0 1 2.5-5.2l5.1 5.5a6.45 6.45 0 0 0-1.1 3.4c0 2 3 4.4 3.4 4.6s3.2 2.7 5.2 2.4a6.85 6.85 0 0 0 3.1-1.5l6.3 4.1a7.7 7.7 0 0 1-4.6 3.4zM11.01 4.91c.2.2.4.5.6.7 2.1-1.4 5.6-.9 8.2 1.3s3.7 5.5 2.7 7.9c.3.2.5.3.8.5 1.2-2.8.1-6.5-2.9-9.1s-6.9-3-9.4-1.3z" fill="#999"/><path d="M22.11 4.31c4.2 3.6 5.9 8.8 4.4 12.6.3.1.6.3.9.4 1.7-4.2-.1-9.8-4.7-13.7s-10.4-4.6-14.3-2.3c.2.3.3.5.5.8 3.5-2.1 9-1.3 13.2 2.2z" fill="#999"/></svg>