<svg xmlns="http://www.w3.org/2000/svg" width="28.1" height="54" viewBox="0 0 28.1 54"><title>phone-feature</title><path d="M28 4.5A4.48 4.48 0 0 0 23.5 0h-19A4.48 4.48 0 0 0 0 4.5v45A4.48 4.48 0 0 0 4.5 54h19.1a4.48 4.48 0 0 0 4.5-4.5v-45zm-1.6 45a2.8 2.8 0 0 1-2.8 2.8H4.5a2.8 2.8 0 0 1-2.8-2.8v-45a2.8 2.8 0 0 1 2.8-2.8h19.1a2.8 2.8 0 0 1 2.8 2.8z" fill="#999"/><path d="M4.5 41.4H24V11H4.5zm1.6-28.8h16.2v27.2H6.1z" fill="#999"/><circle cx="14.2" cy="47.2" r="3" fill="#999"/><path fill="#999" d="M9.3 4.9h1.6v2.8H9.3zM12.6 6.5h6.5v1.2h-6.5z"/></svg>