<svg xmlns="http://www.w3.org/2000/svg" width="16" height="16" viewBox="0 0 16 16"><title>Fill 4</title><path d="M8 0C3.6 0 0 3.6 0 8s3.6 8 8 8 8-3.6 8-8-3.6-8-8-8zm.9 10.7c-.7 0-1.4-.4-1.7-.9 0 0-.4 1.6-.5 1.9-.3 1.1-1.2 2.2-1.2 2.2 0 .1-.2 0-.2 0 0-.1-.2-1.5 0-2.6.1-.6.9-3.7.9-3.7S6 7.1 6 6.5c0-1 .6-1.8 1.3-1.8.6 0 .9.5.9 1 0 .6-.4 1.6-.6 2.4-.1.8.5 1.4 1.2 1.4 1.3 0 2.2-1.7 2.2-3.6 0-1.5-1-2.6-2.9-2.6C6 3.2 4.7 4.8 4.7 6.5c0 .6.2 1 .5 1.3.1.2.1.2.1.4 0 .1-.1.4-.1.5 0 .2-.2.2-.3.2-1-.4-1.4-1.4-1.4-2.6C3.4 4.4 5 2 8.3 2c2.6 0 4.3 1.9 4.3 3.9 0 2.7-1.5 4.8-3.7 4.8z"/></svg>