<svg width="18" height="18" viewBox="0 0 18 18" xmlns="http://www.w3.org/2000/svg"><title>Shape</title><path d="M12.276 9.232a4.735 4.735 0 0 0 1.492-3.464A4.773 4.773 0 0 0 9 1a4.773 4.773 0 0 0-4.768 4.768c0 1.326.539 2.566 1.492 3.464C2.714 10.18 1 12.43 1 15.465V17h16v-1.535c0-3.035-1.715-5.285-4.724-6.233zm4.24 7.283H1.484v-1.05c0-1.528.45-2.826 1.34-3.857.818-.95 2.015-1.653 3.46-2.033l.474-.124-.387-.302a4.259 4.259 0 0 1-1.655-3.381A4.288 4.288 0 0 1 9 1.485a4.288 4.288 0 0 1 4.283 4.283c0 1.33-.603 2.563-1.655 3.381l-.387.302.474.124c1.445.38 2.642 1.083 3.46 2.033.89 1.031 1.34 2.329 1.34 3.857v1.05z" stroke="#979797" fill="#A2A2A2" fill-rule="evenodd"/></svg>