<svg xmlns="http://www.w3.org/2000/svg" width="36" height="36" viewBox="0 0 36 36"><title>rainbow-circle</title><path d="M17.8 11A12.8 12.8 0 0 0 4.9 22.8h.9a12.08 12.08 0 0 1 12.1-11 12 12 0 0 1 12.1 11h.9A13.13 13.13 0 0 0 17.8 11z" fill="#111"/><path d="M17.8 13.9a9.93 9.93 0 0 0-10.1 9h.9a9 9 0 0 1 9.2-8.1 9 9 0 0 1 9.2 8.1h.9a9.85 9.85 0 0 0-10.1-9z" fill="#111"/><path d="M17.8 17a6.88 6.88 0 0 0-6.9 5.8h.9a6.12 6.12 0 0 1 12 0h.9a7 7 0 0 0-6.9-5.8z" fill="#111"/><path d="M18 0a18 18 0 1 0 18 18A18.05 18.05 0 0 0 18 0zm0 35a17 17 0 1 1 17-17 17 17 0 0 1-17 17z" fill="#111"/></svg>