<svg xmlns="http://www.w3.org/2000/svg" width="26.96" height="21.6" viewBox="0 0 26.96 21.6"><title>rewards-plus-one</title><path d="M26.7 2.7a20.3 20.3 0 0 0-5.6-1.1c-1.8 0-4.1.9-6.5 1.8-2.7 1.1-5.5 2.1-8 2.1-3.7 0-5.4-1.1-5.4-1.2-.2.1-.6 0-.8.1s-.4.3-.4.5V17c0 .1.2.3.3.4a9.59 9.59 0 0 0 6.1 2.1c2 0 4.1-1 6.3-2.1 2.6-1.3 5.3-2.6 8.3-2.6 3.5 0 5.1 1.4 5.1 1.4s.4.2.5.1.3-.2.3-.4V3.3a.45.45 0 0 0-.2-.6zM26 14.9a10 10 0 0 0-4.9-1.1H21c-3.1 0-6 1.4-8.5 2.7-2.1 1-4.3 2-6 2a10.11 10.11 0 0 1-5.4-1.7V5.7a14.67 14.67 0 0 0 5.4.9c2.7 0 5.7-1.1 8.4-2.2a20.08 20.08 0 0 1 6.2-1.7 18 18 0 0 1 5 .9v11.3z" fill="#999"/><path d="M.6 3.5a13.21 13.21 0 0 0 5.9 1.4c2 0 4.3-.9 6.7-1.8C15.9 2 18.6 1 21.1 1a14.56 14.56 0 0 1 5.2.8.48.48 0 0 0 .6-.2c.1-.3.1-.6-.2-.7a15.44 15.44 0 0 0-5.6-.9c-2.7 0-5.5 1.1-8.2 2.2C10.6 3.1 8.4 4 6.6 4a11.51 11.51 0 0 1-5.4-1.3.61.61 0 0 0-.8.1c-.1.3-.1.6.2.7zM8.9 13.5l-1.1-3.4h-1l-1 3.4-1.1-3.4H3.5l1.6 5.1h1.3l.9-3.3 1 3.3h1.2l1.7-5.1H9.9l-1 3.4zM19.2 4.1h1v1h-1zM19.2 8.1h1v1h-1zM19.2 12h1v1h-1zM19.2 6.1h1v1h-1zM19.2 10.1h1v1h-1zM15.5 17.4h-.9v1.8h-1.8v.7h1.8v1.5h.9v-1.5h1.8v-.7h-1.8v-1.8zM17.8 17.7h.9v3.7h1v-4.7h-1.9v1zM23.7 16.3l-2.6 5 .6.3 2.6-5.1-.6-.2zM22.6 17.6a1.2 1.2 0 1 0-1.2 1.1 1.2 1.2 0 0 0 1.2-1.1zm-1.7 0a.54.54 0 0 1 .5-.5.47.47 0 0 1 .5.5.5.5 0 0 1-1 0zM24.1 18.9a1.1 1.1 0 1 0 1.2 1.1 1.13 1.13 0 0 0-1.2-1.1zm0 1.6a.47.47 0 0 1-.5-.5.54.54 0 0 1 .5-.5.47.47 0 0 1 .5.5.47.47 0 0 1-.5.5z" fill="#999"/></svg>