<svg xmlns="http://www.w3.org/2000/svg" width="26.94" height="22.6" viewBox="0 0 26.94 22.6"><title>rewards-stash</title><path d="M26.7 6.2a19.2 19.2 0 0 0-5.5-1.1c-1.8 0-4 .9-6.4 1.8C12.1 7.9 9.4 9 7 9a10.2 10.2 0 0 1-5.4-1.1 1.39 1.39 0 0 0-.9 0c-.2.1-.7.2-.7.4v11.8c0 .1.5.3.6.4a9.92 9.92 0 0 0 6.1 2.1c1.9 0 4.1-1 6.3-2.1 2.6-1.3 5.3-2.6 8.1-2.5a7.88 7.88 0 0 1 5 1.4c.1.1.4.2.5.1s.3-.2.3-.4V6.8a.45.45 0 0 0-.2-.6zM6.3 21.6A10 10 0 0 1 1 19.9V9.1a14.48 14.48 0 0 0 5.3.9 14.84 14.84 0 0 0 5-1v11a11.24 11.24 0 0 1-5 1.6zm6-2V8.7c1-.3 1.6-.6 2.3-.8.2-.1.6-.2.8-.3v10.7a25.83 25.83 0 0 0-3.1 1.3zm8.9-2.6h-.3a14.23 14.23 0 0 0-4.5.8V7.2A15.19 15.19 0 0 1 21 6.1a17.24 17.24 0 0 1 5 .9v11.1a11.21 11.21 0 0 0-4.8-1.1z" fill="#999"/><path d="M1.1 7a13 13 0 0 0 5.8 1.4c2 0 4.2-.9 6.6-1.8 2.6-1 5.2-2.1 7.7-2.1a13.62 13.62 0 0 1 5.1.8.48.48 0 0 0 .6-.2.48.48 0 0 0-.2-.6 15.17 15.17 0 0 0-5.5-.9c-2.7 0-5.4 1.1-8.1 2.1a19.38 19.38 0 0 1-6.2 1.7 10.85 10.85 0 0 1-5.3-1.3C1.4 6 1 6 .9 6.3a.66.66 0 0 0 .2.7z" fill="#999"/><path d="M1.1 5.3a13 13 0 0 0 5.8 1.4c2 0 4.2-.9 6.6-1.8 2.6-1 5.2-2.1 7.7-2.1a13.62 13.62 0 0 1 5.1.8.48.48 0 0 0 .6-.2.48.48 0 0 0-.2-.6 15.17 15.17 0 0 0-5.5-.9c-2.7 0-5.4 1.1-8.1 2.1a19.38 19.38 0 0 1-6.2 1.7 10.85 10.85 0 0 1-5.3-1.3c-.2-.1-.6-.1-.7.2a.66.66 0 0 0 .2.7z" fill="#999"/><path d="M1.1 3.3a13 13 0 0 0 5.8 1.4c2 0 4.2-.9 6.6-1.8 2.6-1 5.2-2 7.7-2a13.62 13.62 0 0 1 5.1.8.48.48 0 0 0 .6-.2.48.48 0 0 0-.2-.6 15.17 15.17 0 0 0-5.5-.9c-2.7 0-5.4 1.1-8.1 2.1-2.3.8-4.4 1.6-6.2 1.6a10.85 10.85 0 0 1-5.3-1.3.55.55 0 0 0-.7.3.48.48 0 0 0 .2.6z" fill="#999"/></svg>