<svg version="1" id="Layer_1" xmlns="http://www.w3.org/2000/svg" width="20" height="20" viewBox="0 0 20 20"><style>.st0{fill:#fff}.st1{display:none}.st2,.st3{display:inline;fill:#fff}.st3{fill:#00f}</style><path class="st0" d="M18.5 17.2L14.3 13c1-1.3 1.6-2.9 1.6-4.6 0-4.1-3.3-7.4-7.4-7.4S1.2 4.4 1.2 8.4s3.3 7.4 7.4 7.4c1.6 0 3.1-.5 4.3-1.4l4.2 4.2c.4.4 1 .4 1.4 0s.4-1 0-1.4zM3.2 8.4c0-3 2.4-5.4 5.4-5.4S14 5.4 14 8.4s-2.4 5.4-5.4 5.4-5.4-2.4-5.4-5.4z"/><g class="st1"><path class="st2" d="M10 0C4.5 0 0 4.5 0 10s4.5 10 10 10 10-4.5 10-10S15.5 0 10 0zM6.4 17.1v-2.9h7.4V17c-1.1.6-2.4 1-3.8 1-1.3 0-2.5-.3-3.6-.9zm9.4-1.6v-1.3c0-1.1-.9-2-2-2H6.4c-1.1 0-2 .9-2 2v1.4C2.9 14.2 2 12.2 2 10c0-4.4 3.6-8 8-8s8 3.6 8 8c0 2.1-.8 4.1-2.2 5.5z"/><path class="st2" d="M10 3.9c-2 0-3.6 1.6-3.6 3.6S8 11.1 10 11.1s3.6-1.6 3.6-3.6S12 3.9 10 3.9zm0 5.2c-.9 0-1.6-.7-1.6-1.6s.8-1.6 1.6-1.6 1.6.7 1.6 1.6-.7 1.6-1.6 1.6z"/></g><g class="st1"><path class="st3" d="M2.5 4.3h15.1v2H2.5zM2.5 9h15.1v2H2.5zM2.5 13.7h15.1v2H2.5z"/></g></svg>