<svg xmlns="http://www.w3.org/2000/svg" width="27" height="29.66" viewBox="0 0 27 29.66"><title>shield</title><path d="M25.29 3.46l-.2-.2h-.3a30.6 30.6 0 0 1-6.52-.7A14 14 0 0 1 13.85.15a.49.49 0 0 0-.7 0 12.31 12.31 0 0 1-4.52 2.51 37.1 37.1 0 0 1-6.42.7H2l-.2.1A15.93 15.93 0 0 0 0 11.29c0 5.22 2.31 10 6.72 13.95a32.06 32.06 0 0 0 6.62 4.42h-.1v-.1h.4a22.94 22.94 0 0 0 6.62-4.42C24.69 21.23 27 16.41 27 11.19a14.71 14.71 0 0 0-1.71-7.73zM13.55 28.55C11.94 27.83 1 22.33 1 11.19a16 16 0 0 1 1.51-7 29.21 29.21 0 0 0 6.42-.7 12 12 0 0 0 4.62-2.41 12.24 12.24 0 0 0 4.52 2.41 29.21 29.21 0 0 0 6.42.7 15.14 15.14 0 0 1 1.51 7c.09 11.14-10.85 16.64-12.45 17.36z" fill="#999"/></svg>