<svg xmlns="http://www.w3.org/2000/svg" width="18" height="22" viewBox="0 0 18 21.6"><defs><style>.cls-1{fill:#4c4c4d}</style></defs><title>Asset 1</title><g id="Layer_2" data-name="Layer 2"><g id="Layer_1-2" data-name="Layer 1"><path class="cls-1" d="M4.18 7.49h9.72v1.37H4.18zM4.18 11.66h9.72v1.37H4.18zM4.18 15.84h9.72v1.37H4.18z"/><path class="cls-1" d="M13.82 2.23V1.08a1.08 1.08 0 0 0-2.16 0v1.15h-1.58V1.08a1.08 1.08 0 0 0-2.16 0v1.15H6.34V1.08A1.11 1.11 0 0 0 5.26 0a1.11 1.11 0 0 0-1.08 1.08v1.15H0V21.6h18V2.23zm2.74 17.93H1.44V3.67h2.74v1.15A1.11 1.11 0 0 0 5.26 5.9a1.11 1.11 0 0 0 1.08-1.08V3.67H8v1.15a1.08 1.08 0 1 0 2.16 0V3.67h1.58v1.15a1.08 1.08 0 1 0 2.16 0V3.67h2.66z"/></g></g></svg>