<svg id="Layer_1" xmlns="http://www.w3.org/2000/svg" width="16" height="16" viewBox="0 0 16 16"><style>.st0{fill:#010002}</style><title>Shape</title><path class="st0" d="M15.4 3.4c-.5.2-1.1.4-1.7.5.6-.4 1.1-1 1.3-1.7-.6.3-1.2.6-1.9.7-.6-.6-1.3-1-2.2-1-1.7 0-3 1.4-3 3 0 .2 0 .5.1.7-2.6 0-4.9-1.2-6.4-3-.2.4-.4.9-.4 1.5 0 1.1.5 2 1.3 2.5-.5 0-1-.2-1.4-.4 0 1.5 1 2.7 2.4 3-.1.1-.4.1-.7.1-.2 0-.4 0-.6-.1.4 1.2 1.5 2.1 2.8 2.1-1 .8-2.3 1.3-3.8 1.3-.2 0-.5 0-.7 0 1.5.9 3 1.4 4.8 1.4 5.6 0 8.6-4.6 8.6-8.6V5c.6-.4 1.1-1 1.5-1.6z"/></svg>