<svg version="1" id="Layer_1" xmlns="http://www.w3.org/2000/svg" width="20" height="20" viewBox="0 0 20 20"><style>.st0{fill-rule:evenodd;clip-rule:evenodd;fill:#fff}</style><path class="st0" d="M19.8 8.2c-.3-1.8-1.1-3.3-2.2-4.7C16.1 1.7 14.2.6 11.9.2c-.4-.1-.7-.1-1.1-.1-.1 0-.1 0-.2 0H9.3c-.3 0-.7 0-1.1.1-1.8.3-3.3 1-4.7 2.2C1.8 3.9.7 5.8.2 8.1c-.1.3-.1.7-.2 1.1 0 .1 0 .1 0 .2v1.3c.1.4.1.8.2 1.1.3 1.8 1.1 3.3 2.2 4.7 1.4 1.6 3.1 2.7 5.1 3.2.5.1 1.1.2 1.6.3 0 0 .1 0 .1 0h1.5c.3 0 .6-.1.9-.1 2.3-.4 4.3-1.5 5.9-3.2 1.2-1.3 2-2.9 2.3-4.7.1-.4.1-.7.2-1.1 0-.1 0-.1 0-.2V9.3c-.1-.3-.1-.7-.2-1.1zM14 17.3c-1.1.6-2.2.9-3.4 1-1.6.1-3.1-.2-4.5-1-.2-.1-.2-.2-.2-.4 0-.6 0-1.2 0-1.8 0-.6.3-1 1-1 1.1 0 2.1 0 3.2 0s2.2 0 3.2 0c.6 0 .9.3.9.9 0 .6 0 1.3 0 1.9 0 .3-.1.3-.2.4zm1.8-1.4c0-.4 0-.9 0-1.3-.2-1.2-1.2-2.1-2.4-2.1-2.3 0-4.6 0-6.8 0-1.3 0-2.4 1.1-2.4 2.4 0 .3 0 .6 0 1C1.3 13.2.6 8 3.8 4.4c3.3-3.6 9-3.7 12.3 0 3.3 3.5 2.7 8.7-.3 11.5z"/><path class="st0" d="M10 4.2c-1.8 0-3.3 1.5-3.3 3.3 0 1.8 1.5 3.3 3.3 3.3 1.8 0 3.3-1.5 3.4-3.3-.1-1.8-1.5-3.3-3.4-3.3zm0 5c-.9 0-1.7-.8-1.7-1.7 0-.9.8-1.7 1.7-1.7.9 0 1.7.7 1.7 1.7 0 .9-.8 1.7-1.7 1.7z"/></svg>