<svg width="31" height="15" viewBox="0 0 31 15" xmlns="http://www.w3.org/2000/svg"><title>Shape</title><path d="M5.737 10.917a2.003 2.003 0 1 0 0 4.006 2.003 2.003 0 0 0 0-4.006zm24.758-1.595c-.078-.466-.934-1.05-.934-1.05-1.01-2.1-4.395-2.411-4.395-2.411C22.657 2.36 19.643.765 19.643.765 16.103-.519 3.189.415 3.189.415c-2.022.155-1.77.74-1.77.74C.545 3.37.7 11.228.7 11.228c.117 1.594 1.439 1.71 1.439 1.71s.15.002.428.004v-.023a3.173 3.173 0 0 1 3.17-3.17 3.173 3.173 0 0 1 3.17 3.17c0 .022-.002.043-.002.065 3.82.025 9.42.057 13.114.086-.002-.05-.004-.1-.004-.152a3.174 3.174 0 0 1 3.17-3.17 3.174 3.174 0 0 1 3.163 3.378c.465-.041.98-.188.98-.188 1.283-.427 1.361-1.206 1.361-1.206l-.194-2.41zm-5.31 1.595a2.004 2.004 0 1 0 0 4.008 2.004 2.004 0 0 0 0-4.008z" fill="#85D5EF" fill-rule="evenodd"/></svg>