<svg width="20" height="17" viewBox="0 0 20 17" xmlns="http://www.w3.org/2000/svg"><title>Shape</title><path d="M18.862.061c-.254-.137-.53.075-.617.473l-.721 3.292c-.34.22-.715.342-1.103.342-.742 0-1.449-.435-1.892-1.164-.183-.302-.518-.3-.701 0-.443.729-1.15 1.164-1.892 1.164-.741 0-1.448-.435-1.891-1.164-.183-.302-.518-.301-.701 0-.442.729-1.15 1.164-1.891 1.164-.742 0-1.45-.435-1.892-1.164-.183-.301-.518-.301-.7 0-.444.729-1.15 1.164-1.892 1.164-.394 0-.775-.126-1.118-.353L1.133.534C1.045.135.77-.078.516.06.263.2.128.633.216 1.032l3.17 14.472c.068.308.252.515.46.515h11.687c.207 0 .39-.207.458-.515l3.171-14.471c.088-.4-.047-.834-.3-.972zm-3.675 14.43H4.19L2.239 5.58c.238.07.482.115.73.115.843 0 1.636-.41 2.242-1.142.607.732 1.4 1.142 2.242 1.142.843 0 1.636-.41 2.242-1.142.606.732 1.4 1.142 2.242 1.142.842 0 1.635-.41 2.242-1.142.607.732 1.4 1.142 2.242 1.142.243 0 .483-.044.717-.112l-1.951 8.907z" fill="#000" fill-rule="evenodd"/></svg>