<?xml version="1.0" standalone="no"?>
<!DOCTYPE svg PUBLIC "-//W3C//DTD SVG 1.1//EN" "http://www.w3.org/Graphics/SVG/1.1/DTD/svg11.dtd" >
<svg xmlns="http://www.w3.org/2000/svg">
<metadata></metadata>
<defs>
<font id="wfuturasemibold" horiz-adv-x="1314" >
<font-face units-per-em="2048" ascent="1565" descent="-483" />
<missing-glyph horiz-adv-x="555" />
<glyph horiz-adv-x="2048" />
<glyph horiz-adv-x="2048" />
<glyph unicode="&#xd;" horiz-adv-x="2048" />
<glyph unicode=" "  horiz-adv-x="555" />
<glyph unicode="&#x09;" horiz-adv-x="555" />
<glyph unicode="&#xa0;" horiz-adv-x="555" />
<glyph unicode="!" horiz-adv-x="555" d="M102 145q0 68 52.5 115t124.5 47t123 -49t49 -115q0 -68 -51.5 -114.5t-123.5 -46.5q-73 0 -123.5 47.5t-50.5 115.5zM131 430v1016h301v-1016h-301z" />
<glyph unicode="&#x22;" horiz-adv-x="823" d="M66 1360q-6 49 0 74q13 49 59.5 74.5t99.5 25.5q74 0 118 -46t32 -108l-90 -491h-133zM451 1360q-6 49 0 74q14 48 59 74t98 26q77 0 119.5 -45t30.5 -109l-88 -491h-133z" />
<glyph unicode="#" horiz-adv-x="1419" d="M61 438v242h314l18 113h-284v241h319l64 410h264l-64 -410h125l66 410h260l-62 -410h277v-241h-311l-19 -113h279v-242h-316l-67 -438h-262l67 438h-127l-67 -438h-269l72 438h-277zM637 680h129l16 113h-127z" />
<glyph unicode="$" d="M61 152l99 243q71 -43 94 -55q101 -55 209 -86q68 -18 125 -25l-4 396q-91 12 -140 22q-52 11 -110 35q-230 100 -230 346q0 176 105 293q91 101 242 137q20 6 129 21v204h157l-2 -204q150 -16 235 -35t154 -47l-71 -256q-58 30 -121.5 47t-194.5 33v-342q82 -8 140 -17 q157 -27 234 -86t112 -147q30 -72 30 -174q0 -97 -26 -164q-24 -64 -66 -117.5t-89 -85.5t-80 -49.5t-60 -26.5q-31 -11 -82 -22q-19 -3 -107 -17v-221h-153v219q-99 8 -162 19q-95 19 -176.5 57t-190.5 105zM393 1059q0 -22 19 -60q23 -43 61.5 -62.5t112.5 -37.5l-4 320 q-122 -17 -166 -86q-1 -2 -6 -11t-7 -16q-10 -30 -10 -47zM739 236q42 11 65 18t52 19.5t48.5 30t33.5 42.5q0 1 5 11t8.5 18.5t6.5 23t3 27.5q0 20 -9 47q-1 3 -12 25q-33 63 -125 88q-6 1 -74 16v-366h-2z" />
<glyph unicode="%" horiz-adv-x="1671" d="M61 1133q0 138 106 236.5t255 98.5q150 0 255 -98t105 -237q0 -135 -105.5 -234.5t-254.5 -99.5q-150 0 -255.5 98.5t-105.5 235.5zM264 1130q0 -60 46 -102.5t112 -42.5t111 43t45 105q0 72 -47.5 110.5t-110.5 36.5q-61 0 -108.5 -40t-47.5 -110zM330 4l809 1530 l170 -82l-805 -1536zM889 387q0 138 105.5 236t254.5 98q150 0 255.5 -98t105.5 -236q0 -136 -105.5 -235t-255.5 -99t-255 98t-105 236zM1092 385q0 -60 45.5 -102.5t111.5 -42.5t111 42.5t45 104.5q0 71 -47.5 109.5t-110.5 38.5q-62 -2 -108.5 -41t-46.5 -109z" />
<glyph unicode="&#x26;" horiz-adv-x="1531" d="M61 414q0 70 24 131.5t70 112t96.5 89t119.5 78.5q-58 70 -88.5 134.5t-30.5 144.5q0 99 56.5 177t143.5 118.5t185 40.5q102 0 191.5 -40t145.5 -116.5t56 -173.5q0 -104 -61.5 -182.5t-169.5 -153.5l192 -223l174 172l191 -205l-178 -178l292 -340h-376l-131 145 q-103 -85 -197.5 -127.5t-218.5 -42.5q-163 0 -287 88q-84 61 -141.5 156.5t-57.5 194.5zM362 408q0 -67 63.5 -116.5t137.5 -49.5q54 0 104 28.5t109 81.5l-225 264q-37 -20 -64.5 -38t-59 -44.5t-48.5 -58.5t-17 -67zM549 1114q0 -52 69 -125l9 -10l14 10q30 22 47.5 36 t36 40.5t18.5 50.5q0 33 -29 55.5t-77 22.5q-45 0 -66.5 -26.5t-21.5 -53.5z" />
<glyph unicode="'" horiz-adv-x="440" d="M66 1360q-6 49 0 74q13 49 59.5 74.5t99.5 25.5q74 0 118 -46t32 -108l-90 -491h-133z" />
<glyph unicode="(" horiz-adv-x="516" d="M61 502q0 383 115 807l33 127h246q-41 -135 -54.5 -183t-31.5 -132.5t-39 -219.5q-3 -17 -9.5 -60.5t-8.5 -55t-7.5 -55.5t-5.5 -60.5t-3.5 -69.5t-1.5 -84t1 -104q3 -175 11.5 -254t43.5 -230l84 -350h-239q-65 264 -99.5 483.5t-34.5 440.5z" />
<glyph unicode=")" horiz-adv-x="516" d="M61 1436h248l33 -127q113 -429 113 -807q0 -223 -34 -444.5t-97 -479.5h-240l84 350q35 151 43.5 230t11.5 254q-1 73 1 104t-1.5 84t-3.5 69.5t-5.5 60.5t-7.5 55.5t-8.5 55t-9.5 60.5q-7 46 -13 82t-13 71.5t-11 56.5t-12.5 55t-11 46t-14 50.5t-14.5 48.5t-18 59.5 t-20 65.5z" />
<glyph unicode="*" horiz-adv-x="776" d="M61 1202l72 135l193 -133l-7 242h150l-14 -238l184 133l76 -127l-201 -127l201 -118l-72 -129l-182 123l6 -242h-152l11 244l-185 -138l-78 129l207 131z" />
<glyph unicode="+" horiz-adv-x="1415" d="M61 473v244h510v471h265v-471h518v-244h-516v-473h-265v473h-512z" />
<glyph unicode="," horiz-adv-x="702" d="M20 -297l297 571h324l-350 -571h-271z" />
<glyph unicode="-" horiz-adv-x="790" d="M61 408v264h668v-264h-668z" />
<glyph unicode="." horiz-adv-x="475" d="M61 137q0 73 53 124.5t124 51.5q73 0 124.5 -52t51.5 -124q0 -73 -52 -124.5t-124 -51.5q-74 0 -125 51q-52 59 -52 125z" />
<glyph unicode="/" horiz-adv-x="870" d="M61 0l586 1446h162l-586 -1446h-162z" />
<glyph unicode="0" horiz-adv-x="1232" d="M61 723q0 55 7 127q9 89 33.5 174t69.5 166t105.5 141.5t148 97.5t189.5 37q252 0 408 -200q149 -190 149 -494q0 -301 -106 -500q-16 -29 -33 -55.5t-59.5 -75t-89.5 -82t-120.5 -60t-154.5 -26.5q-170 0 -309 113q-238 198 -238 637zM356.5 684q0.5 -120 32 -231.5 t90.5 -165.5q69 -54 129 -54q71 0 135 64q57 57 93 172t36 289q0 236 -86 354q-72 98 -173 91.5t-167 -105.5q-43 -64 -66.5 -179t-23 -235z" />
<glyph unicode="1" horiz-adv-x="794" d="M102 1165v279h590v-1444h-307v1165h-283z" />
<glyph unicode="2" horiz-adv-x="1218" d="M51 0l398 451l194 221q79 92 170 229q23 38 29 61.5t6 67.5q0 69 -60.5 119.5t-134.5 50.5q-34 0 -61.5 -7.5t-46.5 -18t-35 -31t-25 -36t-18 -45t-12.5 -45t-10.5 -48.5h-297q6 58 9 84.5t14.5 72.5t28.5 80q61 126 188 194t275 68q136 0 247.5 -53t178.5 -155.5 t67 -235.5q0 -43 -9 -86t-21 -78t-37.5 -78.5t-43.5 -71t-54 -72t-54.5 -65.5t-60 -67.5t-56.5 -63.5l-153 -172h501v-270h-1116z" />
<glyph unicode="3" horiz-adv-x="1110" d="M51 442l299 4q22 -92 33 -112q22 -41 66 -64.5t100 -23.5q92 0 150.5 52.5t58.5 139.5q0 63 -34 110.5t-95 67.5q-21 8 -49.5 11.5t-116.5 7.5l2 250q9 0 45 1t59.5 2.5t44.5 6.5q54 12 83.5 49.5t29.5 93.5q0 69 -47.5 114.5t-122.5 45.5q-83 0 -122.5 -50t-55.5 -136 h-301q11 124 38.5 196t96.5 133q59 53 134 84.5t152 37.5t155 -6t145 -47t119.5 -84.5t83 -121t30.5 -153.5q0 -175 -133 -293q80 -50 120 -136.5t40 -185.5q0 -198 -142 -329.5t-362 -131.5q-149 0 -268.5 57t-180.5 177q-25 46 -36.5 93.5t-18.5 139.5z" />
<glyph unicode="4" horiz-adv-x="1230" d="M51 283l799 1161h172l-2 -907h160v-252h-166v-285h-279v283h-684zM508 532h219v324z" />
<glyph unicode="5" horiz-adv-x="1183" d="M51 246l207 176q25 -37 38.5 -54.5t42.5 -47.5t55.5 -45t68.5 -27t90 -12q112 0 198.5 78.5t86.5 185.5q0 101 -82.5 182.5t-190.5 81.5q-216 0 -364 -123l186 803h700v-262h-491l-53 -193q1 0 34 8.5t56 8.5q213 0 356.5 -142t143.5 -346q0 -148 -76.5 -272t-208.5 -195 t-291 -71q-180 0 -298 67.5t-208 198.5z" />
<glyph unicode="6" horiz-adv-x="1175" d="M51 465q0 145 78 301q82 162 215 354t250 320h393q-168 -177 -244 -283l-170 -233q65 22 166 -1t170 -67q55 -35 96 -80.5t63 -87t35.5 -87t17 -75.5t3.5 -57q0 -135 -71.5 -249t-195 -180.5t-269.5 -66.5q-141 0 -264.5 65.5t-198 179.5t-74.5 247zM352 473 q0 -88 69.5 -151.5t164.5 -63.5q60 0 111.5 26t80.5 67t40 93t-11 103q-25 66 -84.5 106.5t-130.5 40.5q-97 0 -168.5 -65.5t-71.5 -155.5z" />
<glyph unicode="7" horiz-adv-x="1173" d="M51 1171v273h1123l-662 -1444h-371l531 1171h-621z" />
<glyph unicode="8" horiz-adv-x="1081" d="M51 438q0 201 166 322q-25 20 -29 24q-104 104 -104 256q0 174 138 302.5t329 127.5q127 -1 233 -57t168 -154.5t62 -218.5q0 -191 -146 -288q78 -49 120 -136.5t42 -181.5q0 -189 -139.5 -319.5t-345.5 -130.5q-135 0 -247.5 57t-179.5 161.5t-67 235.5zM354 381 q17 -58 68.5 -93.5t116.5 -35.5q80 0 138 54t58 130q0 77 -56 129.5t-138 52.5q-103 0 -159 -73t-28 -164zM375.5 1022q3.5 -47 34.5 -86q23 -29 58 -45.5t71 -16.5q72 0 129 48.5t57 115.5t-52 114.5t-120 47.5q-54 0 -97 -26.5t-63.5 -65.5t-17 -86z" />
<glyph unicode="9" horiz-adv-x="1175" d="M51 971q0 135 72 249t195.5 180t269.5 66q141 0 264.5 -65.5t197.5 -179t74 -246.5q0 -147 -77 -301q-82 -162 -215 -354t-250 -320h-392h-2q168 177 244 283l170 233q-65 -22 -166 1t-170 67q-55 35 -96 80.5t-63 87t-35.5 87t-17 75.5t-3.5 57zM358 996 q-11 -52 11 -103q25 -66 84.5 -107t130.5 -41q97 0 168 65.5t71 156.5q0 88 -69 151.5t-164 63.5q-60 0 -111.5 -26t-80.5 -67t-40 -93z" />
<glyph unicode=":" horiz-adv-x="485" d="M61 147q0 69 53 117.5t128 48.5q76 0 129 -50.5t51 -119.5t-54.5 -117.5t-127.5 -48.5q-76 0 -127.5 50t-51.5 120zM61 801q0 69 53 117.5t128 48.5t128.5 -49t51.5 -117q-2 -71 -54.5 -119.5t-127.5 -48.5q-74 0 -126.5 50t-52.5 118z" />
<glyph unicode=";" horiz-adv-x="765" d="M61 -297l297 571h324l-350 -571h-271zM344 788q0 69 53.5 119t128.5 49q73 0 126 -51t53 -119q0 -71 -54.5 -120.5t-128.5 -49.5q-76 0 -127 50.5t-51 121.5z" />
<glyph unicode="&#x3c;" horiz-adv-x="1413" d="M61 612v222l1291 649v-271l-1014 -489l1014 -490v-270z" />
<glyph unicode="=" horiz-adv-x="1427" d="M61 530h1305v-219h-1303zM61 662v221h1305v-221h-1305z" />
<glyph unicode="&#x3e;" horiz-adv-x="1413" d="M61 -37v270l1014 490l-1014 489v271l1291 -649v-222z" />
<glyph unicode="?" horiz-adv-x="1013" d="M61 1069q20 222 183 332q115 76 282 76q192 0 309 -113.5t117 -308.5q0 -30 -4.5 -64.5t-18 -88t-47 -104t-83.5 -83.5q-20 -13 -50.5 -32t-43.5 -28t-32.5 -25t-27.5 -29.5t-17.5 -35t-13 -48.5t-4.5 -64h-276v86q0 168 139 262q12 8 41 27.5t41.5 28.5t35 27.5 t33.5 33.5t23.5 36.5t17.5 46.5t5 54q0 73 -41.5 120.5t-114.5 47.5q-68 0 -111.5 -43t-48.5 -111h-293zM303 158q0 72 50.5 123t121.5 51t121.5 -51t50.5 -123t-50.5 -123t-121.5 -51t-121.5 51t-50.5 123z" />
<glyph unicode="@" horiz-adv-x="1904" d="M61 469q0 181 70.5 346t190 284.5t284.5 190t346 70.5q243 0 448 -119.5t324 -324.5t119 -447q0 -145 -44 -254t-122 -174q-92 -76 -204.5 -50.5t-174.5 136.5q-28 -28 -65 -57q-121 -90 -275 -90q-88 0 -171.5 28.5t-147.5 81.5q-52 44 -88 101t-50 114t-19 94t-5 70 q0 40 6 84t34 117t75 129q21 24 50 48t75 52.5t108.5 46t130.5 17.5q188 0 318 -117v98h153v-676q0 -70 35.5 -104.5t85 -21.5t86.5 67q62 91 62 260q0 202 -100 373t-271 270.5t-373 99.5q-151 0 -288.5 -59t-236.5 -158.5t-157.5 -237t-58.5 -288.5t58.5 -288.5 t157.5 -237t236.5 -158.5t288.5 -59q264 0 496 188l90 -117q-270 -219 -586 -219q-181 0 -346 70.5t-284.5 190t-190 284.5t-70.5 346zM637 483q-2 -34 2 -68t18.5 -81t53 -90t96.5 -72q77 -37 154 -37q31 0 65.5 5.5t87 30.5t88.5 67q37 45 57.5 110.5t20.5 134.5 q0 198 -160 281q-81 39 -166 39q-135 0 -221.5 -90t-95.5 -230z" />
<glyph unicode="A" horiz-adv-x="1374" d="M20 0l568 1444h217l528 -1444h-299l-106 328h-490l-114 -328h-304zM530 596h312l-148 471z" />
<glyph unicode="B" horiz-adv-x="1122" d="M102 0v1444h377q226 0 350.5 -100.5t124.5 -309.5q0 -72 -26.5 -140.5t-77.5 -113.5q103 -42 157 -137.5t54 -208.5q0 -178 -113.5 -292.5t-298.5 -133.5q-70 -8 -282 -8h-265zM408 266h129q102 0 158.5 35t56.5 125q0 83 -59 123.5t-146 40.5h-139v-324zM408 852h34 q38 0 66 3t58 12.5t49 26.5t31.5 47.5t12.5 72.5q0 41 -15 70.5t-36.5 44.5t-58 23.5t-66.5 10.5t-75 2v-313z" />
<glyph unicode="C" horiz-adv-x="1359" d="M51 723q0 140 49.5 270t143.5 228q112 115 276 182t330 67q110 0 216.5 -29.5t190.5 -84.5v-340q-190 168 -407 168q-115 0 -222 -47.5t-173 -128.5q-95 -117 -95 -287q0 -195 139 -327t351 -132q196 0 407 168v-336q-104 -56 -199 -85t-210 -29q-167 0 -314.5 56.5 t-253.5 154t-167.5 236t-61.5 296.5z" />
<glyph unicode="D" horiz-adv-x="1370" d="M102 0v1444h124h103.5h76.5t69 -0.5t52.5 -1.5t56 -2.5t49.5 -3t61 -4.5q98 -17 147.5 -31t100.5 -39q183 -88 280 -255.5t97 -365.5q0 -135 -48.5 -265t-145.5 -237.5t-226 -162.5q-174 -76 -397 -76h-400zM406 272h27q53 0 95 3q53 4 112 16t105.5 34.5t92.5 60.5 t82 91q29 40 55 109.5t26 154.5q0 182 -108.5 292t-292.5 124q-44 4 -194 4v-889z" />
<glyph unicode="E" horiz-adv-x="1095" d="M102 0v1444h891v-283h-581v-235h530v-277h-532v-368h575v-281h-883z" />
<glyph unicode="F" horiz-adv-x="972" d="M102 0v1444h809v-283h-499v-237h462v-275h-464v-649h-308z" />
<glyph unicode="G" horiz-adv-x="1624" d="M51 715q0 155 61 294.5t165.5 240.5t253 160.5t315.5 59.5q319 0 567 -221q33 -27 86 -94l-201 -201q-66 100 -187 169t-269 69q-131 0 -243 -67t-175.5 -176t-63.5 -232q0 -194 137 -329.5t339 -135.5q135 0 252 76.5t145 195.5h-352v283h692q0 -103 -6.5 -174 t-26 -152.5t-62.5 -154t-110 -142.5q-204 -209 -537 -209q-224 0 -402.5 96t-278 265t-99.5 379z" />
<glyph unicode="H" horiz-adv-x="1374" d="M102 0v1444h310v-565h546v565h314v-1444h-311v604h-551v-604h-308z" />
<glyph unicode="I" horiz-adv-x="518" d="M102 0v1444h314v-1444h-314z" />
<glyph unicode="J" horiz-adv-x="825" d="M0 76l145 231q66 -59 142 -59q39 0 66 14t40 40t18 54.5t5 65.5v1022h307v-1053q0 -196 -121 -307q-44 -42 -119 -75.5t-180 -33.5q-82 0 -163 26.5t-140 74.5z" />
<glyph unicode="K" horiz-adv-x="1243" d="M102 0v1444h301v-555l428 555h345l-553 -682l600 -762h-365l-455 588v-588h-301z" />
<glyph unicode="L" horiz-adv-x="913" d="M102 0v1444h310v-1168h440v-276h-750z" />
<glyph unicode="M" horiz-adv-x="1828" d="M61 0l320 1444h131l410 -899l424 899h133l288 -1444h-315l-135 741l-338 -741h-137l-318 733q-102 -489 -149 -733h-314z" />
<glyph unicode="N" horiz-adv-x="1517" d="M102 0v1444h162q166 -155 442.5 -442t401.5 -408q-4 70 -4 106v744h311v-1444h-172l-833 868q6 -117 6 -233v-635h-314z" />
<glyph unicode="O" horiz-adv-x="1642" d="M51 702q0 173 62 326q86 214 276.5 334.5t425.5 120.5q93 0 189 -21q254 -57 413 -245q28 -34 54 -75.5t55 -105.5t47 -148t18 -175q0 -167 -61 -314q-60 -146 -169 -245t-244 -145t-294 -46q-286 0 -483 146q-36 27 -69.5 58.5t-75.5 86.5t-72 116t-51 148.5t-21 183.5z M365 719q0 -103 36 -187q54 -132 172.5 -203t266.5 -71q162 0 270 90q81 66 123.5 164.5t42.5 206.5q0 177 -109 307q-19 23 -46 46t-70 50.5t-102 43.5q-56 16 -117 16h-7q-33 0 -70.5 -5t-100.5 -28.5t-113 -63.5q-26 -21 -51.5 -48.5t-56.5 -73t-50 -109.5 q-18 -61 -18 -128v-7z" />
<glyph unicode="P" horiz-adv-x="1097" d="M102 0v1444h308q224 0 356 -33t203 -133q42 -60 65 -139t23 -150q0 -143 -80.5 -262.5t-224.5 -165.5q-94 -31 -232 -31h-114v-530h-304zM408 813h98q87 0 134 14t79 56q35 44 35 102q0 15 -4 35.5t-20 50.5t-42 47q-49 35 -160 35h-120v-340z" />
<glyph unicode="Q" horiz-adv-x="1681" d="M61 727q0 307 185 516q72 79 160 133.5t171.5 77.5t140.5 31t107 8q52 0 110.5 -6.5t159 -38.5t181.5 -86q157 -102 240 -266t83 -355q0 -165 -54.5 -307t-168.5 -244l285 -299h-348l-139 150q-160 -70 -347 -70q-284 0 -483 156q-36 28 -68.5 60t-73.5 88t-70.5 118 t-50 150t-20.5 184zM373 719q0 -189 135 -320q134 -131 328 -131q29 0 45 1.5t34.5 6t26.5 5.5l-272 284h348l151 -159q60 60 91.5 144t31.5 173q0 86 -29.5 171t-84.5 148q-20 23 -48.5 45.5t-72 48t-103.5 41t-125 15.5q-95 0 -182 -37q-131 -57 -202.5 -174t-71.5 -262z " />
<glyph unicode="R" horiz-adv-x="1261" d="M102 0v1444h471q195 0 306 -76q88 -61 134 -154.5t46 -193.5q0 -138 -77.5 -251.5t-213.5 -158.5l453 -610h-371l-444 592v-592h-304zM410 836h110q59 0 108 15.5t83 55t34 97.5q0 43 -19.5 75.5t-52.5 50t-69.5 25.5t-77.5 8h-116v-327z" />
<glyph unicode="S" horiz-adv-x="1140" d="M41 168l149 262q75 -62 174.5 -114t174.5 -52q91 0 154 39.5t63 126.5q0 62 -37 111q-9 10 -20 19.5t-20.5 16t-25.5 14t-25 11t-28 9.5t-26 8t-28.5 7.5t-25.5 6.5q-83 23 -108 29q-128 38 -215.5 132t-87.5 236q0 108 38 203q20 46 53 86.5t86 79.5t134 61.5t180 22.5 q190 0 346 -82q4 -2 86 -53l-112 -244q-61 49 -129 78q-84 37 -150 37q-90 0 -143.5 -48.5t-53.5 -105.5q0 -70 62 -117q9 -5 24.5 -11t37.5 -12.5t30 -9.5q36 -12 109 -32q34 -5 115.5 -39t138.5 -82q26 -21 46 -43t43.5 -58.5t36.5 -88.5t13 -115q0 -195 -115 -330 q-141 -164 -405 -164q-174 0 -320 66q-27 13 -106 59q-73 44 -113 80z" />
<glyph unicode="T" horiz-adv-x="1114" d="M61 1161v285h992v-285h-344v-1161h-306v1161h-342z" />
<glyph unicode="U" horiz-adv-x="1370" d="M102 547v899h310v-850q0 -49 3.5 -85t14.5 -79t35.5 -77t62.5 -58q83 -43 162 -43q84 0 139 33q73 42 97 114.5t24 186.5v858h318v-885q0 -224 -97 -360q-80 -108 -215 -166t-276 -58q-180 0 -333 90.5t-214 249.5q-31 83 -31 230z" />
<glyph unicode="V" horiz-adv-x="1466" d="M20 1446h340q209 -463 377 -893q23 65 64 156q34 72 80.5 188t66.5 160l164 389h334l-635 -1446h-152z" />
<glyph unicode="W" horiz-adv-x="2228" d="M20 1446h353l315 -983l295 983h277l296 -983l304 983h348l-471 -1446h-336l-287 930l-274 -930h-342z" />
<glyph unicode="X" horiz-adv-x="1460" d="M20 0l519 758l-443 686h383l258 -387l267 387h380l-448 -684l504 -760h-410l-295 455l-293 -455h-422z" />
<glyph unicode="Y" horiz-adv-x="1390" d="M20 1444h373l295 -504q17 26 59 92t65 103t58 94t66 109.5t61 105.5h373l-526 -828v-616h-303v616z" />
<glyph unicode="Z" horiz-adv-x="1271" d="M20 0l701 1165h-561v279h1091l-710 -1174h649v-270h-1170z" />
<glyph unicode="[" horiz-adv-x="688" d="M102 -362v1906h525v-170h-314v-1567h314v-169h-525z" />
<glyph unicode="\" horiz-adv-x="796" d="M61 1444h203l471 -1481h-203z" />
<glyph unicode="]" horiz-adv-x="688" d="M61 -193h314v1567h-314v170h525v-1906h-525v169z" />
<glyph unicode="^" horiz-adv-x="1196" d="M61 688l437 756h219l418 -756h-310l-223 414l-231 -414h-310z" />
<glyph unicode="_" horiz-adv-x="1290" d="M61 -281h1168v-161h-1168v161z" />
<glyph unicode="`" horiz-adv-x="630" d="M61 1530h310l198 -383h-241z" />
<glyph unicode="a" horiz-adv-x="1241" d="M41 524q0 101 36 199t101 177t166 128t219 49q83 0 166 -47.5t117 -105.5v131h293v-1055h-293v135q-54 -72 -135 -116t-170 -44q-93 0 -174 31t-140 84.5t-101.5 123.5t-63.5 149t-21 161zM345 441q13 -85 80.5 -145t170.5 -60q129 0 198.5 86.5t69.5 212.5 q0 116 -68 199t-190 83q-98 0 -168 -60q-70 -59 -88 -145q-11 -50 -10 -101q0 -35 5 -70z" />
<glyph unicode="b" horiz-adv-x="1288" d="M102 0v1503h295v-575q41 76 132.5 121t185.5 45q154 0 277 -78t189 -204t66 -273q0 -108 -40 -210t-110 -181t-174.5 -127t-224.5 -48q-88 0 -180.5 51.5t-128.5 110.5v-135h-287zM378 481q4 -50 27.5 -96t57 -81t86 -56t115.5 -21q128 0 209 89t81 214 q0 123 -80.5 214.5t-211.5 91.5q-60 0 -111 -21t-84.5 -56t-57 -81t-29.5 -96q-3 -29 -3 -58q-1 -22 1 -43z" />
<glyph unicode="c" horiz-adv-x="983" d="M41 526q0 153 76.5 280.5t213.5 202t306 74.5q157 0 303 -73v-285q-166 98 -293 98q-131 0 -219 -93.5t-88 -217.5q0 -117 82.5 -195.5t212.5 -78.5q68 0 139 23.5t168 80.5v-287q-175 -82 -319 -82q-164 0 -298.5 75t-209 201.5t-74.5 276.5z" />
<glyph unicode="d" d="M61 539q0 156 67 283.5t193.5 202.5t288.5 75q93 0 188.5 -48.5t123.5 -123.5v575h290v-1503h-297v135q-55 -73 -141.5 -117.5t-181.5 -44.5q-119 0 -220 46.5t-168.5 125t-105 181t-37.5 213.5zM360 446q15 -92 89.5 -155.5t185.5 -63.5q84 0 150 34t99.5 89t49.5 121 q8 34 8 67q0 34 -8 66q-16 66 -48 121t-95 89t-142 34q-110 0 -187 -64t-97 -155q-11 -52 -11 -104q0 -40 6 -79z" />
<glyph unicode="e" horiz-adv-x="1196" d="M41 528q0 107 41 206t113 174t176.5 120t224.5 45q74 0 139 -18q33 -7 72.5 -23t90.5 -45t99 -79.5t80 -112.5q40 -76 56.5 -148.5t21.5 -185.5h-829q11 -100 86.5 -169t187.5 -69q85 0 146 34t110 103h285q-39 -112 -105 -186q-81 -90 -200 -141t-242 -51 q-155 0 -282.5 74.5t-199 199.5t-71.5 272zM326 668h522q-23 86 -95 138t-163 52q-92 0 -165.5 -49t-98.5 -141z" />
<glyph unicode="f" horiz-adv-x="751" d="M61 823v232h142v121q0 190 74 286.5t241 96.5q47 0 111 -13.5t102 -42.5v-223q-30 17 -66.5 27t-60.5 8q-125 -8 -125 -174v-86h250v-234h-250v-821h-276v823h-142z" />
<glyph unicode="g" horiz-adv-x="1241" d="M41 522q0 82 21.5 161.5t65 150.5t103.5 125.5t143.5 86t178.5 31.5q86 0 167.5 -29t121.5 -85v92h297v-938q0 -118 -24.5 -211t-94.5 -172q-146 -162 -430 -162q-195 0 -321.5 89.5t-174.5 250.5h309q1 -4 3.5 -9.5t15.5 -21t33 -27t59.5 -21t91.5 -9.5q49 0 98.5 16 t73.5 41q39 43 53 81t17 110q-111 -99 -309 -99q-155 0 -291 101q-67 49 -112.5 116t-64 135t-24.5 112t-6 85zM338 606q-6 -36 -6 -73q0 -49 10 -97q18 -86 89 -145.5t171 -59.5q124 0 193 79t69 200q0 129 -69.5 215t-204.5 86q-103 0 -171 -59.5t-81 -145.5z" />
<glyph unicode="h" horiz-adv-x="1155" d="M102 0v1503h289v-530q30 58 106 88.5t156 30.5q128 0 228 -64t143 -174q29 -79 29 -195v-659h-287v596q0 86 -12.5 131.5t-59.5 73.5q-44 33 -106 33q-110 0 -153.5 -57.5t-43.5 -153.5v-623h-289z" />
<glyph unicode="i" horiz-adv-x="536" d="M82 1333q0 72 55 124t133 52q76 0 130.5 -52t54.5 -124q0 -59 -34 -103q-34 -46 -82 -64q-32 -12 -67 -12q-18 0 -38 4q-57 10 -99 50q-53 53 -53 125zM115 0v1055h293v-1055h-293z" />
<glyph unicode="j" horiz-adv-x="591" d="M0 -127q7 1 18.5 4.5t40.5 19.5t51.5 38t41 63.5t18.5 93.5v963h295v-985q0 -91 -24.5 -171t-100.5 -159q-65 -68 -154.5 -103.5t-185.5 -35.5v272zM135 1331q0 73 56 125.5t133 52.5q78 0 132 -52t54 -126q0 -59 -34 -104t-82 -63q-31 -12 -67 -12q-18 0 -38 4 q-57 9 -99 50q-55 49 -55 125z" />
<glyph unicode="k" horiz-adv-x="1136" d="M102 0v1503h295v-829l312 381h370l-436 -496l473 -559h-373l-346 440v-440h-295z" />
<glyph unicode="l" horiz-adv-x="503" d="M102 0v1503h299v-1503h-299z" />
<glyph unicode="m" horiz-adv-x="1714" d="M102 0v1055h297v-123q29 57 94 100t142 43q93 0 169.5 -37.5t117.5 -105.5q46 74 116 108.5t187 34.5q123 0 221.5 -52t140.5 -153q12 -29 17.5 -67t6.5 -65t1 -79v-659h-291v598q0 104 -27 150q-32 48 -102 58q-16 2 -30 2q-50 0 -85 -26q-46 -33 -59.5 -69.5 t-13.5 -100.5v-612h-295v573q0 121 -39.5 174.5t-114.5 53.5q-59 0 -102 -33q-10 -7 -18.5 -15.5t-15 -15.5t-11.5 -19.5t-8 -18.5t-5 -21.5t-3.5 -21t-2 -24.5t-0.5 -24v-27.5v-27.5v-553h-287z" />
<glyph unicode="n" horiz-adv-x="1153" d="M102 0v1055h295v-121q38 68 112 108.5t155 40.5q166 0 278 -112q64 -65 86.5 -141.5t22.5 -174.5v-655h-291v592q0 44 -9.5 83t-30 73.5t-57.5 54.5t-88 20q-66 0 -108 -36.5t-57 -86.5t-15 -112v-588h-293z" />
<glyph unicode="o" horiz-adv-x="1273" d="M44 589q10 96 56 185q75 148 219 227.5t320 79.5q257 0 425.5 -158t168.5 -395q0 -110 -46.5 -212t-125.5 -177.5t-190.5 -120.5t-235.5 -45q-110 0 -209 34.5t-172 92.5t-125 138q-51 80 -73 168q-14 59 -15 121q0 30 3 62zM344 444q27 -92 110 -149t183 -57 q119 0 212 84t93 194q0 75 -39 145t-110.5 115t-155.5 45q-104 0 -182 -58t-107 -145q-16 -47 -16 -93q0 -41 12 -81z" />
<glyph unicode="p" horiz-adv-x="1290" d="M102 -369v1424h287v-146q45 81 137.5 126.5t188.5 45.5q164 0 287 -76t185 -200.5t62 -276.5q0 -114 -37 -216t-105.5 -181t-174 -125.5t-232.5 -46.5q-86 0 -184 64t-129 137v-529h-285zM376 531q0 -56 19 -109q19 -55 54.5 -98t93 -69t129.5 -26q135 0 214 90t79 222 q0 127 -81.5 212t-211.5 85q-70 0 -127.5 -26t-93 -69t-55.5 -97q-20 -56 -20 -115z" />
<glyph unicode="q" horiz-adv-x="1290" d="M41 528q0 152 62 276.5t185 200.5t287 76q95 0 193.5 -49.5t136.5 -126.5l-4 150h287v-1424h-285v533q-38 -78 -132.5 -141.5t-180.5 -63.5q-127 0 -232.5 46.5t-174 125.5t-105.5 181t-37 216zM326 541q0 -132 78.5 -222t213.5 -90q72 0 129.5 26t93 69t54.5 98 q19 53 19 109q0 59 -20 115q-20 54 -55.5 97t-93 69t-127.5 26q-129 0 -210.5 -85.5t-81.5 -211.5z" />
<glyph unicode="r" horiz-adv-x="747" d="M102 0v1055h285v-146q31 75 91.5 121.5t129.5 46.5q41 0 119 -16v-283q-7 5 -21 13t-59 20q-34 9 -69 9q-12 0 -23 -1q-51 -4 -86 -25t-52 -57.5t-23.5 -74.5t-6.5 -89v-573h-285z" />
<glyph unicode="s" horiz-adv-x="956" d="M41 47l63 232q179 -86 324 -86q58 0 111 16q49 17 71 55q14 24 14 50q0 16 -6 32q-14 44 -63 74q-30 19 -134.5 44t-129.5 34q-24 8 -47 19t-51.5 33t-49 49.5t-35 70t-14.5 92.5q0 51 27.5 114.5t95.5 118.5q106 86 295 86q147 0 338 -57l-59 -219q-148 57 -222 63 q-30 4 -63 0.5t-61 -12t-46 -31t-18 -55.5q0 -22 10.5 -39.5t25 -28.5t43 -21.5t50 -16.5t61.5 -15q11 -3 17 -4q114 -25 169 -53.5t101 -85.5q55 -76 56 -171q0 -23 -4 -49q-17 -124 -95 -196q-127 -119 -387 -119q-91 0 -200.5 21t-186.5 55z" />
<glyph unicode="t" horiz-adv-x="722" d="M61 817v238h129v282h291v-282h181v-238h-185v-817h-289v817h-127z" />
<glyph unicode="u" horiz-adv-x="1159" d="M102 477v578h287v-553v-74q0 -87 48.5 -139.5t140.5 -52.5q100 0 144 60.5t44 158.5v600h291v-590q0 -100 -19 -179t-73 -145q-53 -67 -151 -117.5t-243 -50.5q-30 0 -61.5 3.5t-86.5 15t-111.5 41.5t-100.5 76q-69 70 -89 156.5t-20 211.5z" />
<glyph unicode="v" horiz-adv-x="1228" d="M20 1055h326l268 -566l273 566h321l-555 -1055h-100z" />
<glyph unicode="w" horiz-adv-x="1769" d="M20 1055h322l250 -553l239 553h115l246 -559l235 559h322l-500 -1055h-121l-239 539l-232 -539h-125z" />
<glyph unicode="x" horiz-adv-x="1347" d="M20 0l474 571l-400 484h377l211 -267l207 267h373l-402 -480l467 -575h-364l-293 358l-287 -358h-363z" />
<glyph unicode="y" horiz-adv-x="1333" d="M20 1055h330l342 -576l291 576h330l-756 -1424h-334l309 564z" />
<glyph unicode="z" horiz-adv-x="1259" d="M47 0l604 809h-477v246h1024l-602 -803h567v-252h-1116z" />
<glyph unicode="{" horiz-adv-x="690" d="M102 510q22 8 35 18q97 63 105 244v82v371q0 100 32.5 167t112.5 105q58 25 129 31q17 1 52.5 2t54.5 2q-105 -44 -136 -154q-14 -51 -14 -192v-199q0 -188 -4 -227q-9 -82 -43 -135q-29 -43 -66.5 -65t-138.5 -50q94 -26 127 -44.5t66 -55.5q41 -46 53 -127 q8 -57 8 -226v-225v-32v-34.5t1 -31.5t2.5 -33.5t5 -30.5t8 -32.5t12 -29t16.5 -30.5q38 -63 109 -90h-6q-97 0 -165.5 13t-123.5 57q-84 64 -92 231v92v262q0 9 0.5 43t0 46t-2 41t-5 44.5t-9.5 39t-15.5 42.5t-22.5 37q-34 49 -86 74z" />
<glyph unicode="|" horiz-adv-x="471" d="M102 -512v2044h267v-2044h-267z" />
<glyph unicode="}" horiz-adv-x="688" d="M61 -512q71 27 109 90q7 11 13 24t10.5 23.5t8 26t5.5 23.5t3.5 26.5t2.5 25t1.5 27.5t0.5 25v27.5v25.5v225q0 183 6 226q12 78 55 127q31 37 64.5 55t126.5 45q-100 29 -138 51t-65 64q-34 48 -43 135q-4 39 -4 227v199q0 134 -16 192q-31 109 -133 154q19 -1 54.5 -2 t51.5 -2q72 -6 129 -31q79 -38 112.5 -106t33.5 -166v-371v-82q4 -83 25 -145t77 -99q9 -7 35 -18q-51 -26 -84 -74q-15 -21 -25.5 -47t-16 -43.5t-8.5 -52t-3.5 -46t0 -54.5t0.5 -50v-262q0 -45 -3 -92q-4 -78 -22.5 -136t-67.5 -95q-55 -44 -123 -57t-165 -13h-7z" />
<glyph unicode="~" horiz-adv-x="1193" d="M61 616q53 72 93 107q101 86 227 86q23 0 44 -3t46 -11.5t37 -13t43.5 -18.5l40.5 -18l74 -32q90 -45 155 -45q96 0 205 125l107 -215q-39 -43 -93 -84q-119 -86 -227 -86q-83 0 -213 63l-63 31q-5 3 -20 10t-22 10t-20 8.5t-21.5 8t-20.5 5.5t-23.5 4t-22.5 1 q-33 0 -76 -17q-21 -10 -43.5 -29.5t-37 -35.5t-56.5 -64z" />
<glyph unicode="&#xa1;" horiz-adv-x="555" d="M102 1300q0 68 50.5 116t123.5 48q72 0 123.5 -46.5t51.5 -114.5q2 -66 -49 -115t-123 -49t-124.5 46.5t-52.5 114.5zM131 0v1016h301v-1016h-301z" />
<glyph unicode="&#xa3;" horiz-adv-x="1361" d="M61 86q9 13 31 47.5t30 46.5t28 39t32 38.5t34 31t42.5 29.5t49 22t61.5 20q18 60 18 91q0 28 -18 86h-277v202l162 2q-76 132 -76 252q0 127 73.5 235.5t195.5 171t262 62.5q198 0 335 -99.5t175 -281.5q6 -31 20 -129l-285 -84q0 4 -4 40t-5.5 45.5t-7 41.5t-10.5 45 t-15 38.5t-21.5 39.5t-29 30.5t-38.5 27.5q-40 21 -88 25.5t-92.5 -8.5t-81.5 -38t-59.5 -65.5t-22.5 -88.5q0 -23 8.5 -52.5t15 -44.5t26.5 -54t22 -43l37 -72h315v-200h-239l2 -15q8 -50 8 -78q0 -36 -21 -116q4 -1 67.5 -23t108.5 -34.5t70 -12.5q18 0 34.5 4t33 15 l27 18t27 25.5t22.5 25t23 28.5t19 25l215 -131q-40 -65 -72.5 -107.5t-80.5 -86t-108 -65t-134 -21.5q-47 0 -102 10.5t-81 18t-100.5 34t-84.5 29.5q-50 18 -88 18q-15 0 -29 -3t-24.5 -6.5t-22 -12.5t-17.5 -14t-17 -19t-14.5 -19t-15 -22.5t-14.5 -22.5z" />
<glyph unicode="&#xa4;" horiz-adv-x="1460" d="M61 260l162 148q-90 132 -90 290q0 150 90 283l-160 149l195 179l160 -148q143 84 313 84q183 0 320 -88l8 -6q3 15 38.5 54.5t70.5 71.5l34 32l197 -179l-162 -149q88 -129 88 -287q0 -157 -90 -288l164 -150l-199 -178l-162 147q-139 -80 -309 -80q-171 0 -311 82 l-162 -149zM397 694q0 -130 97.5 -218.5t238.5 -88.5q140 0 234 88.5t94 220.5q0 109 -68 191q-46 55 -110 84.5t-129 32.5t-130 -17t-115 -59t-81 -100t-31 -134z" />
<glyph unicode="&#xa6;" horiz-adv-x="452" d="M102 -391v833h248v-833h-248zM102 578v833h248v-833h-248z" />
<glyph unicode="&#xa7;" horiz-adv-x="1001" d="M61 150h285q3 -29 5 -43t7.5 -42t14.5 -43.5t23 -33t36 -25.5t51 -8q58 0 102 38t44 91q0 31 -16 53.5t-46.5 35.5t-56 19.5t-65.5 13.5t-54 11q-131 34 -212 135.5t-81 231.5q0 48 10.5 90.5t33 78.5t37.5 55.5t42 49.5q-96 101 -96 232q0 158 120 265t290 107 q157 0 269.5 -91.5t129.5 -235.5q4 -55 6 -131l-260 8q0 3 -2 19.5t-2.5 20t-3 18.5t-4 20t-5 17.5t-6.5 18t-8.5 16t-11.5 16.5l-14 14t-17 14q-28 19 -64.5 20.5t-68.5 -11t-54 -40.5t-22 -63t11.5 -58t36.5 -36t46 -19t58.5 -12.5t54.5 -10.5q142 -35 232 -135t90 -239 q0 -81 -33.5 -142t-95.5 -125q104 -88 104 -229q0 -159 -117.5 -271t-281.5 -112q-142 0 -250 65t-150 193q-7 23 -13.5 53t-15 72.5t-12.5 63.5zM379 547q12 -38 41.5 -62t53.5 -30t46 -6q56 0 94.5 40t38.5 95t-38.5 93t-92.5 38q-71 0 -116.5 -52.5t-26.5 -115.5z" />
<glyph unicode="&#xa8;" horiz-adv-x="798" d="M61 1395q0 58 44 97.5t104 39.5q61 0 103 -40.5t42 -96.5q0 -58 -43 -98t-104 -40q-60 0 -103 41t-43 97zM444 1395q0 58 44 97.5t104 39.5q61 0 103 -40.5t42 -96.5q0 -58 -43 -98t-104 -40q-60 0 -103 41t-43 97z" />
<glyph unicode="&#xa9;" horiz-adv-x="1583" d="M61 725q0 264 166 467q36 42 79.5 79.5t113.5 82t167 71.5t206 27q175 0 327.5 -76t257.5 -217q145 -195 142 -440q0 -42 -6 -87t-22 -110t-53.5 -136.5t-92.5 -135.5q-68 -80 -151.5 -135.5t-163 -79.5t-135.5 -32.5t-105 -8.5q-250 0 -447 149q-34 27 -66 58 t-73.5 85.5t-71.5 115t-51 146t-21 177.5zM127 723q0 -133 49 -252q75 -187 244.5 -299.5t372.5 -112.5q112 0 223 39q198 70 317 241t121 382q0 223 -129 399q-24 32 -52 62t-78 69t-105 67t-133.5 48t-163.5 20q-224 0 -394 -126q-41 -29 -81 -70t-86.5 -107t-75.5 -160 t-29 -200zM295 725q0 122 43 221q16 36 37.5 70t62 76t89.5 72.5t122.5 51.5t157.5 21q79 0 147 -17t117 -47.5t77 -54t58 -55.5l-178 -172q-102 102 -225 100q-76 0 -123 -24q-65 -31 -99 -97.5t-34 -144.5q2 -121 72.5 -193t189.5 -71q125 0 219 94l178 -166 q-83 -89 -179.5 -130.5t-219.5 -41.5q-124 0 -223 41q-140 58 -214.5 184t-74.5 283z" />
<glyph unicode="&#xab;" horiz-adv-x="1083" d="M61 528l273 529h258l-289 -529l289 -528h-258zM492 528l272 529h258l-289 -529l289 -528h-258z" />
<glyph unicode="&#xac;" horiz-adv-x="1452" d="M61 434v211h1330v-610h-248v399h-1082z" />
<glyph unicode="&#xad;" horiz-adv-x="790" d="M61 408v264h668v-264h-668z" />
<glyph unicode="&#xae;" horiz-adv-x="1583" d="M61 725q0 264 166 467q36 42 79.5 79.5t113.5 82t167 71.5t206 27q175 0 327.5 -76t257.5 -217q145 -195 142 -440q0 -42 -6 -87t-22 -110t-53.5 -136.5t-92.5 -135.5q-68 -80 -151.5 -135.5t-163 -79.5t-135.5 -32.5t-105 -8.5q-250 0 -447 149q-34 27 -66 58 t-73.5 85.5t-71.5 115t-51 146t-21 177.5zM127 723q0 -133 49 -252q75 -187 244.5 -299.5t372.5 -112.5q112 0 223 39q198 70 317 241t121 382q0 223 -129 399q-24 32 -52 62t-78 69t-105 67t-133.5 48t-163.5 20q-224 0 -394 -126q-41 -29 -81 -70t-86.5 -107t-75.5 -160 t-29 -200zM449 262v938h335q55 0 82 -2q105 -4 160.5 -27.5t91.5 -70.5q51 -66 51 -152q0 -28 -5.5 -52.5t-13 -42.5t-21.5 -35t-24 -27.5t-27.5 -22.5t-26 -16.5t-25 -13t-18.5 -9.5q20 -12 30 -20q57 -44 70 -146q0 -2 7 -41.5t14.5 -77.5t24 -90.5t36.5 -91.5l-258 2 q-13 28 -22.5 62t-13.5 55.5t-10 65.5t-9 61q-15 81 -25 100q-7 12 -18 21q-6 5 -14 9.5t-13.5 7t-16 4.5t-14.5 3t-16.5 1.5t-15 0.5h-16.5h-15h-39v-393h-225zM674 834h100q78 0 108.5 7.5t49.5 41.5q14 21 14 53q0 25 -12 47q-26 45 -119 45h-141v-194z" />
<glyph unicode="&#xb0;" horiz-adv-x="903" d="M63 1133q0 138 106 236.5t255 98.5q150 0 255 -98t105 -237q0 -135 -105.5 -234.5t-254.5 -99.5q-150 0 -255.5 98.5t-105.5 235.5zM266 1130q0 -60 46 -102.5t112 -42.5t111 43t45 105q0 72 -47.5 110.5t-110.5 36.5q-61 0 -108.5 -40t-47.5 -110z" />
<glyph unicode="&#xb1;" horiz-adv-x="1380" d="M102 0v229h1176v-229h-1176zM102 760v229h467v416h246v-416h463v-229h-463v-414h-246v414h-467z" />
<glyph unicode="&#xb4;" horiz-adv-x="507" d="M61 1239l150 291h235l-202 -291h-183z" />
<glyph unicode="&#xb6;" horiz-adv-x="1189" d="M61 1012q0 146 82 258t230 155q77 21 192 21h522v-201h-69v-1587h-219v1587h-195v-1587h-219v950l-10 2q-148 33 -231 143.5t-83 258.5z" />
<glyph unicode="&#xb7;" horiz-adv-x="454" d="M80 584q0 73 52.5 124.5t123.5 51.5q73 0 124.5 -52t51.5 -124q0 -73 -52 -124.5t-124 -51.5q-74 0 -125 51q-51 57 -51 125z" />
<glyph unicode="&#xb8;" horiz-adv-x="507" d="M61 -367l150 291h235l-202 -291h-183z" />
<glyph unicode="&#xbb;" horiz-adv-x="1083" d="M61 0l287 528l-287 529h258l273 -529l-273 -528h-258zM492 0l286 528l-286 529h258l272 -529l-272 -528h-258z" />
<glyph unicode="&#xbf;" horiz-adv-x="1013" d="M61 406q0 30 4.5 64.5t18 87.5t47.5 103.5t84 83.5q19 13 50 32.5t43.5 28t32.5 24.5t27.5 29.5t17 35.5t13 49t4.5 64h275v-86q0 -170 -137 -263q-12 -8 -47.5 -31.5t-49 -33.5t-38.5 -33.5t-35.5 -42.5t-19.5 -48.5t-9 -63.5q0 -73 42.5 -120.5t115.5 -47.5 q68 0 111 42.5t48 110.5h293q-20 -223 -182 -332q-113 -75 -283 -75q-192 0 -309 113.5t-117 308.5zM367 1303q0 72 50 123t122 51q71 0 121.5 -51t50.5 -123t-50.5 -123.5t-121.5 -51.5q-72 0 -122 51.5t-50 123.5z" />
<glyph unicode="&#xc0;" horiz-adv-x="1435" d="M61 0l621 1444h123l569 -1444h-307l-113 328h-456l-123 -328h-314zM348 1948h311l199 -383h-242zM600 596h258l-123 360z" />
<glyph unicode="&#xc1;" horiz-adv-x="1435" d="M61 0l621 1444h123l569 -1444h-307l-113 328h-456l-123 -328h-314zM600 596h258l-123 360zM641 1608l254 284l246 -112l-320 -260z" />
<glyph unicode="&#xc2;" horiz-adv-x="1435" d="M61 0l621 1444h123l569 -1444h-307l-113 328h-456l-123 -328h-314zM436 1690l303 194l299 -201l-112 -149l-193 117l-186 -123zM600 596h258l-123 360z" />
<glyph unicode="&#xc3;" horiz-adv-x="1435" d="M61 0l621 1444h123l569 -1444h-307l-113 328h-456l-123 -328h-314zM260 1671q38 40 61 61.5t60.5 48.5t78 39.5t87.5 12.5q53 0 104.5 -20.5t94.5 -41t77 -20.5q31 0 58 16t80 62l149 -113l-55 -55q-63 -56 -118 -84t-121.5 -28.5t-141.5 34.5q-7 3 -30 14t-35 16t-32 10 t-36 5q-29 0 -56.5 -15t-83.5 -57zM600 596h258l-123 360z" />
<glyph unicode="&#xc4;" horiz-adv-x="1435" d="M61 0l621 1444h125l567 -1444h-305l-115 328h-456l-123 -328h-314zM373 1575q0 58 44 97.5t103 39.5q61 0 103.5 -40.5t42.5 -96.5q0 -58 -43.5 -97.5t-104.5 -39.5q-60 0 -102.5 40.5t-42.5 96.5zM600 596h258l-123 360zM803 1575q0 58 44 97.5t103 39.5 q61 0 103.5 -40.5t42.5 -96.5q0 -58 -43.5 -97.5t-104.5 -39.5q-60 0 -102.5 40.5t-42.5 96.5z" />
<glyph unicode="&#xc5;" horiz-adv-x="1435" d="M61 0l621 1444h125l567 -1444h-305l-115 328h-456l-123 -328h-314zM545 1704q0 86 59.5 144.5t143.5 58.5t143 -59.5t59 -143.5q0 -85 -60 -144t-145 -59q-79 0 -141 62q-59 59 -59 141zM600 596h258l-123 360zM670 1704q0 -34 24 -55q23 -23 54 -23q32 1 54.5 24 t22.5 54q-1 34 -24.5 56t-55.5 22t-53.5 -23.5t-21.5 -54.5z" />
<glyph unicode="&#xc6;" horiz-adv-x="2004" d="M-90 0l739 1444h715l129 -281h-571l116 -252h576l117 -278h-570l162 -359h573l138 -274h-908l-149 326h-574l-157 -326h-336zM541 596l309 2q-87 186 -148 344z" />
<glyph unicode="&#xc7;" horiz-adv-x="1370" d="M61 723q0 140 49.5 270t143.5 228q112 115 276 182t330 67q110 0 217 -29.5t191 -84.5v-340q-190 168 -408 168q-115 0 -222 -47.5t-173 -128.5q-94 -116 -94 -287q0 -195 138.5 -327t350.5 -132q197 0 408 168v-336q-104 -56 -199.5 -85t-210.5 -29q-167 0 -314.5 56.5 t-253.5 154t-167.5 236t-61.5 296.5zM578 -367l149 291h236l-183 -291h-202z" />
<glyph unicode="&#xc8;" horiz-adv-x="1095" d="M102 0v1444h891v-283h-581v-235h530v-277h-532v-368h575v-281h-883zM127 1935h309l199 -383h-242z" />
<glyph unicode="&#xc9;" horiz-adv-x="1095" d="M102 0v1444h891v-283h-581v-235h530v-277h-532v-368h575v-281h-883zM393 1505l150 291h235l-203 -291h-182z" />
<glyph unicode="&#xca;" horiz-adv-x="1095" d="M102 0v1444h891v-283h-581v-235h530v-277h-532v-368h575v-281h-883zM139 1630l340 221l340 -225l-155 -125l-191 117l-186 -123z" />
<glyph unicode="&#xcb;" horiz-adv-x="1095" d="M102 0v1444h891v-283h-581v-235h530v-277h-532v-368h575v-281h-883zM152 1673q0 58 42.5 98.5t104.5 40.5q63 0 106.5 -41t43.5 -100t-44.5 -99t-105.5 -40q-62 0 -104.5 40.5t-42.5 100.5zM510 1673q0 58 42.5 98.5t104.5 40.5q63 0 106.5 -41t43.5 -100t-44.5 -99 t-105.5 -40q-62 0 -104.5 40.5t-42.5 100.5z" />
<glyph unicode="&#xcc;" horiz-adv-x="598" d="M-20 1931h309l198 -383h-241zM180 0v1444h316v-1444h-316z" />
<glyph unicode="&#xcd;" horiz-adv-x="593" d="M102 0v1444h316v-1444h-316zM106 1509l199 383h309l-266 -383h-242z" />
<glyph unicode="&#xce;" horiz-adv-x="444" d="M-123 1661l344 223l346 -233l-159 -117l-193 117l-186 -123zM59 0v1444h314l2 -1444h-316z" />
<glyph unicode="&#xcf;" horiz-adv-x="411" d="M-123 1671q0 58 44 99.5t106 41.5q63 0 106 -42t43 -101t-44 -99t-105 -40q-63 0 -106.5 40.5t-43.5 100.5zM33 0v1444h315v-1444h-315zM238 1671q0 59 43 100t104 41q63 0 106.5 -42t43.5 -101t-44.5 -99t-105.5 -40q-63 0 -105 40.5t-42 100.5z" />
<glyph unicode="&#xd1;" horiz-adv-x="1517" d="M102 0v1444h162q166 -155 442.5 -442t401.5 -408q-4 70 -4 106v744h311v-1444h-172l-833 868q6 -117 6 -233v-635h-314zM373 1610q3 3 32.5 28t37 31t33.5 25.5t40.5 26t38.5 18t46 15t46 3.5q50 0 95.5 -17.5t80.5 -34.5t60 -17q23 0 41 12t73 59l148 -119 q-76 -78 -111 -103q-75 -54 -166 -54q-48 0 -92 16.5t-79 33.5t-60 17q-19 0 -39 -10.5t-74 -54.5z" />
<glyph unicode="&#xd2;" horiz-adv-x="1662" d="M61 702q0 173 62 326q86 214 276.5 334.5t425.5 120.5q93 0 189 -21q254 -57 413 -245q28 -34 54 -75.5t55.5 -105.5t47.5 -148t18 -175q0 -165 -62 -314q-60 -146 -168.5 -245t-243.5 -145t-294 -46q-287 0 -484 146q-36 27 -69.5 58.5t-75.5 86.5t-72 116t-51 148.5 t-21 183.5zM375 719q0 -100 37 -187q54 -133 172 -203.5t266 -70.5q162 0 270 90q81 66 123.5 164.5t42.5 206.5q0 178 -108 307q-19 23 -46 46t-70 50.5t-102 44t-124 15.5q-33 0 -70.5 -5t-101 -28.5t-113.5 -63.5q-26 -21 -51.5 -48.5t-56.5 -73t-50 -109.5t-18 -135z M463 1948h311l199 -383h-242z" />
<glyph unicode="&#xd3;" horiz-adv-x="1662" d="M61 702q0 173 62 326q86 214 276.5 334.5t425.5 120.5q93 0 189 -21q254 -57 413 -245q28 -34 54 -75.5t55.5 -105.5t47.5 -148t18 -175q0 -165 -62 -314q-60 -146 -168.5 -245t-243.5 -145t-294 -46q-287 0 -484 146q-36 27 -69.5 58.5t-75.5 86.5t-72 116t-51 148.5 t-21 183.5zM375 719q0 -100 37 -187q54 -133 172 -203.5t266 -70.5q162 0 270 90q81 66 123.5 164.5t42.5 206.5q0 178 -108 307q-19 23 -46 46t-70 50.5t-102 44t-124 15.5q-33 0 -70.5 -5t-101 -28.5t-113.5 -63.5q-26 -21 -51.5 -48.5t-56.5 -73t-50 -109.5t-18 -135z M674 1565l198 383h310l-267 -383h-241z" />
<glyph unicode="&#xd4;" horiz-adv-x="1662" d="M61 702q0 173 62 326q86 214 276.5 334.5t425.5 120.5q93 0 189 -21q254 -57 413 -245q28 -34 54 -75.5t55.5 -105.5t47.5 -148t18 -175q0 -165 -62 -314q-60 -146 -168.5 -245t-243.5 -145t-294 -46q-287 0 -484 146q-36 27 -69.5 58.5t-75.5 86.5t-72 116t-51 148.5 t-21 183.5zM375 719q0 -100 37 -187q54 -133 172 -203.5t266 -70.5q162 0 270 90q81 66 123.5 164.5t42.5 206.5q0 178 -108 307q-19 23 -46 46t-70 50.5t-102 44t-124 15.5q-33 0 -70.5 -5t-101 -28.5t-113.5 -63.5q-26 -21 -51.5 -48.5t-56.5 -73t-50 -109.5t-18 -135z M498 1661l336 223l350 -229l-166 -121l-191 117l-186 -123z" />
<glyph unicode="&#xd5;" horiz-adv-x="1732" d="M63 756q3 136 60.5 265.5t157.5 229.5q113 113 266 174.5t317 61.5q163 0 311.5 -59t257.5 -159.5t173.5 -241.5t64.5 -298q0 -202 -109 -374t-295 -272.5t-403 -100.5q-165 0 -315 61t-258.5 163.5t-170.5 246.5t-57 303zM371 775q-10 -82 16 -169t88 -162 q69 -83 172.5 -129.5t216.5 -46.5q134 0 248 60t182 166.5t68 234.5q0 194 -144 329.5t-354 135.5q-99 0 -187.5 -34.5t-152 -91.5t-103.5 -134t-50 -159zM393 1747q38 40 61 61.5t61 48.5t78.5 39.5t88.5 12.5q52 0 103 -20.5t94 -41t77 -20.5q31 0 60 17t78 61l149 -113 l-55 -55q-63 -56 -118 -84t-121.5 -28.5t-141.5 34.5q-8 3 -30.5 14t-34.5 16t-31 10t-35 5q-29 0 -55.5 -15t-83.5 -57z" />
<glyph unicode="&#xd6;" horiz-adv-x="1681" d="M80 702q0 175 61 326q86 214 277 334.5t426 120.5q92 0 188 -21q256 -58 414 -245q28 -34 54 -75.5t55 -105.5t47 -148t18 -175q0 -167 -61 -314q-60 -146 -169 -245t-244 -145t-294 -46q-286 0 -483 146q-36 27 -69.5 58.5t-75.5 86.5t-72 116t-51 148.5t-21 183.5z M326 1610q0 58 44 97.5t103 39.5q61 0 103 -40.5t42 -96.5q0 -58 -43 -97.5t-104 -39.5q-60 0 -102.5 40.5t-42.5 96.5zM393 719q0 -100 37 -187q54 -133 172 -203.5t266 -70.5q163 0 271 90q81 66 123.5 164.5t42.5 206.5q0 177 -109 307q-19 23 -46 46t-70 50.5t-102 44 t-124 15.5q-33 0 -70.5 -5t-101 -28.5t-113.5 -63.5q-26 -21 -51.5 -48.5t-56.5 -73t-50 -109.5t-18 -135zM1049 1610q0 58 44 97.5t103 39.5q61 0 103 -40.5t42 -96.5q0 -58 -43 -97.5t-104 -39.5q-60 0 -102.5 40.5t-42.5 96.5z" />
<glyph unicode="&#xd7;" horiz-adv-x="1316" d="M61 225l412 373l-410 375l183 170l413 -375l410 375l186 -168l-409 -377l409 -375l-186 -168l-410 373l-413 -373z" />
<glyph unicode="&#xd8;" horiz-adv-x="1816" d="M61 115l195 180q-150 187 -150 418q0 213 106.5 386.5t293 272t414.5 98.5q128 0 233.5 -30.5t216.5 -98.5l197 183l188 -174l-196 -183q79 -108 117 -209t38 -225q0 -156 -64.5 -296t-173.5 -240t-259.5 -158.5t-317.5 -58.5q-127 0 -237 35t-226 106l-190 -176z M414 723q0 -115 63 -219l672 622q-105 54 -227 54q-137 0 -252.5 -57.5t-185.5 -163t-70 -236.5zM655 328q121 -62 246 -62q138 0 254 59.5t184 166.5t68 237q0 115 -74 232z" />
<glyph unicode="&#xd9;" horiz-adv-x="1370" d="M102 547v899h310v-850q0 -49 3.5 -85t14.5 -79t35.5 -77t62.5 -58q83 -43 162 -43q84 0 139 33q73 42 97 114.5t24 186.5v858h318v-885q0 -224 -97 -360q-80 -108 -215 -166t-276 -58q-180 0 -333 90.5t-214 249.5q-31 83 -31 230zM297 1894h311l199 -383h-242z" />
<glyph unicode="&#xda;" horiz-adv-x="1370" d="M102 547v899h310v-850q0 -49 3.5 -85t14.5 -79t35.5 -77t62.5 -58q83 -43 162 -43q84 0 139 33q73 42 97 114.5t24 186.5v858h318v-885q0 -224 -97 -360q-80 -108 -215 -166t-276 -58q-180 0 -333 90.5t-214 249.5q-31 83 -31 230zM494 1518l198 383h312l-269 -383h-241z " />
<glyph unicode="&#xdb;" horiz-adv-x="1370" d="M102 547v899h310v-850q0 -49 3.5 -85t14.5 -79t35.5 -77t62.5 -58q83 -43 162 -43q84 0 139 33q73 42 97 114.5t24 186.5v858h318v-885q0 -224 -97 -360q-80 -108 -215 -166t-276 -58q-180 0 -333 90.5t-214 249.5q-31 83 -31 230zM342 1663l342 221l334 -221l-150 -129 l-190 117l-186 -123z" />
<glyph unicode="&#xdc;" horiz-adv-x="1372" d="M102 549v895h312l-2 -846q0 -344 280 -344q79 0 137 35q75 42 98 113.5t23 187.5v854h320v-881q0 -229 -99 -360q-78 -109 -213 -167.5t-278 -58.5q-116 0 -224 38.5t-194.5 117.5t-126.5 186q-33 89 -33 230zM328 1614q0 58 44 97.5t103 39.5q61 0 103.5 -40.5 t42.5 -96.5q0 -58 -43.5 -97.5t-104.5 -39.5q-60 0 -102.5 40.5t-42.5 96.5zM711 1614q0 58 44 97.5t103 39.5q61 0 103.5 -40.5t42.5 -96.5q0 -58 -43.5 -97.5t-104.5 -39.5q-60 0 -102.5 40.5t-42.5 96.5z" />
<glyph unicode="&#xdf;" horiz-adv-x="1245" d="M102 625v262h78q0 13 -1.5 64.5t-1 73.5t1.5 69t6 75.5t12.5 66.5t21 69t31.5 57q21 30 50 58t75 58.5t112 49t142 18.5q201 0 328.5 -116t127.5 -302q0 -79 -27.5 -138.5t-88.5 -115.5q100 -48 157.5 -168t57.5 -235q0 -181 -119.5 -314t-306.5 -167q-50 -8 -207 -23 v262h-2q147 11 211 33.5t104 89.5q37 59 37 129t-49 140q-43 64 -99.5 79t-203.5 15v258q117 18 157 35q89 37 89 133q0 65 -46.5 106t-117.5 41q-136 0 -154 -149v-1141h-295v627h-80z" />
<glyph unicode="&#xe0;" horiz-adv-x="1263" d="M61 524q0 101 36.5 199t102 177t166.5 128t220 49q83 0 159 -34t121 -89v101h295v-1055h-295v100q-119 -125 -303 -125q-115 0 -212 47.5t-159 126t-96.5 176t-34.5 199.5zM276 1530h312l196 -383h-239zM365 441q13 -85 80.5 -145t170.5 -60q130 0 200.5 87t70.5 212 q0 115 -68.5 198.5t-189.5 83.5q-98 0 -168 -60t-89.5 -145.5t-6.5 -170.5z" />
<glyph unicode="&#xe1;" horiz-adv-x="1263" d="M61 524q0 101 36.5 199t102 177t166.5 128t220 49q83 0 159 -34t121 -89v101h295v-1055h-295v100q-119 -125 -303 -125q-115 0 -212 47.5t-159 126t-96.5 176t-34.5 199.5zM365 441q13 -85 80.5 -145t170.5 -60q130 0 200.5 87t70.5 212q0 115 -68.5 198.5t-189.5 83.5 q-98 0 -168 -60t-89.5 -145.5t-6.5 -170.5zM461 1147l198 383h310l-267 -383h-241z" />
<glyph unicode="&#xe2;" horiz-adv-x="1263" d="M61 524q0 101 36.5 199t102 177t166.5 128t220 49q83 0 159 -34t121 -89v101h295v-1055h-295v100q-119 -125 -303 -125q-115 0 -212 47.5t-159 126t-96.5 176t-34.5 199.5zM264 1255l361 312l350 -318l-137 -123l-213 181l-213 -183zM365 441q13 -85 80.5 -145t170.5 -60 q130 0 200.5 87t70.5 212q0 115 -68.5 198.5t-189.5 83.5q-98 0 -168 -60t-89.5 -145.5t-6.5 -170.5z" />
<glyph unicode="&#xe3;" horiz-adv-x="1263" d="M61 524q0 101 36.5 199t102 177t166.5 128t220 49q83 0 159 -34t121 -89v101h295v-1055h-295v100q-119 -125 -303 -125q-115 0 -212 47.5t-159 126t-96.5 176t-34.5 199.5zM199 1323q38 40 61 61.5t60.5 49t77.5 39.5t87 12q53 0 104.5 -20.5t95 -41t77.5 -20.5 q31 0 57.5 16.5t79.5 63.5l150 -115l-24 -24t-16.5 -15.5t-9.5 -8.5t-6 -7q-64 -56 -118.5 -83.5t-121 -28.5t-141.5 34l-17 8.5t-19.5 9.5t-17.5 8t-20.5 8t-18.5 5.5t-20.5 4.5t-19.5 1q-29 0 -57 -15t-82 -57zM365 441q13 -85 80.5 -145t170.5 -60q130 0 200.5 87 t70.5 212q0 115 -68.5 198.5t-189.5 83.5q-98 0 -168 -60t-89.5 -145.5t-6.5 -170.5z" />
<glyph unicode="&#xe4;" horiz-adv-x="1263" d="M61 524q0 101 36.5 199t102 177t166.5 128t220 49q83 0 159 -34t121 -89v101h295v-1055h-295v100q-119 -125 -303 -125q-115 0 -212 47.5t-159 126t-96.5 176t-34.5 199.5zM262 1305q0 59 46 101t108 42q63 0 108 -42.5t45 -102.5q-1 -61 -46.5 -103.5t-108.5 -42.5 q-62 0 -107 44.5t-45 103.5zM365 441q13 -85 80.5 -145t170.5 -60q130 0 200.5 87t70.5 212q0 115 -68.5 198.5t-189.5 83.5q-98 0 -168 -60t-89.5 -145.5t-6.5 -170.5zM672 1305q0 60 45 101.5t108 41.5t108 -42.5t44 -102.5q0 -61 -45.5 -103.5t-108.5 -42.5 q-62 0 -106.5 44.5t-44.5 103.5z" />
<glyph unicode="&#xe5;" horiz-adv-x="1263" d="M61 524q0 101 36.5 199t102 177t166.5 128t220 49q83 0 159 -34t121 -89v101h295v-1055h-295v100q-119 -125 -303 -125q-115 0 -212 47.5t-159 126t-96.5 176t-34.5 199.5zM365 441q13 -85 80.5 -145t170.5 -60q130 0 200.5 87t70.5 212q0 115 -68.5 198.5t-189.5 83.5 q-98 0 -168 -60t-89.5 -145.5t-6.5 -170.5zM412 1329q0 85 63 145t152 60q90 0 152.5 -61t62.5 -146q0 -87 -63 -146t-154 -59q-90 0 -151.5 60.5t-61.5 146.5zM563 1327q0 -26 17 -47l6 -4q20 -14 41 -14q28 0 47 19t18 46q0 26 -20 45t-47 19q-26 0 -44 -18t-18 -46z" />
<glyph unicode="&#xe6;" horiz-adv-x="1888" d="M61 344q0 108 59.5 193t155 129.5t205.5 44.5q113 -2 269 -72q-1 53 -9.5 78t-29.5 49q-65 70 -185 70q-51 0 -111 -14.5t-202 -61.5v264q101 23 147 31q108 22 201 22q123 0 204 -31t159 -112q78 77 181 114.5t206 30t199 -46.5t170.5 -116.5t109.5 -178.5 q17 -46 24 -101.5t13 -184.5h-799q7 -50 15.5 -79t33 -62.5t66.5 -55.5q58 -35 139 -35q113 0 184.5 41.5t116.5 122.5l203 -117q-23 -34 -28 -41t-17 -23.5t-20 -25t-23 -24.5q-80 -87 -192.5 -138t-233.5 -51q-117 0 -206 44t-177 132q-79 -92 -170 -132t-223 -40 q-183 0 -309 104.5t-126 272.5zM350 340q0 -59 48 -94t118 -35q48 0 90 11t74.5 40.5t32.5 73.5q0 60 -56.5 100.5t-126.5 40.5q-56 0 -106 -27t-68 -71q-6 -12 -6 -39zM1049 690h462q-29 56 -55 82q-57 57 -170 57q-84 0 -139 -34t-98 -105z" />
<glyph unicode="&#xe7;" horiz-adv-x="1064" d="M61 526q0 153 76.5 280.5t213.5 202t306 74.5q158 0 304 -73v-285q-166 98 -293 98q-131 0 -219.5 -93.5t-88.5 -217.5q0 -117 82.5 -195.5t212.5 -78.5q131 0 308 104v-287q-175 -82 -320 -82q-164 0 -298.5 75t-209 201.5t-74.5 276.5zM352 -367l150 291h235l-202 -291 h-183z" />
<glyph unicode="&#xe8;" horiz-adv-x="1218" d="M66 528q0 107 41 206t113 174t176.5 120t224.5 45q74 0 139 -18q33 -7 72.5 -23t90.5 -45t99 -79.5t80 -112.5q40 -76 56.5 -148.5t21.5 -185.5h-830q11 -100 87 -169t188 -69q85 0 146 34t110 103h284q-38 -112 -104 -186q-81 -90 -200.5 -141t-242.5 -51 q-155 0 -282.5 74.5t-198.5 199.5t-71 272zM250 1530h311l199 -383h-242zM350 668h522q-23 86 -95 138t-163 52q-92 0 -165.5 -49t-98.5 -141z" />
<glyph unicode="&#xe9;" horiz-adv-x="1236" d="M61 528q0 107 41 206t113 174t176.5 120t224.5 45q75 0 140 -18q33 -7 72.5 -23t90.5 -45t99 -79.5t80 -112.5q40 -76 56.5 -148.5t21.5 -185.5h-830q11 -100 87 -169t188 -69q85 0 146 34t110 103h284q-38 -112 -104 -186q-81 -90 -200.5 -141t-242.5 -51 q-155 0 -282.5 74.5t-199 199.5t-71.5 272zM346 668h522q-23 86 -95 138t-163 52q-92 0 -165.5 -49t-98.5 -141zM451 1147l198 383h309l-266 -383h-241z" />
<glyph unicode="&#xea;" horiz-adv-x="1236" d="M61 528q0 107 41 206t113 174t176.5 120t224.5 45q75 0 140 -18q33 -7 72.5 -23t90.5 -45t99 -79.5t80 -112.5q40 -76 56.5 -148.5t21.5 -185.5h-830q11 -100 87 -169t188 -69q85 0 146 34t110 103h284q-38 -112 -104 -186q-81 -90 -200.5 -141t-242.5 -51 q-155 0 -282.5 74.5t-199 199.5t-71.5 272zM268 1255l361 312l350 -318l-137 -123l-213 181l-213 -183zM346 668h522q-23 86 -95 138t-163 52q-92 0 -165.5 -49t-98.5 -141z" />
<glyph unicode="&#xeb;" horiz-adv-x="1236" d="M61 528q0 107 41 206t113 174t176.5 120t224.5 45q75 0 140 -18q33 -7 72.5 -23t90.5 -45t99 -79.5t80 -112.5q40 -76 56.5 -148.5t21.5 -185.5h-830q11 -100 87 -169t188 -69q85 0 146 34t110 103h284q-38 -112 -104 -186q-81 -90 -200.5 -141t-242.5 -51 q-155 0 -282.5 74.5t-199 199.5t-71.5 272zM266 1305q0 59 46 101t108 42q63 0 108 -42.5t45 -102.5q-1 -61 -46.5 -103.5t-108.5 -42.5q-62 0 -107 44.5t-45 103.5zM346 668h522q-23 86 -95 138t-163 52q-92 0 -165.5 -49t-98.5 -141zM676 1305q0 60 45 101.5t108 41.5 t108 -42.5t44 -102.5q0 -61 -45.5 -103.5t-108.5 -42.5q-62 0 -106.5 44.5t-44.5 103.5z" />
<glyph unicode="&#xec;" horiz-adv-x="487" d="M-123 1530h311l197 -383h-240zM84 0v1055h293v-1055h-293z" />
<glyph unicode="&#xed;" horiz-adv-x="487" d="M102 1147l199 383h309l-266 -383h-242zM125 0v1055h293v-1055h-293z" />
<glyph unicode="&#xee;" horiz-adv-x="423" d="M-123 1255l338 312l332 -318l-137 -123l-193 181l-194 -183zM88 0v1055h293v-1055h-293z" />
<glyph unicode="&#xef;" horiz-adv-x="471" d="M-123 1305q0 59 46 101t108 42q63 0 108 -42.5t45 -102.5q-1 -61 -46.5 -103.5t-108.5 -42.5q-62 0 -107 44.5t-45 103.5zM92 0v1055h293v-1055h-293zM287 1305q0 60 45 101.5t108 41.5t108 -42.5t44 -102.5q0 -61 -45.5 -103.5t-108.5 -42.5q-62 0 -106.5 44.5 t-44.5 103.5z" />
<glyph unicode="&#xf1;" horiz-adv-x="1153" d="M102 0v1055h295v-121q38 68 112 108.5t155 40.5q166 0 278 -112q64 -65 86.5 -141.5t22.5 -174.5v-655h-291v592q0 44 -9.5 83t-30 73.5t-57.5 54.5t-88 20q-66 0 -108 -36.5t-57 -86.5t-15 -112v-588h-293zM145 1323q38 40 61 61.5t60.5 48.5t78 39.5t87.5 12.5 q53 0 104.5 -20.5t95 -41t77.5 -20.5q31 0 57.5 16.5t79.5 63.5l149 -115l-55 -55q-64 -56 -118.5 -83.5t-121 -28.5t-141.5 34l-17 8.5t-19.5 9.5t-17.5 8t-20.5 8t-18.5 5.5t-20.5 4.5t-19.5 1q-29 0 -57 -15t-82 -57z" />
<glyph unicode="&#xf2;" d="M65.5 589q10.5 96 55.5 185q75 148 218.5 227.5t319.5 79.5q257 0 425.5 -158t168.5 -395q0 -110 -46.5 -212t-125.5 -177.5t-190.5 -120.5t-235.5 -45q-110 0 -209 34.5t-172 92.5t-124.5 138t-73 167.5t-11 183.5zM307 1530h311l197 -383h-240zM365 444 q27 -92 109.5 -149t182.5 -57q119 0 212.5 84t93.5 194q0 75 -39.5 145t-111 115t-155.5 45q-104 0 -182 -58t-106.5 -145t-3.5 -174z" />
<glyph unicode="&#xf3;" d="M65.5 589q10.5 96 55.5 185q75 148 218.5 227.5t319.5 79.5q257 0 425.5 -158t168.5 -395q0 -110 -46.5 -212t-125.5 -177.5t-190.5 -120.5t-235.5 -45q-110 0 -209 34.5t-172 92.5t-124.5 138t-73 167.5t-11 183.5zM365 444q27 -92 109.5 -149t182.5 -57q119 0 212.5 84 t93.5 194q0 75 -39.5 145t-111 115t-155.5 45q-104 0 -182 -58t-106.5 -145t-3.5 -174zM436 1147l199 383h309l-266 -383h-242z" />
<glyph unicode="&#xf4;" d="M65.5 589q10.5 96 55.5 185q75 148 218.5 227.5t319.5 79.5q257 0 425.5 -158t168.5 -395q0 -110 -46.5 -212t-125.5 -177.5t-190.5 -120.5t-235.5 -45q-110 0 -209 34.5t-172 92.5t-124.5 138t-73 167.5t-11 183.5zM281 1255l360 312l350 -318l-137 -123l-213 181 l-213 -183zM365 444q27 -92 109.5 -149t182.5 -57q119 0 212.5 84t93.5 194q0 75 -39.5 145t-111 115t-155.5 45q-104 0 -182 -58t-106.5 -145t-3.5 -174z" />
<glyph unicode="&#xf5;" d="M65.5 589q10.5 96 55.5 185q75 148 218.5 227.5t319.5 79.5q257 0 425.5 -158t168.5 -395q0 -110 -46.5 -212t-125.5 -177.5t-190.5 -120.5t-235.5 -45q-110 0 -209 34.5t-172 92.5t-124.5 138t-73 167.5t-11 183.5zM231 1323q38 40 61 61.5t61 48.5t78.5 39.5t88.5 12.5 q52 0 103 -20.5t94.5 -41t77.5 -20.5q31 0 59.5 17t77.5 63l149 -115l-55 -55q-64 -56 -118.5 -83.5t-121 -28.5t-141.5 34q-3 1 -17.5 8.5t-19 9.5t-17.5 8t-20 8t-18 5.5t-20.5 4.5t-18.5 1q-29 0 -57 -15t-82 -57zM365 444q27 -92 109.5 -149t182.5 -57q119 0 212.5 84 t93.5 194q0 75 -39.5 145t-111 115t-155.5 45q-104 0 -182 -58t-106.5 -145t-3.5 -174z" />
<glyph unicode="&#xf6;" d="M65.5 589q10.5 96 55.5 185q75 148 218.5 227.5t319.5 79.5q257 0 425.5 -158t168.5 -395q0 -110 -46.5 -212t-125.5 -177.5t-190.5 -120.5t-235.5 -45q-110 0 -209 34.5t-172 92.5t-124.5 138t-73 167.5t-11 183.5zM301 1305q0 59 46 101t108 42q63 0 108 -42.5 t45 -102.5q-1 -61 -46.5 -103.5t-108.5 -42.5q-62 0 -107 44.5t-45 103.5zM365 444q27 -92 109.5 -149t182.5 -57q119 0 212.5 84t93.5 194q0 75 -39.5 145t-111 115t-155.5 45q-104 0 -182 -58t-106.5 -145t-3.5 -174zM711 1305q0 60 45 101.5t108 41.5t108 -42.5 t44 -102.5q0 -61 -45.5 -103.5t-108.5 -42.5q-62 0 -106.5 44.5t-44.5 103.5z" />
<glyph unicode="&#xf7;" horiz-adv-x="1478" d="M61 479v234h1356v-234h-1356zM569 231q0 63 48.5 106.5t119.5 43.5q70 0 118 -44t48 -106t-49 -103.5t-119 -41.5q-69 2 -117.5 43t-48.5 102zM569 942q0 41 18.5 72.5t48 48t65 24t71 0t65 -24.5t48 -49t18.5 -73q0 -60 -48.5 -103t-117.5 -42q-71 2 -119.5 43 t-48.5 104z" />
<glyph unicode="&#xf8;" horiz-adv-x="1462" d="M61 37l175 174q-54 79 -79.5 152.5t-25.5 162.5q0 154 77.5 283t217 205t309.5 76q175 0 332 -95l176 172l158 -139l-187 -174q105 -154 105 -315q0 -154 -77.5 -285.5t-216.5 -210t-308 -78.5q-93 0 -171 26t-161 77l-180 -170zM426 512q0 -48 25 -102l405 383 q-58 28 -123 28q-134 0 -220.5 -89.5t-86.5 -219.5zM590 270q58 -28 127 -28q130 0 220.5 83.5t90.5 204.5q0 62 -31 119z" />
<glyph unicode="&#xf9;" horiz-adv-x="1159" d="M102 477v578h287v-553v-74q0 -87 48.5 -139.5t140.5 -52.5q100 0 144 60.5t44 158.5v600h291v-590q0 -100 -19 -179t-73 -145q-53 -67 -151 -117.5t-243 -50.5q-30 0 -61.5 3.5t-86.5 15t-111.5 41.5t-100.5 76q-69 70 -89 156.5t-20 211.5zM248 1530h311l197 -383h-240z " />
<glyph unicode="&#xfa;" horiz-adv-x="1159" d="M102 477v578h287v-553v-74q0 -87 48.5 -139.5t140.5 -52.5q100 0 144 60.5t44 158.5v600h291v-590q0 -100 -19 -179t-73 -145q-53 -67 -151 -117.5t-243 -50.5q-30 0 -61.5 3.5t-86.5 15t-111.5 41.5t-100.5 76q-69 70 -89 156.5t-20 211.5zM418 1147l198 383h310 l-267 -383h-241z" />
<glyph unicode="&#xfb;" horiz-adv-x="1159" d="M102 477v578h287v-553v-74q0 -87 48.5 -139.5t140.5 -52.5q100 0 144 60.5t44 158.5v600h291v-590q0 -100 -19 -179t-73 -145q-53 -67 -151 -117.5t-243 -50.5q-30 0 -61.5 3.5t-86.5 15t-111.5 41.5t-100.5 76q-69 70 -89 156.5t-20 211.5zM197 1255l360 312l350 -318 l-137 -123l-213 181l-213 -183z" />
<glyph unicode="&#xfc;" horiz-adv-x="1159" d="M102 477v578h287v-553v-74q0 -87 48.5 -139.5t140.5 -52.5q100 0 144 60.5t44 158.5v600h291v-590q0 -100 -19 -179t-73 -145q-53 -67 -151 -117.5t-243 -50.5q-30 0 -61.5 3.5t-86.5 15t-111.5 41.5t-100.5 76q-69 70 -89 156.5t-20 211.5zM213 1305q0 59 46 101t110 42 q63 0 107.5 -42.5t43.5 -102.5q-2 -62 -46 -104t-107 -42t-108.5 44.5t-45.5 103.5zM623 1305q0 60 46 101.5t109 41.5t107.5 -42.5t44.5 -102.5q-1 -61 -46 -103.5t-108 -42.5q-62 0 -107.5 44.5t-45.5 103.5z" />
<glyph unicode="&#xff;" horiz-adv-x="1415" d="M61 1055h330l342 -576l291 576h330l-756 -1424h-334l309 564zM334 1305q0 59 45.5 101t107.5 42q63 0 108.5 -42.5t45.5 -102.5q-1 -61 -47 -103.5t-109 -42.5q-62 0 -106.5 44.5t-44.5 103.5zM743 1305q0 60 45.5 101.5t108.5 41.5t108 -42.5t44 -102.5 q0 -61 -45.5 -103.5t-108.5 -42.5q-62 0 -107 44.5t-45 103.5z" />
<glyph unicode="&#x152;" horiz-adv-x="2349" d="M61 731q0 147 61.5 283t165 236.5t249 160t305.5 59.5q136 0 274 -42.5t238 -120.5l-2 135h895v-283h-592v-248h590v-270h-590v-362h588v-281h-893v152q-210 -168 -496 -168q-160 0 -306.5 58t-253 157.5t-170 239t-63.5 294.5zM389 760.5q-9 -80.5 17.5 -164.5 t89.5 -154q70 -78 171 -124t205 -46q125 0 237.5 61.5t180.5 166.5t68 225q0 119 -67 223.5t-180.5 167t-242.5 62.5q-96 0 -182.5 -35t-148 -92t-100.5 -133.5t-48 -157z" />
<glyph unicode="&#x153;" horiz-adv-x="2193" d="M61 526q0 152 71.5 279t205 203.5t301.5 76.5q280 0 465 -227q57 89 143.5 145t181.5 74t196.5 3.5t190 -58t161 -119t108.5 -172.5q21 -58 31 -120t16 -162l-877 -3q26 -100 105 -163.5t190 -63.5q117 0 191 45.5t127 124.5l231 -115q-89 -144 -229 -223t-309 -78 q-285 0 -463 222q-78 -106 -198 -164t-261 -58q-124 0 -232 43t-183.5 116.5t-119 176t-43.5 217.5zM356 568q-13 -70 13 -138q17 -49 47 -87t60.5 -58t66.5 -32.5t61 -16t47 -3.5q127 0 217 85t90 210q0 127 -86.5 210t-216.5 83q-80 0 -146.5 -35.5t-103 -91.5t-49.5 -126 zM1290 686h520q-33 71 -103 111.5t-157 40.5q-86 0 -153 -39.5t-107 -112.5z" />
<glyph unicode="&#x178;" horiz-adv-x="1472" d="M61 1444h373l295 -504q17 26 59 92t65 103t58 94t66 109.5t61 105.5h373l-526 -828v-616h-303v616zM328 1679q0 69 51.5 117.5t124.5 48.5t124.5 -49.5t51.5 -118.5t-53 -116.5t-125 -47.5t-122 49t-50 117h-2zM780 1679q0 69 51.5 117.5t124.5 48.5t125 -49.5t52 -118.5 t-53.5 -116.5t-125.5 -47.5t-122 49t-50 117h-2z" />
<glyph unicode="&#x2c6;" horiz-adv-x="743" d="M61 1190l308 244l313 -238l-152 -113l-165 125l-160 -125z" />
<glyph unicode="&#x2dc;" horiz-adv-x="888" d="M61 1227q22 20 56 45q99 69 213 69q59 0 131.5 -24.5t97.5 -24.5q16 0 34.5 6t29.5 12t29 18t24 15l151 -83q-46 -38 -83.5 -61.5t-87 -42t-106.5 -17t-122 23.5q-7 2 -24 8t-27.5 9.5t-25.5 6.5t-27 3q-22 0 -43.5 -9.5t-75.5 -39.5z" />
<glyph unicode="&#x2000;" horiz-adv-x="974" />
<glyph unicode="&#x2001;" horiz-adv-x="1948" />
<glyph unicode="&#x2002;" horiz-adv-x="974" />
<glyph unicode="&#x2003;" horiz-adv-x="1948" />
<glyph unicode="&#x2004;" horiz-adv-x="649" />
<glyph unicode="&#x2005;" horiz-adv-x="487" />
<glyph unicode="&#x2006;" horiz-adv-x="324" />
<glyph unicode="&#x2007;" horiz-adv-x="324" />
<glyph unicode="&#x2008;" horiz-adv-x="243" />
<glyph unicode="&#x2009;" horiz-adv-x="389" />
<glyph unicode="&#x200a;" horiz-adv-x="108" />
<glyph unicode="&#x2010;" horiz-adv-x="790" d="M61 408v264h668v-264h-668z" />
<glyph unicode="&#x2011;" horiz-adv-x="790" d="M61 408v264h668v-264h-668z" />
<glyph unicode="&#x2012;" horiz-adv-x="790" d="M61 408v264h668v-264h-668z" />
<glyph unicode="&#x2013;" horiz-adv-x="1177" d="M61 408v264h1055v-264h-1055z" />
<glyph unicode="&#x2014;" horiz-adv-x="1447" d="M61 408v264h1325v-264h-1325z" />
<glyph unicode="&#x2018;" horiz-adv-x="643" d="M61 1102l289 446h232l-199 -446h-322z" />
<glyph unicode="&#x2019;" horiz-adv-x="643" d="M61 1102l199 446h322l-289 -446h-232z" />
<glyph unicode="&#x201a;" horiz-adv-x="643" d="M61 -322l199 447h322l-289 -447h-232z" />
<glyph unicode="&#x201c;" horiz-adv-x="980" d="M61 1147l261 401h208l-180 -401h-289zM451 1147l260 401h209l-181 -401h-288z" />
<glyph unicode="&#x201d;" horiz-adv-x="980" d="M61 1147l179 401h290l-260 -401h-209zM451 1147l178 401h291l-261 -401h-208z" />
<glyph unicode="&#x201e;" horiz-adv-x="978" d="M61 -299l179 401h288l-260 -401h-207zM451 -299l178 401h289l-261 -401h-206z" />
<glyph unicode="&#x2022;" horiz-adv-x="757" d="M61 723q0 132 93 224.5t225 92.5t224.5 -92.5t92.5 -224.5t-92.5 -224.5t-224.5 -92.5t-225 92.5t-93 224.5z" />
<glyph unicode="&#x2026;" horiz-adv-x="2109" d="M61 137q0 73 53 124.5t124 51.5q73 0 124.5 -52t51.5 -124q0 -73 -52 -124.5t-124 -51.5q-74 0 -125 51q-52 59 -52 125zM889 137q0 73 52.5 124.5t123.5 51.5q73 0 124.5 -52t51.5 -124q0 -73 -52 -124.5t-124 -51.5q-74 0 -125 51q-51 57 -51 125zM1696 137 q0 73 52.5 124.5t123.5 51.5q73 0 124.5 -52t51.5 -124q0 -73 -52 -124.5t-124 -51.5q-74 0 -125 51q-51 57 -51 125z" />
<glyph unicode="&#x202f;" horiz-adv-x="389" />
<glyph unicode="&#x205f;" horiz-adv-x="487" />
<glyph unicode="&#x20ac;" horiz-adv-x="1646" d="M-45 489l82 166h143q-2 20 -2 45q0 27 2 45h-225l82 166h174q68 241 267.5 378.5t465.5 137.5q155 0 304 -60t249 -167l-80 -162q-209 224 -495 224q-177 0 -316 -96.5t-200 -254.5h950l-82 -166h-907q-1 -5 -3 -22t-2 -25q0 -3 5 -43h864l-84 -166h-741 q66 -167 207 -259.5t331 -92.5q131 0 250 54.5t238 173.5v-228q-98 -74 -229 -120t-269 -46q-260 0 -457.5 138.5t-265.5 379.5h-256z" />
<glyph unicode="&#x2122;" horiz-adv-x="1503" d="M61 1307v137h588v-137h-205v-543h-174v543h-209zM705 764v680h217l155 -490l146 490h219v-680h-168l8 362q3 70 12 138q-5 -19 -14.5 -56t-13.5 -53l-115 -391h-154l-120 393q-2 9 -7.5 24t-7.5 21q-9 45 -14 60q12 -90 14 -136l10 -362h-167z" />
<glyph unicode="&#xe000;" horiz-adv-x="1054" d="M0 0v1055h1055v-1055h-1055z" />
<glyph unicode="&#xfb01;" horiz-adv-x="1212" d="M61 823v232h142v121q0 190 74 286.5t241 96.5q47 0 111 -13.5t102 -42.5v-223q-30 17 -66.5 27t-60.5 8q-125 -8 -125 -174v-86h250v-234h-250v-821h-276v823h-142zM737 1333q0 72 55.5 124t133.5 52q76 0 130 -52t54 -124q0 -59 -33.5 -103.5t-81.5 -63t-105 -9 t-99 50.5q-54 54 -54 125zM770 0v1055h293v-1055h-293z" />
<glyph unicode="&#xfb02;" horiz-adv-x="1148" d="M61 823v232h142v121q0 190 74 286.5t241 96.5q47 0 111 -13.5t102 -42.5v-223q-30 17 -66.5 27t-60.5 8q-125 -8 -125 -174v-86h250v-234h-250v-821h-276v823h-142zM748 0v1503h299v-1503h-299z" />
</font>
</defs>
</svg>
