<svg version="1" xmlns="http://www.w3.org/2000/svg" width="204" height="24" viewBox="0 0 204 24"><path d="M180.8 21.3L178.9.2h-2.7l-1.7 21.1h-.1L172.6.2h-2l2.4 23.6h2.8l1.6-21h.1l1.6 21h2.8L184.3.2h-2l-1.5 21.1zM24.5 0c-2.9 0-3.8 1.7-3.8 4v16c0 2.3.9 4 3.8 4s3.8-1.7 3.8-4V4c0-2.3-.9-4-3.8-4zm1.7 19.9c0 1.3-.3 2.2-1.6 2.2-1.4 0-1.6-.9-1.6-2.2V4.1c0-1.3.3-2.2 1.6-2.2 1.4 0 1.6.9 1.6 2.2v15.8zm40.3-8.4c1.7-.1 2.4-.8 2.4-2.6v-6C68.9.5 67.6.2 65.6.2h-4v23.6h4c2.2 0 3.4-.4 3.4-2.7v-7.4c0-1.6-1-2.1-2.5-2.2zM63.7 2h1.2c1.1 0 1.8.2 1.8 1.6v5.3c0 1.4-.6 1.7-1.6 1.7h-1.4V2zm3.1 18.4c0 1.4-.7 1.6-1.8 1.6h-1.3v-9.5h1.4c1 0 1.7.3 1.7 1.4v6.5zm49-8.9c1.7-.1 2.4-.8 2.4-2.6v-6c0-2.4-1.3-2.7-3.3-2.7h-4v23.6h4c2.2 0 3.4-.4 3.4-2.7v-7.4c0-1.6-.9-2.1-2.5-2.2zM113 2h1.2c1.1 0 1.8.2 1.8 1.6v5.3c0 1.4-.6 1.7-1.6 1.7H113V2zm3.1 18.4c0 1.4-.7 1.6-1.8 1.6H113v-9.5h1.4c1 0 1.7.3 1.7 1.4v6.5zM201.7.2v20.2h-.1L199 .2h-3.1v23.6h1.9v-21h.1l2.7 21h3.1V.2h-2zM5.4 11.5c1.7-.1 2.4-.8 2.4-2.6v-6C7.8.5 6.5.2 4.5.2h-4v23.6h4c2.2 0 3.4-.4 3.4-2.7v-7.4c-.1-1.6-1-2.1-2.5-2.2zM2.5 2h1.2c1.1 0 1.8.2 1.8 1.6v5.3c0 1.4-.6 1.7-1.6 1.7H2.5V2zm3.2 18.4c0 1.4-.7 1.6-1.8 1.6H2.5v-9.5H4c1 0 1.7.3 1.7 1.4v6.5zm130.5-8.9c1.7-.2 2.4-.8 2.4-2.6v-6c0-2.4-1.3-2.7-3.3-2.7h-4v23.6h2.2V12.5h1.4c1 0 1.7.3 1.7 1.4v9.9h2.2V13.7c-.1-1.6-1-2.1-2.6-2.2zm-1.4-.9h-1.4V2h1.2c1.1 0 1.8.2 1.8 1.6v5.3c0 1.4-.6 1.7-1.6 1.7zm-88.7.9c1.7-.1 2.4-.8 2.4-2.6v-6C48.5.5 47.2.2 45.2.2h-4v23.6h4c2.2 0 3.4-.4 3.4-2.7v-7.4c0-1.6-1-2.1-2.5-2.2zM43.3 2h1.2c1.1 0 1.8.2 1.8 1.6v5.3c0 1.4-.6 1.7-1.6 1.7h-1.4V2zm3.1 18.4c0 1.4-.7 1.6-1.8 1.6h-1.3v-9.5h1.4c1 0 1.7.3 1.7 1.4v6.5zm35.5 3.4H84V.2h-2.2v23.6zM155.4 0c-2.9 0-3.8 1.7-3.8 4v16c0 2.3.9 4 3.8 4s3.8-1.7 3.8-4V4c0-2.3-.9-4-3.8-4zm1.6 19.9c0 1.3-.3 2.2-1.6 2.2-1.4 0-1.6-.9-1.6-2.2V4.1c0-1.3.3-2.2 1.6-2.2 1.4 0 1.6.9 1.6 2.2v15.8z" fill="#fff"/></svg>