<svg xmlns="http://www.w3.org/2000/svg" width="151.25" height="24" viewBox="0 0 151.25 24"><title>chanel</title><path d="M64.9.51H62L51.94 23.58h4.74l2.25-5.11h12l2.25 5.11h4.72L67.81.51zm0 13.4h-4l4-9.13 4 9.17zM115.62 14.34h10.49V9.79h-10.49V4.81h11.76V.51h-16.74v23.08h17.96v-4.31h-12.98v-4.94zM139.4 19.28V.51h-4.98v23.08h16.83v-4.27l-11.85-.04zM42.96 8.83H32.34V.51h-4.98v23.08h4.98v-9.82h10.62v9.82h4.98V.55h-4.98v8.28zM98.75 14.87L88.53.55 86.74.51h-4v23.08h4V6.74l12.01 16.85h4.29V.55h-4.29v14.32zM17.7 16.11l-.61.72-.64.64-.79.53-.83.45-.89.32-.96.19-.98.08-.68-.02-.7-.11-.66-.16-.64-.24-.64-.3-.57-.36-.56-.42-.51-.45-.47-.53-.42-.54-.36-.59-.3-.62-.21-.64-.17-.68-.09-.68-.04-.7.04-.7.09-.68.17-.66.21-.62.3-.62.36-.61.42-.56.47-.51.51-.47.56-.4.57-.36.64-.28.64-.25.66-.15.7-.11.68-.04.72.04.68.11.66.15.66.25.58.28.61.36.56.4.51.47.57.66.47.68 4.45-2.27-.41-.68-.49-.66-.49-.62-.57-.62-.91-.81-.92-.68-1.02-.61-1.07-.51-1.06-.37-1.17-.31-1.17-.18L12 0l-1.23.06-1.18.2-1.14.29-1.11.41-1.04.51-1.02.59-.92.69-.83.78-.78.87-.69.92-.63.98-.47 1.04-.41 1.11L.24 9.6l-.18 1.19L0 12l.06 1.21.18 1.15.27 1.13.4 1.11.51 1.04.58 1.02.72.94.81.87.87.81.94.72 1.02.6 1.04.49 1.11.4 1.13.3 1.17.15L12 24l1.19-.06 1.17-.15 1.17-.3 1.06-.4 1.07-.49 1.02-.6.92-.72.91-.81.62-.64.57-.72.51-.75.43-.77-4.43-2.27-.51.79z" fill="#fff" fill-rule="evenodd"/></svg>