<svg version="1" xmlns="http://www.w3.org/2000/svg" width="86" height="24" viewBox="0 0 86 24"><path d="M.6 0v.5h85.1V0H.6zm0 23.5v.5h85.1v-.5H.6zm56.1-4.7c3.8-1.5 5.1-3.5 5.1-7.4 0-4.8-2-7.1-7.1-7.1-4.4 0-6.9 2.5-6.9 6.9 0 4 1.4 6.6 4.3 7.5 1 .4 2.3 0 4.4 1.3 3.3 1.9 3.3 2 4.2 2 .5 0 .7-.2.7-.5 0-.5-.9 0-2.1-1.4-.4-.5-1.1-.9-2.4-1.2l-.2-.1zM54.8 5.3c3.1 0 4.8 2.3 4.8 6.4 0 4.1-1.5 6.5-4.8 6.5-3 0-4.9-2.2-4.9-6.4s1.9-6.5 4.9-6.5zm-43-.7c-1.8-.2-3.2-.4-5-.4C2.6 4.2.3 6.7.3 11.5c0 5.1 2.7 7.7 7.6 7.7 1.4 0 2.7-.2 3.3-.6.7-.4 1.1-1.8 1.1-1.9 0-.2 0-.3-.1-.3-.2 0-1.8 1.7-4.2 1.7-3.2 0-5.2-2.4-5.2-6.6 0-4 1.8-6.2 5.2-6.2 2.9 0 3.5 1.1 3.8 1.1.1 0 .1 0 .1-.1 0-.2-.2-1-.2-1.6l.1-.1zm16.9 0c.6 2.4.6 2.9.6 7.5 0 2.8-.1 5.2-.1 7v.2h2.2c-.8-1-.8-1.2-.8-2.3l.3-9.3 8.5 11.6h1.3l-.3-14.7h-1.9c.8.9.8 1 .8 2.3l-.4 8-7.5-10.3h-2.7zm34.8 0c.4 4.8.4 4.8.4 6.4 0 1.3-.1 2.2-.1 3.2 0 3.9 1.3 5.5 5.4 5.5 4.6 0 5.5-1.6 5.5-5.9V4.6h-2c.4.8.7 1.4.7 2.2l-.2 5.2c0 6.1-1 6.6-3.7 6.6-3.5 0-3.5-2.1-3.5-6.7 0-1.4.1-5.1.4-7.2v-.1h-2.9zm13.1 0c.4 3.4.5 4.4.5 7.5 0 1.8 0 1.8-.4 6.9v.1c1.8-.2 2.9-.2 3.8-.2 1.6 0 2.6.2 3.5.2 1.2 0 1.7-.3 1.7-2.1-.6.7-1.2 1.1-2.2 1.1-1.2 0-2.7-.2-4.1-.5h-.2l.2-5.4h5.8c-.1-.3-.1-.4-.1-.6 0-.2 0-.3 0-.5V11h-5.8V6c2-.1 4.3-.4 5-.4.4 0 .4 0 1.2.7l.1.1-.2-1.9-8.8.1zm-62.9 0c.3 2.5.5 4.4.5 9 0 1.7-.1 3.2-.2 5.6v.1c1.5-.1 2.3-.2 3.3-.2 1.6 0 1.7.1 2.9.1 1 0 1.5-.3 1.6-.4.1 0 .6-1 .6-1.6 0-.2-.1-.3-.2-.3-.2 0-.6 1.1-2 1.1-1.1 0-1.8-.3-3.6-.3h-.2c0-6.5 0-9.8.2-13.1h-2.9zm9.8 0c.3 3.8.4 5.2.4 8.2 0 2.6 0 3.3-.2 6.4v.1h2.5c-.1-2.8-.2-4.6-.2-7.8 0-.9 0-.9.2-6.8v-.1h-2.7zm19.9 0c.3 3.6.4 5.2.4 8.1 0 2.6-.1 4.9-.2 6.5v.1h2.5c-.1-2.9-.2-4.9-.2-7.7 0-.9 0-.9.2-6.9v-.1h-2.7z" fill="#fff"/></svg>