<svg xmlns="http://www.w3.org/2000/svg" width="191.68" height="24" viewBox="0 0 191.68 24"><title>estee-lauder</title><path d="M35.06 4.69v18.79h2.63V4.69h6.46V3.47H28.57v1.22zm23.56-3.53V0H46.84v1.16zM46.93 23.48h11.84v-1.27h-9.21v-9h8.37V12h-8.37V4.69h9.06V3.47H46.93v20zm15.58 0h11.9v-1.27h-9.24v-9h8.4V12h-8.4V4.69h9.09V3.47H62.5v20zm-62.5 0h11.83v-1.27H2.63v-9H11V12H2.63V4.69h9.12V3.47H0v20zm160.44 0h11.87v-1.27h-9.21v-9h8.37V12h-8.37V4.66h9.06V3.47h-11.73v20zm-74.23 0h11.75v-1.3h-9.13V3.47h-2.63v20zm-71.83-.87A12.39 12.39 0 0 0 20.18 24c4.17 0 7.93-2.4 7.93-6.46 0-6.83-11.41-4.52-11.41-9.79 0-1.94 1.82-3.65 4.57-3.65a8.36 8.36 0 0 1 5.38 2.06V4.34A12.52 12.52 0 0 0 21.16 3c-3.53 0-6.77 2.08-6.77 5.44 0 7.15 11.32 4.57 11.32 9.93 0 2.2-2.06 4.4-5.53 4.4a10.94 10.94 0 0 1-5.79-2v1.82zm84.54.87l8.45-20.21h2.08l3.3 7.79 5.33 12.42h-3l-3.13-7.64h-8.12l-3.1 7.64zm12.56-8.83c-.9-2.14-2.29-5.5-3.59-8.86-1.36 3.47-3.13 7.87-3.56 8.86zm8 2.2c0 4.49 2.63 7.06 8 7.06 5.73 0 8-3.33 8-6.92V3.47h-1.56V17c0 3.68-2.46 5.79-6.14 5.79-3.24 0-5.7-1.68-5.7-5.44V3.47h-2.61v13.38zm56.6-13.37h7.24c3.79-.09 6.95 1.42 6.95 5.12s-4.2 4.83-5.1 5l6.51 9.87h-3l-6.14-9.55h-3.81v9.55h-2.66v-20zm5.75 9.32c3.3.06 5.82-1.22 5.82-4.2 0-2.63-1.59-4.05-4.55-4h-4.4v8.2zm-42.39 10.68v-20h7.67c6.37-.12 10.07 3.5 10.07 9.76 0 7.44-5.1 10.34-11.09 10.25zm2.66-1.19h3.5c5.44.09 8.89-2.29 8.89-8.74 0-6-2.84-9-7.73-8.92h-4.66v17.66z" fill="#fff" fill-rule="evenodd"/></svg>