<svg xmlns="http://www.w3.org/2000/svg" width="142.01" height="24" viewBox="0 0 142.01 24"><title>wbeauty</title><path fill="#231f20" d="M25.18 14.62L20.76.59h-5.1l-4.38 14.03L6.61.59H0l7.95 23.09h6.11l4.05-13.18 4.22 13.18h6.05L36.2.59h-6.54l-4.48 14.03zM47.68 10.81a5.34 5.34 0 0 0 2.19-4.32 5.81 5.81 0 0 0-3.86-5.34 10.73 10.73 0 0 0-3.07-.46H37.7v23h6.25c2.59 0 4.75-.52 6.48-2.62A6.93 6.93 0 0 0 52 16.78a6 6 0 0 0-4.32-5.97zm-7.18-7.6h2.3a5.84 5.84 0 0 1 2.06.2 3.34 3.34 0 0 1-.36 6.41 18.18 18.18 0 0 1-4 .2zm5.8 17.68a6.24 6.24 0 0 1-2 .2h-3.85v-8.58h3.57a7.45 7.45 0 0 1 2.32.26 4.45 4.45 0 0 1 2.95 4.09 4.14 4.14 0 0 1-3.01 4.03zM56.85 12.57h8.94v-2.52h-8.91V3.24h8.91V.72H54.07v22.92h11.88v-2.62h-9.1v-8.45zM77.38 0l-10 23.67h3.12l3-7.4h8.71l2.91 7.4h3.14L78.59 0zm-2.79 13.75l3.38-8.05 3.24 8.05zM102.39 14.73a6.35 6.35 0 0 1-1.44 4.55 6 6 0 0 1-4.58 2.1 6.13 6.13 0 0 1-4.49-1.9 5.74 5.74 0 0 1-1.38-4.22V.72h-2.78v14.6C87.72 20 90.8 24 96.33 24a8.52 8.52 0 0 0 8.55-6.45 18.3 18.3 0 0 0 .23-2.29V.72h-2.72zM106.91 3.27h6.25v20.4h2.85V3.27h6.22V.72h-15.32v2.55zM138.8.72l-6.16 10.05L126.65.69h-3.27l7.85 13v9.95h2.76v-9.95L142.01.72h-3.21z"/></svg>